M48
; DRILL file {KiCad (6.0.9)} date Tue Jul  4 21:14:20 2023
; FORMAT={-:-/ absolute / inch / decimal}
; #@! TF.CreationDate,2023-07-04T21:14:20+02:00
; #@! TF.GenerationSoftware,Kicad,Pcbnew,(6.0.9)
; #@! TF.FileFunction,Plated,1,2,PTH
FMAT,2
INCH
; #@! TA.AperFunction,Plated,PTH,ComponentDrill
T1C0.0315
; #@! TA.AperFunction,Plated,PTH,ComponentDrill
T2C0.0400
; #@! TA.AperFunction,Plated,PTH,ComponentDrill
T3C0.0512
%
G90
G05
T1
X2.2Y-1.44
X2.2Y-1.74
X2.3Y-1.44
X2.3Y-1.74
X2.4Y-1.44
X2.4Y-1.74
X2.5Y-1.44
X2.5Y-1.74
X2.6Y-1.44
X2.6Y-1.74
X2.7Y-1.44
X2.7Y-1.74
X2.8Y-1.44
X2.8Y-1.74
X2.9Y-1.44
X2.9Y-1.74
T2
X1.875Y-1.1
X1.975Y-1.1
X2.075Y-1.1
X2.175Y-1.1
X2.235Y-3.0
X2.275Y-1.1
X2.335Y-3.0
X2.375Y-1.1
X2.435Y-3.0
X2.475Y-1.1
X2.535Y-3.0
X2.575Y-1.1
X2.635Y-3.0
X2.675Y-1.1
X2.735Y-3.0
X2.775Y-1.1
X2.835Y-3.0
X2.935Y-1.1
X2.935Y-3.0
X3.035Y-1.1
X3.135Y-1.1
X3.135Y-3.0
X3.235Y-1.1
X3.235Y-3.0
X3.335Y-1.1
X3.335Y-3.0
X3.435Y-1.1
X3.435Y-3.0
X3.535Y-1.1
X3.535Y-3.0
X3.635Y-1.1
X3.635Y-3.0
X3.64Y-1.9
X3.64Y-2.0
X3.64Y-2.1
X3.74Y-1.9
X3.74Y-2.0
X3.74Y-2.1
T3
X1.3587Y-2.27
X1.3587Y-2.47
X1.5146Y-2.27
X1.5146Y-2.47
X1.6705Y-2.27
X1.6705Y-2.47
X1.8264Y-2.27
X1.8264Y-2.47
X1.9823Y-2.27
X1.9823Y-2.47
X2.1382Y-2.27
X2.1382Y-2.47
X2.2941Y-2.27
X2.2941Y-2.47
X2.45Y-2.27
X2.45Y-2.47
X2.6059Y-2.27
X2.6059Y-2.47
X2.7618Y-2.27
X2.7618Y-2.47
X2.9177Y-2.27
X2.9177Y-2.47
X3.0736Y-2.27
X3.0736Y-2.47
X3.2295Y-2.27
X3.2295Y-2.47
X3.3854Y-2.27
X3.3854Y-2.47
X3.5413Y-2.27
X3.5413Y-2.47
T0
M30
