%TF.GenerationSoftware,KiCad,Pcbnew,(6.0.9)*%
%TF.CreationDate,2023-07-04T21:14:23+02:00*%
%TF.ProjectId,p2000t-cartridge-reader,70323030-3074-42d6-9361-727472696467,rev?*%
%TF.SameCoordinates,Original*%
%TF.FileFunction,Copper,L2,Bot*%
%TF.FilePolarity,Positive*%
%FSLAX46Y46*%
G04 Gerber Fmt 4.6, Leading zero omitted, Abs format (unit mm)*
G04 Created by KiCad (PCBNEW (6.0.9)) date 2023-07-04 21:14:23*
%MOMM*%
%LPD*%
G01*
G04 APERTURE LIST*
%TA.AperFunction,ComponentPad*%
%ADD10R,1.600000X1.600000*%
%TD*%
%TA.AperFunction,ComponentPad*%
%ADD11O,1.600000X1.600000*%
%TD*%
%TA.AperFunction,ComponentPad*%
%ADD12O,1.727200X1.727200*%
%TD*%
%TA.AperFunction,ComponentPad*%
%ADD13C,2.500000*%
%TD*%
%TA.AperFunction,Conductor*%
%ADD14C,0.250000*%
%TD*%
G04 APERTURE END LIST*
D10*
%TO.P,U1,1,Q11*%
%TO.N,A11*%
X55880000Y-44196000D03*
D11*
%TO.P,U1,2,Q5*%
%TO.N,A5*%
X58420000Y-44196000D03*
%TO.P,U1,3,Q4*%
%TO.N,A4*%
X60960000Y-44196000D03*
%TO.P,U1,4,Q6*%
%TO.N,A6*%
X63500000Y-44196000D03*
%TO.P,U1,5,Q3*%
%TO.N,A3*%
X66040000Y-44196000D03*
%TO.P,U1,6,Q2*%
%TO.N,A2*%
X68580000Y-44196000D03*
%TO.P,U1,7,Q1*%
%TO.N,A1*%
X71120000Y-44196000D03*
%TO.P,U1,8,VSS*%
%TO.N,GND*%
X73660000Y-44196000D03*
%TO.P,U1,9,Q0*%
%TO.N,A0*%
X73660000Y-36576000D03*
%TO.P,U1,10,CLK*%
%TO.N,CCLK*%
X71120000Y-36576000D03*
%TO.P,U1,11,Reset*%
%TO.N,CRES*%
X68580000Y-36576000D03*
%TO.P,U1,12,Q8*%
%TO.N,A8*%
X66040000Y-36576000D03*
%TO.P,U1,13,Q7*%
%TO.N,A7*%
X63500000Y-36576000D03*
%TO.P,U1,14,Q9*%
%TO.N,A9*%
X60960000Y-36576000D03*
%TO.P,U1,15,Q10*%
%TO.N,A10*%
X58420000Y-36576000D03*
%TO.P,U1,16,VDD*%
%TO.N,+5V*%
X55880000Y-36576000D03*
%TD*%
D12*
%TO.P,XA1,*%
%TO.N,*%
X56769000Y-76200000D03*
%TO.P,XA1,3V3,3.3V*%
%TO.N,unconnected-(XA1-Pad3V3)*%
X64389000Y-76200000D03*
%TO.P,XA1,5V1,5V*%
%TO.N,+5V*%
X66929000Y-76200000D03*
%TO.P,XA1,5V2,SPI_5V*%
%TO.N,unconnected-(XA1-Pad5V2)*%
X94996000Y-48260000D03*
%TO.P,XA1,A0,A0*%
%TO.N,D0*%
X79629000Y-76200000D03*
%TO.P,XA1,A1,A1*%
%TO.N,D1*%
X82169000Y-76200000D03*
%TO.P,XA1,A2,A2*%
%TO.N,D2*%
X84709000Y-76200000D03*
%TO.P,XA1,A3,A3*%
%TO.N,D3*%
X87249000Y-76200000D03*
%TO.P,XA1,A4,A4*%
%TO.N,unconnected-(XA1-PadA4)*%
X89789000Y-76200000D03*
%TO.P,XA1,A5,A5*%
%TO.N,unconnected-(XA1-PadA5)*%
X92329000Y-76200000D03*
%TO.P,XA1,AREF,AREF*%
%TO.N,unconnected-(XA1-PadAREF)*%
X52705000Y-27940000D03*
%TO.P,XA1,D0,D0_RX0*%
%TO.N,unconnected-(XA1-PadD0)*%
X92329000Y-27940000D03*
%TO.P,XA1,D1,D1_TX0*%
%TO.N,unconnected-(XA1-PadD1)*%
X89789000Y-27940000D03*
%TO.P,XA1,D2,D2_INT0*%
%TO.N,CARSEL1*%
X87249000Y-27940000D03*
%TO.P,XA1,D3,D3_INT1*%
%TO.N,CARSEL2*%
X84709000Y-27940000D03*
%TO.P,XA1,D4,D4*%
%TO.N,D4*%
X82169000Y-27940000D03*
%TO.P,XA1,D5,D5*%
%TO.N,D5*%
X79629000Y-27940000D03*
%TO.P,XA1,D6,D6*%
%TO.N,D6*%
X77089000Y-27940000D03*
%TO.P,XA1,D7,D7*%
%TO.N,D7*%
X74549000Y-27940000D03*
%TO.P,XA1,D8,D8*%
%TO.N,A12*%
X70485000Y-27940000D03*
%TO.P,XA1,D9,D9*%
%TO.N,CCLK*%
X67945000Y-27940000D03*
%TO.P,XA1,D10,D10_CS*%
%TO.N,CRES*%
X65405000Y-27940000D03*
%TO.P,XA1,D11,D11*%
%TO.N,unconnected-(XA1-PadD11)*%
X62865000Y-27940000D03*
%TO.P,XA1,D12,D12*%
%TO.N,unconnected-(XA1-PadD12)*%
X60325000Y-27940000D03*
%TO.P,XA1,D13,D13*%
%TO.N,unconnected-(XA1-PadD13)*%
X57785000Y-27940000D03*
%TO.P,XA1,GND1,GND*%
%TO.N,GND*%
X55245000Y-27940000D03*
%TO.P,XA1,GND2,GND*%
X69469000Y-76200000D03*
%TO.P,XA1,GND3,GND*%
X72009000Y-76200000D03*
%TO.P,XA1,GND4,SPI_GND*%
%TO.N,unconnected-(XA1-PadGND4)*%
X94996000Y-53340000D03*
%TO.P,XA1,IORF,IOREF*%
%TO.N,unconnected-(XA1-PadIORF)*%
X59309000Y-76200000D03*
%TO.P,XA1,MISO,SPI_MISO*%
%TO.N,unconnected-(XA1-PadMISO)*%
X92456000Y-48260000D03*
%TO.P,XA1,MOSI,SPI_MOSI*%
%TO.N,unconnected-(XA1-PadMOSI)*%
X94996000Y-50800000D03*
%TO.P,XA1,RST1,RESET*%
%TO.N,unconnected-(XA1-PadRST1)*%
X61849000Y-76200000D03*
%TO.P,XA1,RST2,SPI_RESET*%
%TO.N,unconnected-(XA1-PadRST2)*%
X92456000Y-53340000D03*
%TO.P,XA1,SCK,SPI_SCK*%
%TO.N,unconnected-(XA1-PadSCK)*%
X92456000Y-50800000D03*
%TO.P,XA1,SCL,SCL*%
%TO.N,unconnected-(XA1-PadSCL)*%
X47625000Y-27940000D03*
%TO.P,XA1,SDA,SDA*%
%TO.N,unconnected-(XA1-PadSDA)*%
X50165000Y-27940000D03*
%TO.P,XA1,VIN,VIN*%
%TO.N,unconnected-(XA1-PadVIN)*%
X74549000Y-76200000D03*
%TD*%
D13*
%TO.P,J1,1a,Pin_1a*%
%TO.N,unconnected-(J1-Pad1a)*%
X34510000Y-57658000D03*
%TO.P,J1,1b,Pin_1b*%
%TO.N,+5V*%
X34510000Y-62738000D03*
%TO.P,J1,2a,Pin_2a*%
%TO.N,D0*%
X38470000Y-57658000D03*
%TO.P,J1,2b,Pin_2b*%
%TO.N,D1*%
X38470000Y-62738000D03*
%TO.P,J1,3a,Pin_3a*%
%TO.N,D2*%
X42430000Y-57658000D03*
%TO.P,J1,3b,Pin_3b*%
%TO.N,D3*%
X42430000Y-62738000D03*
%TO.P,J1,4a,Pin_4a*%
%TO.N,D4*%
X46390000Y-57658000D03*
%TO.P,J1,4b,Pin_4b*%
%TO.N,D5*%
X46390000Y-62738000D03*
%TO.P,J1,5a,Pin_5a*%
%TO.N,D6*%
X50350000Y-57658000D03*
%TO.P,J1,5b,Pin_5b*%
%TO.N,D7*%
X50350000Y-62738000D03*
%TO.P,J1,6a,Pin_6a*%
%TO.N,A0*%
X54310000Y-57658000D03*
%TO.P,J1,6b,Pin_6b*%
%TO.N,A1*%
X54310000Y-62738000D03*
%TO.P,J1,7a,Pin_7a*%
%TO.N,A2*%
X58270000Y-57658000D03*
%TO.P,J1,7b,Pin_7b*%
%TO.N,A3*%
X58270000Y-62738000D03*
%TO.P,J1,8a,Pin_8a*%
%TO.N,A4*%
X62230000Y-57658000D03*
%TO.P,J1,8b,Pin_8b*%
%TO.N,A5*%
X62230000Y-62738000D03*
%TO.P,J1,9a,Pin_9a*%
%TO.N,A6*%
X66190000Y-57658000D03*
%TO.P,J1,9b,Pin_9b*%
%TO.N,A7*%
X66190000Y-62738000D03*
%TO.P,J1,10a,Pin_10a*%
%TO.N,A8*%
X70150000Y-57658000D03*
%TO.P,J1,10b,Pin_10b*%
%TO.N,A9*%
X70150000Y-62738000D03*
%TO.P,J1,11a,Pin_11a*%
%TO.N,A10*%
X74110000Y-57658000D03*
%TO.P,J1,11b,Pin_11b*%
%TO.N,A11*%
X74110000Y-62738000D03*
%TO.P,J1,12a,Pin_12a*%
%TO.N,A12*%
X78070000Y-57658000D03*
%TO.P,J1,12b,Pin_12b*%
%TO.N,CARSEL2*%
X78070000Y-62738000D03*
%TO.P,J1,13a,Pin_13a*%
%TO.N,CARSEL1*%
X82030000Y-57658000D03*
%TO.P,J1,13b,Pin_13b*%
%TO.N,unconnected-(J1-Pad13b)*%
X82030000Y-62738000D03*
%TO.P,J1,14a,Pin_14a*%
%TO.N,unconnected-(J1-Pad14a)*%
X85990000Y-57658000D03*
%TO.P,J1,14b,Pin_14b*%
%TO.N,unconnected-(J1-Pad14b)*%
X85990000Y-62738000D03*
%TO.P,J1,15a,Pin_15a*%
%TO.N,GND*%
X89950000Y-57658000D03*
%TO.P,J1,15b,Pin_15b*%
X89950000Y-62738000D03*
%TD*%
D14*
%TO.N,+5V*%
X64922800Y-75011100D02*
X60374700Y-75011100D01*
X66929000Y-76200000D02*
X65740100Y-76200000D01*
X48370100Y-63006500D02*
X48370100Y-62430300D01*
X60374700Y-75011100D02*
X48370100Y-63006500D01*
X55880000Y-36576000D02*
X55880000Y-37701300D01*
X43165500Y-60655600D02*
X40450100Y-57940200D01*
X35652300Y-62738000D02*
X34510000Y-62738000D01*
X40450100Y-57940200D02*
X35652300Y-62738000D01*
X46595400Y-60655600D02*
X43165500Y-60655600D01*
X65740100Y-76200000D02*
X65740100Y-75828400D01*
X40450100Y-53131200D02*
X40450100Y-57940200D01*
X55880000Y-37701300D02*
X40450100Y-53131200D01*
X48370100Y-62430300D02*
X46595400Y-60655600D01*
X65740100Y-75828400D02*
X64922800Y-75011100D01*
%TO.N,GND*%
X73197900Y-76200000D02*
X73197900Y-75828400D01*
X72009000Y-76200000D02*
X73197900Y-76200000D01*
X56433900Y-27940000D02*
X56433900Y-27568400D01*
X74015200Y-75011100D02*
X77676900Y-75011100D01*
X65898200Y-26751100D02*
X66675000Y-27527900D01*
X66675000Y-27527900D02*
X66675000Y-32501000D01*
X89950000Y-57658000D02*
X89950000Y-62738000D01*
X77676900Y-75011100D02*
X89950000Y-62738000D01*
X69850000Y-38336100D02*
X73660000Y-42146100D01*
X66675000Y-32501000D02*
X69850000Y-35676000D01*
X56433900Y-27568400D02*
X57251200Y-26751100D01*
X57251200Y-26751100D02*
X65898200Y-26751100D01*
X73197900Y-75828400D02*
X74015200Y-75011100D01*
X69850000Y-35676000D02*
X69850000Y-38336100D01*
X73660000Y-42146100D02*
X73660000Y-44196000D01*
X55245000Y-27940000D02*
X56433900Y-27940000D01*
%TO.N,A10*%
X66538700Y-35450700D02*
X67310000Y-36222000D01*
X60389200Y-35450700D02*
X66538700Y-35450700D01*
X58420000Y-36576000D02*
X59545300Y-36576000D01*
X72390000Y-43137700D02*
X72390000Y-55938000D01*
X59545300Y-36576000D02*
X59545300Y-36294600D01*
X67310000Y-36222000D02*
X67310000Y-38057700D01*
X67310000Y-38057700D02*
X72390000Y-43137700D01*
X72390000Y-55938000D02*
X74110000Y-57658000D01*
X59545300Y-36294600D02*
X60389200Y-35450700D01*
%TO.N,A9*%
X64210000Y-63013300D02*
X65528500Y-64331800D01*
X60960000Y-36576000D02*
X60960000Y-37701300D01*
X62085300Y-38826600D02*
X62085300Y-54512400D01*
X64210000Y-56637100D02*
X64210000Y-63013300D01*
X65528500Y-64331800D02*
X68556200Y-64331800D01*
X60960000Y-37701300D02*
X62085300Y-38826600D01*
X68556200Y-64331800D02*
X70150000Y-62738000D01*
X62085300Y-54512400D02*
X64210000Y-56637100D01*
%TO.N,A7*%
X67778200Y-56710300D02*
X67778200Y-61149800D01*
X63500000Y-37701300D02*
X64625300Y-38826600D01*
X63500000Y-36576000D02*
X63500000Y-37701300D01*
X67778200Y-61149800D02*
X66190000Y-62738000D01*
X64625300Y-53557400D02*
X67778200Y-56710300D01*
X64625300Y-38826600D02*
X64625300Y-53557400D01*
%TO.N,A3*%
X60317600Y-64785600D02*
X58270000Y-62738000D01*
X71731400Y-63396600D02*
X70342400Y-64785600D01*
X70342400Y-64785600D02*
X60317600Y-64785600D01*
X68242300Y-56387200D02*
X68242300Y-57978900D01*
X68242300Y-57978900D02*
X71731400Y-61468000D01*
X66040000Y-54184900D02*
X68242300Y-56387200D01*
X71731400Y-61468000D02*
X71731400Y-63396600D01*
X66040000Y-44196000D02*
X66040000Y-54184900D01*
%TO.N,A8*%
X67165300Y-38826600D02*
X66040000Y-37701300D01*
X67165300Y-54673300D02*
X67165300Y-38826600D01*
X66040000Y-36576000D02*
X66040000Y-37701300D01*
X70150000Y-57658000D02*
X67165300Y-54673300D01*
%TO.N,A6*%
X63500000Y-44196000D02*
X63500000Y-54968000D01*
X63500000Y-54968000D02*
X66190000Y-57658000D01*
%TO.N,CRES*%
X68580000Y-36576000D02*
X68580000Y-35450700D01*
X65405000Y-32275700D02*
X65405000Y-27940000D01*
X68580000Y-35450700D02*
X65405000Y-32275700D01*
%TO.N,A4*%
X60960000Y-56388000D02*
X62230000Y-57658000D01*
X60960000Y-44196000D02*
X60960000Y-56388000D01*
%TO.N,CCLK*%
X71120000Y-32303900D02*
X71120000Y-36576000D01*
X67945000Y-29128900D02*
X71120000Y-32303900D01*
X67945000Y-27940000D02*
X67945000Y-29128900D01*
%TO.N,A5*%
X58420000Y-45321300D02*
X60250000Y-47151300D01*
X58420000Y-44196000D02*
X58420000Y-45321300D01*
X60250000Y-60758000D02*
X62230000Y-62738000D01*
X60250000Y-47151300D02*
X60250000Y-60758000D01*
%TO.N,A11*%
X58518000Y-65235900D02*
X71612100Y-65235900D01*
X55880000Y-44196000D02*
X55880000Y-45321300D01*
X71612100Y-65235900D02*
X74110000Y-62738000D01*
X56290100Y-63008000D02*
X58518000Y-65235900D01*
X55880000Y-45321300D02*
X56290100Y-45731400D01*
X56290100Y-45731400D02*
X56290100Y-63008000D01*
%TO.N,D2*%
X49767300Y-59878600D02*
X44650600Y-59878600D01*
X71476400Y-77401500D02*
X70739000Y-76664100D01*
X62767300Y-67762500D02*
X57079000Y-67762500D01*
X82690100Y-77401500D02*
X71476400Y-77401500D01*
X52330100Y-63013600D02*
X52330100Y-62441400D01*
X44650600Y-59878600D02*
X42430000Y-57658000D01*
X84709000Y-76200000D02*
X83520100Y-76200000D01*
X70739000Y-75734200D02*
X62767300Y-67762500D01*
X70739000Y-76664100D02*
X70739000Y-75734200D01*
X57079000Y-67762500D02*
X52330100Y-63013600D01*
X52330100Y-62441400D02*
X49767300Y-59878600D01*
X83520100Y-76571500D02*
X82690100Y-77401500D01*
X83520100Y-76200000D02*
X83520100Y-76571500D01*
%TO.N,A12*%
X78070000Y-36713900D02*
X78070000Y-57658000D01*
X70485000Y-29128900D02*
X78070000Y-36713900D01*
X70485000Y-27940000D02*
X70485000Y-29128900D01*
%TO.N,CARSEL2*%
X82181000Y-54979000D02*
X79883000Y-57277000D01*
X84709000Y-27940000D02*
X84709000Y-54979000D01*
X84709000Y-54979000D02*
X82181000Y-54979000D01*
X79883000Y-60925000D02*
X78070000Y-62738000D01*
X79883000Y-57277000D02*
X79883000Y-60925000D01*
X79205000Y-62738000D02*
X78070000Y-62738000D01*
%TO.N,CARSEL1*%
X84963000Y-55626000D02*
X84062000Y-55626000D01*
X87249000Y-53698800D02*
X86890200Y-53698800D01*
X86890200Y-53698800D02*
X84963000Y-55626000D01*
X87249000Y-27940000D02*
X87249000Y-53698800D01*
X84062000Y-55626000D02*
X82030000Y-57658000D01*
%TD*%
%TA.AperFunction,Conductor*%
%TO.N,GND*%
G36*
X42962264Y-25928502D02*
G01*
X43008757Y-25982158D01*
X43018861Y-26052432D01*
X42989367Y-26117012D01*
X42966594Y-26137587D01*
X42738977Y-26297559D01*
X42528378Y-26493260D01*
X42346287Y-26715732D01*
X42196073Y-26960858D01*
X42194347Y-26964791D01*
X42194346Y-26964792D01*
X42085619Y-27212479D01*
X42080517Y-27224102D01*
X42001756Y-27500594D01*
X41961249Y-27785216D01*
X41961227Y-27789505D01*
X41961226Y-27789512D01*
X41960068Y-28010578D01*
X41959743Y-28072703D01*
X41997268Y-28357734D01*
X42073129Y-28635036D01*
X42074813Y-28638984D01*
X42125049Y-28756759D01*
X42185923Y-28899476D01*
X42238871Y-28987945D01*
X42320835Y-29124897D01*
X42333561Y-29146161D01*
X42513313Y-29370528D01*
X42575084Y-29429146D01*
X42702034Y-29549617D01*
X42721851Y-29568423D01*
X42955317Y-29736186D01*
X42959112Y-29738195D01*
X42959113Y-29738196D01*
X42980869Y-29749715D01*
X43209392Y-29870712D01*
X43479373Y-29969511D01*
X43760264Y-30030755D01*
X43788841Y-30033004D01*
X43983282Y-30048307D01*
X43983291Y-30048307D01*
X43985739Y-30048500D01*
X44141271Y-30048500D01*
X44143407Y-30048354D01*
X44143418Y-30048354D01*
X44351548Y-30034165D01*
X44351554Y-30034164D01*
X44355825Y-30033873D01*
X44360020Y-30033004D01*
X44360022Y-30033004D01*
X44496583Y-30004724D01*
X44637342Y-29975574D01*
X44908343Y-29879607D01*
X45163812Y-29747750D01*
X45167313Y-29745289D01*
X45167317Y-29745287D01*
X45281418Y-29665095D01*
X45399023Y-29582441D01*
X45477403Y-29509606D01*
X45606479Y-29389661D01*
X45606481Y-29389658D01*
X45609622Y-29386740D01*
X45791713Y-29164268D01*
X45937118Y-28926989D01*
X45939686Y-28922799D01*
X45941927Y-28919142D01*
X45980034Y-28832333D01*
X46055757Y-28659830D01*
X46057483Y-28655898D01*
X46060070Y-28646816D01*
X46112762Y-28461841D01*
X46150661Y-28401806D01*
X46215001Y-28371792D01*
X46285354Y-28381327D01*
X46339384Y-28427384D01*
X46350682Y-28448951D01*
X46396086Y-28560769D01*
X46513975Y-28753147D01*
X46661702Y-28923687D01*
X46835299Y-29067810D01*
X46839751Y-29070412D01*
X46839756Y-29070415D01*
X46975107Y-29149508D01*
X47030103Y-29181645D01*
X47240884Y-29262134D01*
X47245952Y-29263165D01*
X47245955Y-29263166D01*
X47294021Y-29272945D01*
X47461981Y-29307117D01*
X47467156Y-29307307D01*
X47467158Y-29307307D01*
X47682292Y-29315196D01*
X47682296Y-29315196D01*
X47687456Y-29315385D01*
X47692576Y-29314729D01*
X47692578Y-29314729D01*
X47761985Y-29305838D01*
X47911253Y-29286716D01*
X47916202Y-29285231D01*
X47916208Y-29285230D01*
X48122413Y-29223365D01*
X48122412Y-29223365D01*
X48127363Y-29221880D01*
X48244964Y-29164268D01*
X48325331Y-29124897D01*
X48325336Y-29124894D01*
X48329982Y-29122618D01*
X48334192Y-29119615D01*
X48334197Y-29119612D01*
X48509455Y-28994601D01*
X48509459Y-28994597D01*
X48513667Y-28991596D01*
X48673487Y-28832333D01*
X48794370Y-28664107D01*
X48850364Y-28620459D01*
X48921068Y-28614013D01*
X48984032Y-28646816D01*
X49004125Y-28671799D01*
X49051275Y-28748743D01*
X49051279Y-28748748D01*
X49053975Y-28753147D01*
X49201702Y-28923687D01*
X49375299Y-29067810D01*
X49379751Y-29070412D01*
X49379756Y-29070415D01*
X49515107Y-29149508D01*
X49570103Y-29181645D01*
X49780884Y-29262134D01*
X49785952Y-29263165D01*
X49785955Y-29263166D01*
X49834021Y-29272945D01*
X50001981Y-29307117D01*
X50007156Y-29307307D01*
X50007158Y-29307307D01*
X50222292Y-29315196D01*
X50222296Y-29315196D01*
X50227456Y-29315385D01*
X50232576Y-29314729D01*
X50232578Y-29314729D01*
X50301985Y-29305838D01*
X50451253Y-29286716D01*
X50456202Y-29285231D01*
X50456208Y-29285230D01*
X50662413Y-29223365D01*
X50662412Y-29223365D01*
X50667363Y-29221880D01*
X50784964Y-29164268D01*
X50865331Y-29124897D01*
X50865336Y-29124894D01*
X50869982Y-29122618D01*
X50874192Y-29119615D01*
X50874197Y-29119612D01*
X51049455Y-28994601D01*
X51049459Y-28994597D01*
X51053667Y-28991596D01*
X51213487Y-28832333D01*
X51334370Y-28664107D01*
X51390364Y-28620459D01*
X51461068Y-28614013D01*
X51524032Y-28646816D01*
X51544125Y-28671799D01*
X51591275Y-28748743D01*
X51591279Y-28748748D01*
X51593975Y-28753147D01*
X51741702Y-28923687D01*
X51915299Y-29067810D01*
X51919751Y-29070412D01*
X51919756Y-29070415D01*
X52055107Y-29149508D01*
X52110103Y-29181645D01*
X52320884Y-29262134D01*
X52325952Y-29263165D01*
X52325955Y-29263166D01*
X52374021Y-29272945D01*
X52541981Y-29307117D01*
X52547156Y-29307307D01*
X52547158Y-29307307D01*
X52762292Y-29315196D01*
X52762296Y-29315196D01*
X52767456Y-29315385D01*
X52772576Y-29314729D01*
X52772578Y-29314729D01*
X52841985Y-29305838D01*
X52991253Y-29286716D01*
X52996202Y-29285231D01*
X52996208Y-29285230D01*
X53202413Y-29223365D01*
X53202412Y-29223365D01*
X53207363Y-29221880D01*
X53324964Y-29164268D01*
X53405331Y-29124897D01*
X53405336Y-29124894D01*
X53409982Y-29122618D01*
X53414192Y-29119615D01*
X53414197Y-29119612D01*
X53589455Y-28994601D01*
X53589459Y-28994597D01*
X53593667Y-28991596D01*
X53753487Y-28832333D01*
X53874686Y-28663667D01*
X53930680Y-28620019D01*
X54001384Y-28613573D01*
X54064348Y-28646376D01*
X54084441Y-28671358D01*
X54131682Y-28748448D01*
X54137765Y-28756759D01*
X54278665Y-28919417D01*
X54286032Y-28926633D01*
X54451606Y-29064095D01*
X54460053Y-29070010D01*
X54645859Y-29178586D01*
X54655146Y-29183036D01*
X54856198Y-29259810D01*
X54866091Y-29262684D01*
X54973248Y-29284485D01*
X54987300Y-29283290D01*
X54991000Y-29272945D01*
X54991000Y-26609343D01*
X54987082Y-26595999D01*
X54972806Y-26594012D01*
X54931161Y-26600385D01*
X54921125Y-26602776D01*
X54716576Y-26669633D01*
X54707079Y-26673625D01*
X54516189Y-26772995D01*
X54507464Y-26778490D01*
X54335373Y-26907700D01*
X54327666Y-26914543D01*
X54178984Y-27070129D01*
X54172498Y-27078139D01*
X54078798Y-27215498D01*
X54023887Y-27260501D01*
X53953362Y-27268672D01*
X53889615Y-27237418D01*
X53868918Y-27212934D01*
X53798634Y-27104291D01*
X53798632Y-27104288D01*
X53795826Y-27099951D01*
X53643977Y-26933071D01*
X53639926Y-26929872D01*
X53639922Y-26929868D01*
X53470966Y-26796434D01*
X53470962Y-26796432D01*
X53466911Y-26793232D01*
X53442603Y-26779813D01*
X53353257Y-26730492D01*
X53269383Y-26684191D01*
X53056698Y-26608876D01*
X53027795Y-26603727D01*
X52839657Y-26570214D01*
X52839653Y-26570214D01*
X52834569Y-26569308D01*
X52762574Y-26568429D01*
X52614129Y-26566615D01*
X52614127Y-26566615D01*
X52608959Y-26566552D01*
X52385929Y-26600680D01*
X52171468Y-26670777D01*
X51971335Y-26774960D01*
X51967202Y-26778063D01*
X51967199Y-26778065D01*
X51821462Y-26887487D01*
X51790905Y-26910430D01*
X51635024Y-27073550D01*
X51632112Y-27077819D01*
X51632106Y-27077827D01*
X51538503Y-27215043D01*
X51483592Y-27260046D01*
X51413067Y-27268217D01*
X51349320Y-27236963D01*
X51328623Y-27212479D01*
X51312023Y-27186818D01*
X51278260Y-27134628D01*
X51258634Y-27104291D01*
X51258632Y-27104288D01*
X51255826Y-27099951D01*
X51103977Y-26933071D01*
X51099926Y-26929872D01*
X51099922Y-26929868D01*
X50930966Y-26796434D01*
X50930962Y-26796432D01*
X50926911Y-26793232D01*
X50902603Y-26779813D01*
X50813257Y-26730492D01*
X50729383Y-26684191D01*
X50516698Y-26608876D01*
X50487795Y-26603727D01*
X50299657Y-26570214D01*
X50299653Y-26570214D01*
X50294569Y-26569308D01*
X50222574Y-26568429D01*
X50074129Y-26566615D01*
X50074127Y-26566615D01*
X50068959Y-26566552D01*
X49845929Y-26600680D01*
X49631468Y-26670777D01*
X49431335Y-26774960D01*
X49427202Y-26778063D01*
X49427199Y-26778065D01*
X49281462Y-26887487D01*
X49250905Y-26910430D01*
X49095024Y-27073550D01*
X49092112Y-27077819D01*
X49092106Y-27077827D01*
X48998503Y-27215043D01*
X48943592Y-27260046D01*
X48873067Y-27268217D01*
X48809320Y-27236963D01*
X48788623Y-27212479D01*
X48772023Y-27186818D01*
X48738260Y-27134628D01*
X48718634Y-27104291D01*
X48718632Y-27104288D01*
X48715826Y-27099951D01*
X48563977Y-26933071D01*
X48559926Y-26929872D01*
X48559922Y-26929868D01*
X48390966Y-26796434D01*
X48390962Y-26796432D01*
X48386911Y-26793232D01*
X48362603Y-26779813D01*
X48273257Y-26730492D01*
X48189383Y-26684191D01*
X47976698Y-26608876D01*
X47947795Y-26603727D01*
X47759657Y-26570214D01*
X47759653Y-26570214D01*
X47754569Y-26569308D01*
X47682574Y-26568429D01*
X47534129Y-26566615D01*
X47534127Y-26566615D01*
X47528959Y-26566552D01*
X47305929Y-26600680D01*
X47091468Y-26670777D01*
X46891335Y-26774960D01*
X46887202Y-26778063D01*
X46887199Y-26778065D01*
X46741462Y-26887487D01*
X46710905Y-26910430D01*
X46555024Y-27073550D01*
X46427878Y-27259940D01*
X46425704Y-27264624D01*
X46425702Y-27264627D01*
X46347023Y-27434126D01*
X46300199Y-27487493D01*
X46231956Y-27507073D01*
X46163960Y-27486649D01*
X46117801Y-27432707D01*
X46111202Y-27414323D01*
X46075835Y-27285043D01*
X46064871Y-27244964D01*
X46051015Y-27212479D01*
X45953763Y-26984476D01*
X45953761Y-26984472D01*
X45952077Y-26980524D01*
X45842153Y-26796855D01*
X45806643Y-26737521D01*
X45806640Y-26737517D01*
X45804439Y-26733839D01*
X45624687Y-26509472D01*
X45416149Y-26311577D01*
X45182683Y-26143814D01*
X45178881Y-26141801D01*
X45178536Y-26141587D01*
X45131181Y-26088691D01*
X45119941Y-26018589D01*
X45148385Y-25953540D01*
X45207482Y-25914194D01*
X45244932Y-25908500D01*
X93082183Y-25908500D01*
X93150304Y-25928502D01*
X93171278Y-25945405D01*
X94323595Y-27097723D01*
X94357621Y-27160035D01*
X94360500Y-27186818D01*
X94360500Y-38028928D01*
X94359145Y-38041058D01*
X94359627Y-38041097D01*
X94358907Y-38050044D01*
X94356926Y-38058800D01*
X94358032Y-38076621D01*
X94360258Y-38112508D01*
X94360500Y-38120310D01*
X94360500Y-38136513D01*
X94361522Y-38143649D01*
X94361984Y-38146878D01*
X94363013Y-38156928D01*
X94365945Y-38204177D01*
X94368994Y-38212623D01*
X94369593Y-38215514D01*
X94373822Y-38232480D01*
X94374648Y-38235305D01*
X94375920Y-38244187D01*
X94395522Y-38287298D01*
X94399327Y-38296647D01*
X94415404Y-38341181D01*
X94420699Y-38348429D01*
X94422080Y-38351027D01*
X94430915Y-38366145D01*
X94432494Y-38368614D01*
X94436208Y-38376782D01*
X94452686Y-38395906D01*
X94467115Y-38412652D01*
X94473401Y-38420569D01*
X94478548Y-38427615D01*
X94478553Y-38427620D01*
X94481425Y-38431552D01*
X94492400Y-38442527D01*
X94498758Y-38449374D01*
X94531287Y-38487127D01*
X94538822Y-38492011D01*
X94545066Y-38497458D01*
X94556931Y-38507058D01*
X96863595Y-40813723D01*
X96897621Y-40876035D01*
X96900500Y-40902818D01*
X96900500Y-42012636D01*
X96880498Y-42080757D01*
X96826842Y-42127250D01*
X96756568Y-42137354D01*
X96691988Y-42107860D01*
X96666384Y-42077342D01*
X96606643Y-41977521D01*
X96606640Y-41977517D01*
X96604439Y-41973839D01*
X96424687Y-41749472D01*
X96216149Y-41551577D01*
X95982683Y-41383814D01*
X95960843Y-41372250D01*
X95937654Y-41359972D01*
X95728608Y-41249288D01*
X95458627Y-41150489D01*
X95177736Y-41089245D01*
X95146685Y-41086801D01*
X94954718Y-41071693D01*
X94954709Y-41071693D01*
X94952261Y-41071500D01*
X94796729Y-41071500D01*
X94794593Y-41071646D01*
X94794582Y-41071646D01*
X94586452Y-41085835D01*
X94586446Y-41085836D01*
X94582175Y-41086127D01*
X94577980Y-41086996D01*
X94577978Y-41086996D01*
X94441417Y-41115276D01*
X94300658Y-41144426D01*
X94029657Y-41240393D01*
X93774188Y-41372250D01*
X93770687Y-41374711D01*
X93770683Y-41374713D01*
X93760594Y-41381804D01*
X93538977Y-41537559D01*
X93328378Y-41733260D01*
X93146287Y-41955732D01*
X92996073Y-42200858D01*
X92880517Y-42464102D01*
X92801756Y-42740594D01*
X92761249Y-43025216D01*
X92761227Y-43029505D01*
X92761226Y-43029512D01*
X92759843Y-43293534D01*
X92759743Y-43312703D01*
X92760302Y-43316947D01*
X92760302Y-43316951D01*
X92771166Y-43399471D01*
X92797268Y-43597734D01*
X92798401Y-43601874D01*
X92798401Y-43601876D01*
X92811895Y-43651203D01*
X92873129Y-43875036D01*
X92985923Y-44139476D01*
X92988130Y-44143163D01*
X93110206Y-44347137D01*
X93133561Y-44386161D01*
X93313313Y-44610528D01*
X93349895Y-44645243D01*
X93471096Y-44760258D01*
X93521851Y-44808423D01*
X93755317Y-44976186D01*
X93759112Y-44978195D01*
X93759113Y-44978196D01*
X93780533Y-44989537D01*
X94009392Y-45110712D01*
X94033699Y-45119607D01*
X94268022Y-45205357D01*
X94279373Y-45209511D01*
X94560264Y-45270755D01*
X94588841Y-45273004D01*
X94783282Y-45288307D01*
X94783291Y-45288307D01*
X94785739Y-45288500D01*
X94941271Y-45288500D01*
X94943407Y-45288354D01*
X94943418Y-45288354D01*
X95151548Y-45274165D01*
X95151554Y-45274164D01*
X95155825Y-45273873D01*
X95160020Y-45273004D01*
X95160022Y-45273004D01*
X95296584Y-45244723D01*
X95437342Y-45215574D01*
X95708343Y-45119607D01*
X95854570Y-45044134D01*
X95960005Y-44989715D01*
X95960006Y-44989715D01*
X95963812Y-44987750D01*
X95967313Y-44985289D01*
X95967317Y-44985287D01*
X96149485Y-44857257D01*
X96199023Y-44822441D01*
X96383286Y-44651213D01*
X96406479Y-44629661D01*
X96406481Y-44629658D01*
X96409622Y-44626740D01*
X96591713Y-44404268D01*
X96667067Y-44281302D01*
X96719715Y-44233671D01*
X96789757Y-44222064D01*
X96854954Y-44250167D01*
X96894608Y-44309058D01*
X96900500Y-44347137D01*
X96900500Y-69952636D01*
X96880498Y-70020757D01*
X96826842Y-70067250D01*
X96756568Y-70077354D01*
X96691988Y-70047860D01*
X96666384Y-70017342D01*
X96606643Y-69917521D01*
X96606640Y-69917517D01*
X96604439Y-69913839D01*
X96424687Y-69689472D01*
X96216149Y-69491577D01*
X95982683Y-69323814D01*
X95960843Y-69312250D01*
X95937654Y-69299972D01*
X95728608Y-69189288D01*
X95458627Y-69090489D01*
X95177736Y-69029245D01*
X95146685Y-69026801D01*
X94954718Y-69011693D01*
X94954709Y-69011693D01*
X94952261Y-69011500D01*
X94796729Y-69011500D01*
X94794593Y-69011646D01*
X94794582Y-69011646D01*
X94586452Y-69025835D01*
X94586446Y-69025836D01*
X94582175Y-69026127D01*
X94577980Y-69026996D01*
X94577978Y-69026996D01*
X94441417Y-69055276D01*
X94300658Y-69084426D01*
X94029657Y-69180393D01*
X93774188Y-69312250D01*
X93770687Y-69314711D01*
X93770683Y-69314713D01*
X93760594Y-69321804D01*
X93538977Y-69477559D01*
X93328378Y-69673260D01*
X93146287Y-69895732D01*
X92996073Y-70140858D01*
X92880517Y-70404102D01*
X92801756Y-70680594D01*
X92761249Y-70965216D01*
X92759743Y-71252703D01*
X92797268Y-71537734D01*
X92873129Y-71815036D01*
X92985923Y-72079476D01*
X92988130Y-72083163D01*
X93110206Y-72287137D01*
X93133561Y-72326161D01*
X93313313Y-72550528D01*
X93521851Y-72748423D01*
X93755317Y-72916186D01*
X93759112Y-72918195D01*
X93759113Y-72918196D01*
X93780869Y-72929715D01*
X94009392Y-73050712D01*
X94279373Y-73149511D01*
X94560264Y-73210755D01*
X94588841Y-73213004D01*
X94783282Y-73228307D01*
X94783291Y-73228307D01*
X94785739Y-73228500D01*
X94941271Y-73228500D01*
X94943407Y-73228354D01*
X94943418Y-73228354D01*
X95151548Y-73214165D01*
X95151554Y-73214164D01*
X95155825Y-73213873D01*
X95160020Y-73213004D01*
X95160022Y-73213004D01*
X95296584Y-73184723D01*
X95437342Y-73155574D01*
X95708343Y-73059607D01*
X95963812Y-72927750D01*
X95967313Y-72925289D01*
X95967317Y-72925287D01*
X96081418Y-72845095D01*
X96199023Y-72762441D01*
X96409622Y-72566740D01*
X96591713Y-72344268D01*
X96667067Y-72221302D01*
X96719715Y-72173671D01*
X96789757Y-72162064D01*
X96854954Y-72190167D01*
X96894608Y-72249058D01*
X96900500Y-72287137D01*
X96900500Y-74667182D01*
X96880498Y-74735303D01*
X96863595Y-74756277D01*
X94559696Y-77060177D01*
X94550156Y-77067800D01*
X94550470Y-77068168D01*
X94543634Y-77073986D01*
X94536042Y-77078776D01*
X94530100Y-77085504D01*
X94500407Y-77119125D01*
X94495061Y-77124812D01*
X94483618Y-77136255D01*
X94477978Y-77143780D01*
X94477341Y-77144630D01*
X94470967Y-77152459D01*
X94439622Y-77187951D01*
X94435808Y-77196074D01*
X94434174Y-77198562D01*
X94425186Y-77213523D01*
X94423771Y-77216108D01*
X94418384Y-77223295D01*
X94406648Y-77254601D01*
X94401759Y-77267642D01*
X94397833Y-77276958D01*
X94377719Y-77319800D01*
X94376338Y-77328669D01*
X94375472Y-77331502D01*
X94371042Y-77348389D01*
X94370408Y-77351274D01*
X94367255Y-77359684D01*
X94366590Y-77368639D01*
X94363746Y-77406906D01*
X94362592Y-77416952D01*
X94360500Y-77430386D01*
X94360500Y-77445906D01*
X94360154Y-77455243D01*
X94356461Y-77504941D01*
X94358335Y-77513720D01*
X94358898Y-77521978D01*
X94360500Y-77537161D01*
X94360500Y-78105500D01*
X94340498Y-78173621D01*
X94286842Y-78220114D01*
X94234500Y-78231500D01*
X82985812Y-78231500D01*
X82917691Y-78211498D01*
X82871198Y-78157842D01*
X82861094Y-78087568D01*
X82890588Y-78022988D01*
X82935773Y-77989862D01*
X82936076Y-77989731D01*
X82943693Y-77987518D01*
X82961128Y-77977207D01*
X82978876Y-77968512D01*
X82997717Y-77961052D01*
X83033487Y-77935064D01*
X83043407Y-77928548D01*
X83074635Y-77910080D01*
X83074638Y-77910078D01*
X83081462Y-77906042D01*
X83095783Y-77891721D01*
X83110817Y-77878880D01*
X83120794Y-77871631D01*
X83127207Y-77866972D01*
X83155398Y-77832895D01*
X83163388Y-77824116D01*
X83696242Y-77291262D01*
X83758554Y-77257236D01*
X83829369Y-77262301D01*
X83865821Y-77283412D01*
X83919299Y-77327810D01*
X83923751Y-77330412D01*
X83923756Y-77330415D01*
X84103168Y-77435255D01*
X84114103Y-77441645D01*
X84324884Y-77522134D01*
X84329952Y-77523165D01*
X84329955Y-77523166D01*
X84428868Y-77543290D01*
X84545981Y-77567117D01*
X84551156Y-77567307D01*
X84551158Y-77567307D01*
X84766292Y-77575196D01*
X84766296Y-77575196D01*
X84771456Y-77575385D01*
X84776576Y-77574729D01*
X84776578Y-77574729D01*
X84845985Y-77565838D01*
X84995253Y-77546716D01*
X85000202Y-77545231D01*
X85000208Y-77545230D01*
X85206413Y-77483365D01*
X85206412Y-77483365D01*
X85211363Y-77481880D01*
X85328964Y-77424268D01*
X85409331Y-77384897D01*
X85409336Y-77384894D01*
X85413982Y-77382618D01*
X85418192Y-77379615D01*
X85418197Y-77379612D01*
X85593455Y-77254601D01*
X85593459Y-77254597D01*
X85597667Y-77251596D01*
X85757487Y-77092333D01*
X85844159Y-76971717D01*
X85878370Y-76924107D01*
X85934364Y-76880459D01*
X86005068Y-76874013D01*
X86068032Y-76906816D01*
X86088125Y-76931799D01*
X86135275Y-77008743D01*
X86135279Y-77008748D01*
X86137975Y-77013147D01*
X86285702Y-77183687D01*
X86459299Y-77327810D01*
X86463751Y-77330412D01*
X86463756Y-77330415D01*
X86643168Y-77435255D01*
X86654103Y-77441645D01*
X86864884Y-77522134D01*
X86869952Y-77523165D01*
X86869955Y-77523166D01*
X86968868Y-77543290D01*
X87085981Y-77567117D01*
X87091156Y-77567307D01*
X87091158Y-77567307D01*
X87306292Y-77575196D01*
X87306296Y-77575196D01*
X87311456Y-77575385D01*
X87316576Y-77574729D01*
X87316578Y-77574729D01*
X87385985Y-77565838D01*
X87535253Y-77546716D01*
X87540202Y-77545231D01*
X87540208Y-77545230D01*
X87746413Y-77483365D01*
X87746412Y-77483365D01*
X87751363Y-77481880D01*
X87868964Y-77424268D01*
X87949331Y-77384897D01*
X87949336Y-77384894D01*
X87953982Y-77382618D01*
X87958192Y-77379615D01*
X87958197Y-77379612D01*
X88133455Y-77254601D01*
X88133459Y-77254597D01*
X88137667Y-77251596D01*
X88297487Y-77092333D01*
X88384159Y-76971717D01*
X88418370Y-76924107D01*
X88474364Y-76880459D01*
X88545068Y-76874013D01*
X88608032Y-76906816D01*
X88628125Y-76931799D01*
X88675275Y-77008743D01*
X88675279Y-77008748D01*
X88677975Y-77013147D01*
X88825702Y-77183687D01*
X88999299Y-77327810D01*
X89003751Y-77330412D01*
X89003756Y-77330415D01*
X89183168Y-77435255D01*
X89194103Y-77441645D01*
X89404884Y-77522134D01*
X89409952Y-77523165D01*
X89409955Y-77523166D01*
X89508868Y-77543290D01*
X89625981Y-77567117D01*
X89631156Y-77567307D01*
X89631158Y-77567307D01*
X89846292Y-77575196D01*
X89846296Y-77575196D01*
X89851456Y-77575385D01*
X89856576Y-77574729D01*
X89856578Y-77574729D01*
X89925985Y-77565838D01*
X90075253Y-77546716D01*
X90080202Y-77545231D01*
X90080208Y-77545230D01*
X90286413Y-77483365D01*
X90286412Y-77483365D01*
X90291363Y-77481880D01*
X90408964Y-77424268D01*
X90489331Y-77384897D01*
X90489336Y-77384894D01*
X90493982Y-77382618D01*
X90498192Y-77379615D01*
X90498197Y-77379612D01*
X90673455Y-77254601D01*
X90673459Y-77254597D01*
X90677667Y-77251596D01*
X90837487Y-77092333D01*
X90924159Y-76971717D01*
X90958370Y-76924107D01*
X91014364Y-76880459D01*
X91085068Y-76874013D01*
X91148032Y-76906816D01*
X91168125Y-76931799D01*
X91215275Y-77008743D01*
X91215279Y-77008748D01*
X91217975Y-77013147D01*
X91365702Y-77183687D01*
X91539299Y-77327810D01*
X91543751Y-77330412D01*
X91543756Y-77330415D01*
X91723168Y-77435255D01*
X91734103Y-77441645D01*
X91944884Y-77522134D01*
X91949952Y-77523165D01*
X91949955Y-77523166D01*
X92048868Y-77543290D01*
X92165981Y-77567117D01*
X92171156Y-77567307D01*
X92171158Y-77567307D01*
X92386292Y-77575196D01*
X92386296Y-77575196D01*
X92391456Y-77575385D01*
X92396576Y-77574729D01*
X92396578Y-77574729D01*
X92465985Y-77565838D01*
X92615253Y-77546716D01*
X92620202Y-77545231D01*
X92620208Y-77545230D01*
X92826413Y-77483365D01*
X92826412Y-77483365D01*
X92831363Y-77481880D01*
X92948964Y-77424268D01*
X93029331Y-77384897D01*
X93029336Y-77384894D01*
X93033982Y-77382618D01*
X93038192Y-77379615D01*
X93038197Y-77379612D01*
X93213455Y-77254601D01*
X93213459Y-77254597D01*
X93217667Y-77251596D01*
X93377487Y-77092333D01*
X93509150Y-76909105D01*
X93609118Y-76706835D01*
X93674708Y-76490952D01*
X93692635Y-76354784D01*
X93703721Y-76270578D01*
X93703722Y-76270572D01*
X93704158Y-76267256D01*
X93705802Y-76200000D01*
X93687315Y-75975132D01*
X93632349Y-75756304D01*
X93542380Y-75549391D01*
X93492913Y-75472926D01*
X93422634Y-75364291D01*
X93422632Y-75364288D01*
X93419826Y-75359951D01*
X93267977Y-75193071D01*
X93263926Y-75189872D01*
X93263922Y-75189868D01*
X93094966Y-75056434D01*
X93094962Y-75056432D01*
X93090911Y-75053232D01*
X92893383Y-74944191D01*
X92680698Y-74868876D01*
X92651795Y-74863727D01*
X92463657Y-74830214D01*
X92463653Y-74830214D01*
X92458569Y-74829308D01*
X92386574Y-74828429D01*
X92238129Y-74826615D01*
X92238127Y-74826615D01*
X92232959Y-74826552D01*
X92009929Y-74860680D01*
X91795468Y-74930777D01*
X91595335Y-75034960D01*
X91591202Y-75038063D01*
X91591199Y-75038065D01*
X91455117Y-75140238D01*
X91414905Y-75170430D01*
X91351445Y-75236837D01*
X91324410Y-75265128D01*
X91259024Y-75333550D01*
X91256112Y-75337819D01*
X91256106Y-75337827D01*
X91162503Y-75475043D01*
X91107592Y-75520046D01*
X91037067Y-75528217D01*
X90973320Y-75496963D01*
X90952623Y-75472479D01*
X90882634Y-75364291D01*
X90882632Y-75364288D01*
X90879826Y-75359951D01*
X90727977Y-75193071D01*
X90723926Y-75189872D01*
X90723922Y-75189868D01*
X90554966Y-75056434D01*
X90554962Y-75056432D01*
X90550911Y-75053232D01*
X90353383Y-74944191D01*
X90140698Y-74868876D01*
X90111795Y-74863727D01*
X89923657Y-74830214D01*
X89923653Y-74830214D01*
X89918569Y-74829308D01*
X89846574Y-74828429D01*
X89698129Y-74826615D01*
X89698127Y-74826615D01*
X89692959Y-74826552D01*
X89469929Y-74860680D01*
X89255468Y-74930777D01*
X89055335Y-75034960D01*
X89051202Y-75038063D01*
X89051199Y-75038065D01*
X88915117Y-75140238D01*
X88874905Y-75170430D01*
X88811445Y-75236837D01*
X88784410Y-75265128D01*
X88719024Y-75333550D01*
X88716112Y-75337819D01*
X88716106Y-75337827D01*
X88622503Y-75475043D01*
X88567592Y-75520046D01*
X88497067Y-75528217D01*
X88433320Y-75496963D01*
X88412623Y-75472479D01*
X88342634Y-75364291D01*
X88342632Y-75364288D01*
X88339826Y-75359951D01*
X88187977Y-75193071D01*
X88183926Y-75189872D01*
X88183922Y-75189868D01*
X88014966Y-75056434D01*
X88014962Y-75056432D01*
X88010911Y-75053232D01*
X87813383Y-74944191D01*
X87600698Y-74868876D01*
X87571795Y-74863727D01*
X87383657Y-74830214D01*
X87383653Y-74830214D01*
X87378569Y-74829308D01*
X87306574Y-74828429D01*
X87158129Y-74826615D01*
X87158127Y-74826615D01*
X87152959Y-74826552D01*
X86929929Y-74860680D01*
X86715468Y-74930777D01*
X86515335Y-75034960D01*
X86511202Y-75038063D01*
X86511199Y-75038065D01*
X86375117Y-75140238D01*
X86334905Y-75170430D01*
X86271445Y-75236837D01*
X86244410Y-75265128D01*
X86179024Y-75333550D01*
X86176112Y-75337819D01*
X86176106Y-75337827D01*
X86082503Y-75475043D01*
X86027592Y-75520046D01*
X85957067Y-75528217D01*
X85893320Y-75496963D01*
X85872623Y-75472479D01*
X85802634Y-75364291D01*
X85802632Y-75364288D01*
X85799826Y-75359951D01*
X85647977Y-75193071D01*
X85643926Y-75189872D01*
X85643922Y-75189868D01*
X85474966Y-75056434D01*
X85474962Y-75056432D01*
X85470911Y-75053232D01*
X85273383Y-74944191D01*
X85060698Y-74868876D01*
X85031795Y-74863727D01*
X84843657Y-74830214D01*
X84843653Y-74830214D01*
X84838569Y-74829308D01*
X84766574Y-74828429D01*
X84618129Y-74826615D01*
X84618127Y-74826615D01*
X84612959Y-74826552D01*
X84389929Y-74860680D01*
X84175468Y-74930777D01*
X83975335Y-75034960D01*
X83971202Y-75038063D01*
X83971199Y-75038065D01*
X83835117Y-75140238D01*
X83794905Y-75170430D01*
X83731445Y-75236837D01*
X83704410Y-75265128D01*
X83639024Y-75333550D01*
X83636112Y-75337819D01*
X83636106Y-75337827D01*
X83542503Y-75475043D01*
X83487592Y-75520046D01*
X83417067Y-75528217D01*
X83353320Y-75496963D01*
X83332623Y-75472479D01*
X83262634Y-75364291D01*
X83262632Y-75364288D01*
X83259826Y-75359951D01*
X83107977Y-75193071D01*
X83103926Y-75189872D01*
X83103922Y-75189868D01*
X82934966Y-75056434D01*
X82934962Y-75056432D01*
X82930911Y-75053232D01*
X82733383Y-74944191D01*
X82520698Y-74868876D01*
X82491795Y-74863727D01*
X82303657Y-74830214D01*
X82303653Y-74830214D01*
X82298569Y-74829308D01*
X82226574Y-74828429D01*
X82078129Y-74826615D01*
X82078127Y-74826615D01*
X82072959Y-74826552D01*
X81849929Y-74860680D01*
X81635468Y-74930777D01*
X81435335Y-75034960D01*
X81431202Y-75038063D01*
X81431199Y-75038065D01*
X81295117Y-75140238D01*
X81254905Y-75170430D01*
X81191445Y-75236837D01*
X81164410Y-75265128D01*
X81099024Y-75333550D01*
X81096112Y-75337819D01*
X81096106Y-75337827D01*
X81002503Y-75475043D01*
X80947592Y-75520046D01*
X80877067Y-75528217D01*
X80813320Y-75496963D01*
X80792623Y-75472479D01*
X80722634Y-75364291D01*
X80722632Y-75364288D01*
X80719826Y-75359951D01*
X80567977Y-75193071D01*
X80563926Y-75189872D01*
X80563922Y-75189868D01*
X80394966Y-75056434D01*
X80394962Y-75056432D01*
X80390911Y-75053232D01*
X80193383Y-74944191D01*
X79980698Y-74868876D01*
X79951795Y-74863727D01*
X79763657Y-74830214D01*
X79763653Y-74830214D01*
X79758569Y-74829308D01*
X79686574Y-74828429D01*
X79538129Y-74826615D01*
X79538127Y-74826615D01*
X79532959Y-74826552D01*
X79309929Y-74860680D01*
X79095468Y-74930777D01*
X78895335Y-75034960D01*
X78891202Y-75038063D01*
X78891199Y-75038065D01*
X78755117Y-75140238D01*
X78714905Y-75170430D01*
X78651445Y-75236837D01*
X78624410Y-75265128D01*
X78559024Y-75333550D01*
X78431878Y-75519940D01*
X78429704Y-75524624D01*
X78429702Y-75524627D01*
X78358402Y-75678231D01*
X78336881Y-75724593D01*
X78276585Y-75942013D01*
X78252609Y-76166362D01*
X78252906Y-76171514D01*
X78252906Y-76171518D01*
X78258618Y-76270578D01*
X78265597Y-76391614D01*
X78266734Y-76396660D01*
X78266735Y-76396666D01*
X78315200Y-76611720D01*
X78313468Y-76612110D01*
X78314607Y-76675315D01*
X78277305Y-76735723D01*
X78213266Y-76766374D01*
X78193091Y-76768000D01*
X75980504Y-76768000D01*
X75912383Y-76747998D01*
X75865890Y-76694342D01*
X75855786Y-76624068D01*
X75859945Y-76605372D01*
X75893206Y-76495896D01*
X75893206Y-76495895D01*
X75894708Y-76490952D01*
X75912635Y-76354784D01*
X75923721Y-76270578D01*
X75923722Y-76270572D01*
X75924158Y-76267256D01*
X75925802Y-76200000D01*
X75907315Y-75975132D01*
X75852349Y-75756304D01*
X75762380Y-75549391D01*
X75712913Y-75472926D01*
X75642634Y-75364291D01*
X75642632Y-75364288D01*
X75639826Y-75359951D01*
X75487977Y-75193071D01*
X75483926Y-75189872D01*
X75483922Y-75189868D01*
X75314966Y-75056434D01*
X75314962Y-75056432D01*
X75310911Y-75053232D01*
X75113383Y-74944191D01*
X74900698Y-74868876D01*
X74871795Y-74863727D01*
X74683657Y-74830214D01*
X74683653Y-74830214D01*
X74678569Y-74829308D01*
X74606574Y-74828429D01*
X74458129Y-74826615D01*
X74458127Y-74826615D01*
X74452959Y-74826552D01*
X74229929Y-74860680D01*
X74015468Y-74930777D01*
X73815335Y-75034960D01*
X73811202Y-75038063D01*
X73811199Y-75038065D01*
X73675117Y-75140238D01*
X73634905Y-75170430D01*
X73571445Y-75236837D01*
X73544410Y-75265128D01*
X73479024Y-75333550D01*
X73476112Y-75337819D01*
X73476106Y-75337827D01*
X73382198Y-75475490D01*
X73327287Y-75520493D01*
X73256762Y-75528664D01*
X73193015Y-75497410D01*
X73172318Y-75472926D01*
X73102239Y-75364601D01*
X73095947Y-75356430D01*
X72951113Y-75197260D01*
X72943580Y-75190234D01*
X72774691Y-75056855D01*
X72766104Y-75051150D01*
X72577711Y-74947151D01*
X72568299Y-74942921D01*
X72365445Y-74871086D01*
X72355474Y-74868452D01*
X72280837Y-74855157D01*
X72267540Y-74856617D01*
X72263000Y-74871174D01*
X72263000Y-76328000D01*
X72242998Y-76396121D01*
X72189342Y-76442614D01*
X72137000Y-76454000D01*
X71498500Y-76454000D01*
X71430379Y-76433998D01*
X71383886Y-76380342D01*
X71372500Y-76328000D01*
X71372500Y-76072000D01*
X71392502Y-76003879D01*
X71446158Y-75957386D01*
X71498500Y-75946000D01*
X71736885Y-75946000D01*
X71752124Y-75941525D01*
X71753329Y-75940135D01*
X71755000Y-75932452D01*
X71755000Y-74869343D01*
X71751082Y-74855999D01*
X71736806Y-74854012D01*
X71695161Y-74860385D01*
X71685125Y-74862776D01*
X71480576Y-74929633D01*
X71471079Y-74933625D01*
X71280189Y-75032995D01*
X71271464Y-75038490D01*
X71169120Y-75115332D01*
X71102635Y-75140238D01*
X71033240Y-75125246D01*
X71004372Y-75103667D01*
X63270952Y-67370247D01*
X63263412Y-67361961D01*
X63259300Y-67355482D01*
X63209648Y-67308856D01*
X63206807Y-67306102D01*
X63187070Y-67286365D01*
X63183873Y-67283885D01*
X63174851Y-67276180D01*
X63148400Y-67251341D01*
X63142621Y-67245914D01*
X63135675Y-67242095D01*
X63135672Y-67242093D01*
X63124866Y-67236152D01*
X63108347Y-67225301D01*
X63107883Y-67224941D01*
X63092341Y-67212886D01*
X63085072Y-67209741D01*
X63085068Y-67209738D01*
X63051763Y-67195326D01*
X63041113Y-67190109D01*
X63002360Y-67168805D01*
X62982737Y-67163767D01*
X62964034Y-67157363D01*
X62952720Y-67152467D01*
X62952719Y-67152467D01*
X62945445Y-67149319D01*
X62937622Y-67148080D01*
X62937612Y-67148077D01*
X62901776Y-67142401D01*
X62890156Y-67139995D01*
X62855011Y-67130972D01*
X62855010Y-67130972D01*
X62847330Y-67129000D01*
X62827076Y-67129000D01*
X62807365Y-67127449D01*
X62795186Y-67125520D01*
X62787357Y-67124280D01*
X62779465Y-67125026D01*
X62743339Y-67128441D01*
X62731481Y-67129000D01*
X57393594Y-67129000D01*
X57325473Y-67108998D01*
X57304499Y-67092095D01*
X54828294Y-64615890D01*
X54794268Y-64553578D01*
X54799333Y-64482763D01*
X54841880Y-64425927D01*
X54876365Y-64407660D01*
X54879597Y-64406547D01*
X54884117Y-64405357D01*
X55124262Y-64302182D01*
X55346519Y-64164646D01*
X55350082Y-64161629D01*
X55350087Y-64161626D01*
X55542439Y-63998787D01*
X55542440Y-63998786D01*
X55546005Y-63995768D01*
X55637729Y-63891177D01*
X55715257Y-63802774D01*
X55715261Y-63802769D01*
X55718339Y-63799259D01*
X55789108Y-63689237D01*
X55816636Y-63646439D01*
X55870310Y-63599967D01*
X55940588Y-63589891D01*
X56005157Y-63619409D01*
X56011702Y-63625506D01*
X58014343Y-65628147D01*
X58021887Y-65636437D01*
X58026000Y-65642918D01*
X58031777Y-65648343D01*
X58075667Y-65689558D01*
X58078509Y-65692313D01*
X58098230Y-65712034D01*
X58101425Y-65714512D01*
X58110447Y-65722218D01*
X58142679Y-65752486D01*
X58149628Y-65756306D01*
X58160432Y-65762246D01*
X58176956Y-65773099D01*
X58192959Y-65785513D01*
X58233543Y-65803076D01*
X58244173Y-65808283D01*
X58282940Y-65829595D01*
X58290617Y-65831566D01*
X58290622Y-65831568D01*
X58302558Y-65834632D01*
X58321266Y-65841037D01*
X58339855Y-65849081D01*
X58347680Y-65850320D01*
X58347682Y-65850321D01*
X58383519Y-65855997D01*
X58395140Y-65858404D01*
X58426959Y-65866573D01*
X58437970Y-65869400D01*
X58458231Y-65869400D01*
X58477940Y-65870951D01*
X58497943Y-65874119D01*
X58505835Y-65873373D01*
X58511062Y-65872879D01*
X58541954Y-65869959D01*
X58553811Y-65869400D01*
X71533333Y-65869400D01*
X71544516Y-65869927D01*
X71552009Y-65871602D01*
X71559935Y-65871353D01*
X71559936Y-65871353D01*
X71620086Y-65869462D01*
X71624045Y-65869400D01*
X71651956Y-65869400D01*
X71655891Y-65868903D01*
X71655956Y-65868895D01*
X71667793Y-65867962D01*
X71700051Y-65866948D01*
X71704070Y-65866822D01*
X71711989Y-65866573D01*
X71731443Y-65860921D01*
X71750800Y-65856913D01*
X71763030Y-65855368D01*
X71763031Y-65855368D01*
X71770897Y-65854374D01*
X71778268Y-65851455D01*
X71778270Y-65851455D01*
X71812012Y-65838096D01*
X71823242Y-65834251D01*
X71858083Y-65824129D01*
X71858084Y-65824129D01*
X71865693Y-65821918D01*
X71872512Y-65817885D01*
X71872517Y-65817883D01*
X71883128Y-65811607D01*
X71900876Y-65802912D01*
X71919717Y-65795452D01*
X71940087Y-65780653D01*
X71955487Y-65769464D01*
X71965407Y-65762948D01*
X71996635Y-65744480D01*
X71996638Y-65744478D01*
X72003462Y-65740442D01*
X72017783Y-65726121D01*
X72032817Y-65713280D01*
X72034532Y-65712034D01*
X72049207Y-65701372D01*
X72077398Y-65667295D01*
X72085388Y-65658516D01*
X73337474Y-64406431D01*
X73399786Y-64372405D01*
X73468110Y-64376571D01*
X73647788Y-64439318D01*
X73653590Y-64441344D01*
X73658183Y-64442216D01*
X73905785Y-64489224D01*
X73905788Y-64489224D01*
X73910374Y-64490095D01*
X74040959Y-64495226D01*
X74166875Y-64500174D01*
X74166881Y-64500174D01*
X74171543Y-64500357D01*
X74250977Y-64491657D01*
X74426707Y-64472412D01*
X74426712Y-64472411D01*
X74431360Y-64471902D01*
X74437753Y-64470219D01*
X74679594Y-64406548D01*
X74679596Y-64406547D01*
X74684117Y-64405357D01*
X74760815Y-64372405D01*
X74919972Y-64304025D01*
X74924262Y-64302182D01*
X75146519Y-64164646D01*
X75150082Y-64161629D01*
X75150087Y-64161626D01*
X75342439Y-63998787D01*
X75342440Y-63998786D01*
X75346005Y-63995768D01*
X75437729Y-63891177D01*
X75515257Y-63802774D01*
X75515261Y-63802769D01*
X75518339Y-63799259D01*
X75659733Y-63579437D01*
X75767083Y-63341129D01*
X75805607Y-63204535D01*
X75836760Y-63094076D01*
X75836761Y-63094073D01*
X75838030Y-63089572D01*
X75854840Y-62957435D01*
X75870616Y-62833421D01*
X75870616Y-62833417D01*
X75871014Y-62830291D01*
X75871098Y-62827108D01*
X75873348Y-62741160D01*
X75873431Y-62738000D01*
X75865128Y-62626268D01*
X75854407Y-62482000D01*
X75854406Y-62481996D01*
X75854061Y-62477348D01*
X75844825Y-62436528D01*
X75797408Y-62226980D01*
X75796377Y-62222423D01*
X75750199Y-62103676D01*
X75703340Y-61983176D01*
X75703339Y-61983173D01*
X75701647Y-61978823D01*
X75571951Y-61751902D01*
X75410138Y-61546643D01*
X75219763Y-61367557D01*
X75023333Y-61231288D01*
X75008851Y-61221241D01*
X75008848Y-61221239D01*
X75005009Y-61218576D01*
X75000816Y-61216508D01*
X74774781Y-61105040D01*
X74774778Y-61105039D01*
X74770593Y-61102975D01*
X74765633Y-61101387D01*
X74526123Y-61024720D01*
X74521665Y-61023293D01*
X74263693Y-60981279D01*
X74149942Y-60979790D01*
X74007022Y-60977919D01*
X74007019Y-60977919D01*
X74002345Y-60977858D01*
X73743362Y-61013104D01*
X73492433Y-61086243D01*
X73488180Y-61088203D01*
X73488179Y-61088204D01*
X73449160Y-61106192D01*
X73255072Y-61195668D01*
X73216067Y-61221241D01*
X73040404Y-61336410D01*
X73040399Y-61336414D01*
X73036491Y-61338976D01*
X72929731Y-61434263D01*
X72847827Y-61507366D01*
X72841494Y-61513018D01*
X72674363Y-61713970D01*
X72614859Y-61812030D01*
X72598619Y-61838793D01*
X72546180Y-61886653D01*
X72476189Y-61898565D01*
X72410870Y-61870747D01*
X72370959Y-61812030D01*
X72364900Y-61773427D01*
X72364900Y-61546768D01*
X72365427Y-61535585D01*
X72367102Y-61528092D01*
X72366531Y-61509906D01*
X72364962Y-61460002D01*
X72364900Y-61456044D01*
X72364900Y-61428144D01*
X72364396Y-61424153D01*
X72363463Y-61412311D01*
X72362819Y-61391801D01*
X72362074Y-61368111D01*
X72356421Y-61348652D01*
X72352412Y-61329293D01*
X72351252Y-61320112D01*
X72349874Y-61309203D01*
X72346958Y-61301837D01*
X72346956Y-61301831D01*
X72333600Y-61268098D01*
X72329755Y-61256868D01*
X72319630Y-61222017D01*
X72319630Y-61222016D01*
X72317419Y-61214407D01*
X72311275Y-61204017D01*
X72307105Y-61196966D01*
X72298408Y-61179213D01*
X72293872Y-61167758D01*
X72290952Y-61160383D01*
X72264963Y-61124612D01*
X72258447Y-61114692D01*
X72250676Y-61101552D01*
X72235942Y-61076638D01*
X72221621Y-61062317D01*
X72208780Y-61047283D01*
X72201531Y-61037306D01*
X72196872Y-61030893D01*
X72162795Y-61002702D01*
X72154016Y-60994712D01*
X70688093Y-59528788D01*
X70654067Y-59466476D01*
X70659132Y-59395660D01*
X70701679Y-59338825D01*
X70727450Y-59323925D01*
X70846006Y-59272989D01*
X70964262Y-59222182D01*
X71046258Y-59171442D01*
X71182547Y-59087104D01*
X71182548Y-59087104D01*
X71186519Y-59084646D01*
X71190082Y-59081629D01*
X71190087Y-59081626D01*
X71382439Y-58918787D01*
X71382440Y-58918786D01*
X71386005Y-58915768D01*
X71492680Y-58794129D01*
X71555257Y-58722774D01*
X71555261Y-58722769D01*
X71558339Y-58719259D01*
X71699733Y-58499437D01*
X71807083Y-58261129D01*
X71845607Y-58124535D01*
X71876760Y-58014076D01*
X71876761Y-58014073D01*
X71878030Y-58009572D01*
X71894840Y-57877435D01*
X71910616Y-57753421D01*
X71910616Y-57753417D01*
X71911014Y-57750291D01*
X71911098Y-57747108D01*
X71913348Y-57661160D01*
X71913431Y-57658000D01*
X71894061Y-57397348D01*
X71884825Y-57356528D01*
X71837408Y-57146980D01*
X71836377Y-57142423D01*
X71790199Y-57023676D01*
X71743340Y-56903176D01*
X71743339Y-56903173D01*
X71741647Y-56898823D01*
X71611951Y-56671902D01*
X71450138Y-56466643D01*
X71259763Y-56287557D01*
X71060240Y-56149142D01*
X71048851Y-56141241D01*
X71048848Y-56141239D01*
X71045009Y-56138576D01*
X71004644Y-56118670D01*
X70814781Y-56025040D01*
X70814778Y-56025039D01*
X70810593Y-56022975D01*
X70796901Y-56018592D01*
X70566123Y-55944720D01*
X70561665Y-55943293D01*
X70303693Y-55901279D01*
X70189942Y-55899790D01*
X70047022Y-55897919D01*
X70047019Y-55897919D01*
X70042345Y-55897858D01*
X69783362Y-55933104D01*
X69778876Y-55934412D01*
X69778874Y-55934412D01*
X69762674Y-55939134D01*
X69532433Y-56006243D01*
X69528185Y-56008201D01*
X69528186Y-56008201D01*
X69517532Y-56013112D01*
X69447295Y-56023467D01*
X69382609Y-55994204D01*
X69375686Y-55987781D01*
X67835705Y-54447800D01*
X67801679Y-54385488D01*
X67798800Y-54358705D01*
X67798800Y-45473271D01*
X67818802Y-45405150D01*
X67872458Y-45358657D01*
X67942732Y-45348553D01*
X67978050Y-45359076D01*
X68122754Y-45426552D01*
X68130757Y-45430284D01*
X68136065Y-45431706D01*
X68136067Y-45431707D01*
X68346598Y-45488119D01*
X68346600Y-45488119D01*
X68351913Y-45489543D01*
X68580000Y-45509498D01*
X68808087Y-45489543D01*
X68813400Y-45488119D01*
X68813402Y-45488119D01*
X69023933Y-45431707D01*
X69023935Y-45431706D01*
X69029243Y-45430284D01*
X69035239Y-45427488D01*
X69231762Y-45335849D01*
X69231767Y-45335846D01*
X69236749Y-45333523D01*
X69378458Y-45234297D01*
X69419789Y-45205357D01*
X69419792Y-45205355D01*
X69424300Y-45202198D01*
X69586198Y-45040300D01*
X69717523Y-44852749D01*
X69719846Y-44847767D01*
X69719849Y-44847762D01*
X69735805Y-44813543D01*
X69782722Y-44760258D01*
X69850999Y-44740797D01*
X69918959Y-44761339D01*
X69964195Y-44813543D01*
X69980151Y-44847762D01*
X69980154Y-44847767D01*
X69982477Y-44852749D01*
X70113802Y-45040300D01*
X70275700Y-45202198D01*
X70280208Y-45205355D01*
X70280211Y-45205357D01*
X70321542Y-45234297D01*
X70463251Y-45333523D01*
X70468233Y-45335846D01*
X70468238Y-45335849D01*
X70664761Y-45427488D01*
X70670757Y-45430284D01*
X70676065Y-45431706D01*
X70676067Y-45431707D01*
X70886598Y-45488119D01*
X70886600Y-45488119D01*
X70891913Y-45489543D01*
X71120000Y-45509498D01*
X71348087Y-45489543D01*
X71353400Y-45488119D01*
X71353402Y-45488119D01*
X71563933Y-45431707D01*
X71563935Y-45431706D01*
X71569243Y-45430284D01*
X71574225Y-45427961D01*
X71574230Y-45427959D01*
X71577247Y-45426552D01*
X71578704Y-45426331D01*
X71579398Y-45426078D01*
X71579449Y-45426218D01*
X71647438Y-45415889D01*
X71712252Y-45444867D01*
X71751110Y-45504285D01*
X71756500Y-45540745D01*
X71756500Y-55859233D01*
X71755973Y-55870416D01*
X71754298Y-55877909D01*
X71754547Y-55885835D01*
X71754547Y-55885836D01*
X71756438Y-55945986D01*
X71756500Y-55949945D01*
X71756500Y-55977856D01*
X71756997Y-55981790D01*
X71756997Y-55981791D01*
X71757005Y-55981856D01*
X71757938Y-55993693D01*
X71759327Y-56037889D01*
X71764978Y-56057339D01*
X71768987Y-56076700D01*
X71771526Y-56096797D01*
X71774445Y-56104168D01*
X71774445Y-56104170D01*
X71787804Y-56137912D01*
X71791649Y-56149142D01*
X71803982Y-56191593D01*
X71808015Y-56198412D01*
X71808017Y-56198417D01*
X71814293Y-56209028D01*
X71822988Y-56226776D01*
X71830448Y-56245617D01*
X71835110Y-56252033D01*
X71835110Y-56252034D01*
X71856436Y-56281387D01*
X71862952Y-56291307D01*
X71877081Y-56315197D01*
X71885458Y-56329362D01*
X71899779Y-56343683D01*
X71912619Y-56358716D01*
X71924528Y-56375107D01*
X71930634Y-56380158D01*
X71958605Y-56403298D01*
X71967384Y-56411288D01*
X72441952Y-56885856D01*
X72475978Y-56948168D01*
X72469055Y-57023674D01*
X72437697Y-57098455D01*
X72373359Y-57351783D01*
X72347173Y-57611839D01*
X72347397Y-57616505D01*
X72347397Y-57616511D01*
X72353443Y-57742374D01*
X72359713Y-57872908D01*
X72410704Y-58129256D01*
X72499026Y-58375252D01*
X72501242Y-58379376D01*
X72565753Y-58499437D01*
X72622737Y-58605491D01*
X72625532Y-58609234D01*
X72625534Y-58609237D01*
X72776330Y-58811177D01*
X72776335Y-58811183D01*
X72779122Y-58814915D01*
X72782431Y-58818195D01*
X72782436Y-58818201D01*
X72951077Y-58985376D01*
X72964743Y-58998923D01*
X72968505Y-59001681D01*
X72968508Y-59001684D01*
X73123281Y-59115168D01*
X73175524Y-59153474D01*
X73179667Y-59155654D01*
X73179669Y-59155655D01*
X73402684Y-59272989D01*
X73402689Y-59272991D01*
X73406834Y-59275172D01*
X73653590Y-59361344D01*
X73658183Y-59362216D01*
X73905785Y-59409224D01*
X73905788Y-59409224D01*
X73910374Y-59410095D01*
X74040958Y-59415226D01*
X74166875Y-59420174D01*
X74166881Y-59420174D01*
X74171543Y-59420357D01*
X74250977Y-59411657D01*
X74426707Y-59392412D01*
X74426712Y-59392411D01*
X74431360Y-59391902D01*
X74475029Y-59380405D01*
X74679594Y-59326548D01*
X74679596Y-59326547D01*
X74684117Y-59325357D01*
X74924262Y-59222182D01*
X75006258Y-59171442D01*
X75142547Y-59087104D01*
X75142548Y-59087104D01*
X75146519Y-59084646D01*
X75150082Y-59081629D01*
X75150087Y-59081626D01*
X75342439Y-58918787D01*
X75342440Y-58918786D01*
X75346005Y-58915768D01*
X75452680Y-58794129D01*
X75515257Y-58722774D01*
X75515261Y-58722769D01*
X75518339Y-58719259D01*
X75659733Y-58499437D01*
X75767083Y-58261129D01*
X75805607Y-58124535D01*
X75836760Y-58014076D01*
X75836761Y-58014073D01*
X75838030Y-58009572D01*
X75854840Y-57877435D01*
X75870616Y-57753421D01*
X75870616Y-57753417D01*
X75871014Y-57750291D01*
X75871098Y-57747108D01*
X75873348Y-57661160D01*
X75873431Y-57658000D01*
X75854061Y-57397348D01*
X75844825Y-57356528D01*
X75797408Y-57146980D01*
X75796377Y-57142423D01*
X75750199Y-57023676D01*
X75703340Y-56903176D01*
X75703339Y-56903173D01*
X75701647Y-56898823D01*
X75571951Y-56671902D01*
X75410138Y-56466643D01*
X75219763Y-56287557D01*
X75020240Y-56149142D01*
X75008851Y-56141241D01*
X75008848Y-56141239D01*
X75005009Y-56138576D01*
X74964644Y-56118670D01*
X74774781Y-56025040D01*
X74774778Y-56025039D01*
X74770593Y-56022975D01*
X74756901Y-56018592D01*
X74526123Y-55944720D01*
X74521665Y-55943293D01*
X74263693Y-55901279D01*
X74149942Y-55899790D01*
X74007022Y-55897919D01*
X74007019Y-55897919D01*
X74002345Y-55897858D01*
X73743362Y-55933104D01*
X73738876Y-55934412D01*
X73738874Y-55934412D01*
X73722674Y-55939134D01*
X73492433Y-56006243D01*
X73488185Y-56008201D01*
X73488186Y-56008201D01*
X73477532Y-56013112D01*
X73407295Y-56023467D01*
X73342609Y-55994204D01*
X73335686Y-55987781D01*
X73060405Y-55712500D01*
X73026379Y-55650188D01*
X73023500Y-55623405D01*
X73023500Y-45540194D01*
X73043502Y-45472073D01*
X73097158Y-45425580D01*
X73167432Y-45415476D01*
X73202751Y-45426000D01*
X73205942Y-45427488D01*
X73216239Y-45431236D01*
X73388503Y-45477394D01*
X73402599Y-45477058D01*
X73406000Y-45469116D01*
X73406000Y-45463967D01*
X73914000Y-45463967D01*
X73917973Y-45477498D01*
X73926522Y-45478727D01*
X74103761Y-45431236D01*
X74114053Y-45427490D01*
X74311511Y-45335414D01*
X74321007Y-45329931D01*
X74499467Y-45204972D01*
X74507875Y-45197916D01*
X74661916Y-45043875D01*
X74668972Y-45035467D01*
X74793931Y-44857007D01*
X74799414Y-44847511D01*
X74891490Y-44650053D01*
X74895236Y-44639761D01*
X74941394Y-44467497D01*
X74941058Y-44453401D01*
X74933116Y-44450000D01*
X73932115Y-44450000D01*
X73916876Y-44454475D01*
X73915671Y-44455865D01*
X73914000Y-44463548D01*
X73914000Y-45463967D01*
X73406000Y-45463967D01*
X73406000Y-43923885D01*
X73914000Y-43923885D01*
X73918475Y-43939124D01*
X73919865Y-43940329D01*
X73927548Y-43942000D01*
X74927967Y-43942000D01*
X74941498Y-43938027D01*
X74942727Y-43929478D01*
X74895236Y-43752239D01*
X74891490Y-43741947D01*
X74799414Y-43544489D01*
X74793931Y-43534993D01*
X74668972Y-43356533D01*
X74661916Y-43348125D01*
X74507875Y-43194084D01*
X74499467Y-43187028D01*
X74321007Y-43062069D01*
X74311511Y-43056586D01*
X74114053Y-42964510D01*
X74103761Y-42960764D01*
X73931497Y-42914606D01*
X73917401Y-42914942D01*
X73914000Y-42922884D01*
X73914000Y-43923885D01*
X73406000Y-43923885D01*
X73406000Y-42928033D01*
X73402027Y-42914502D01*
X73393478Y-42913273D01*
X73216239Y-42960764D01*
X73205947Y-42964510D01*
X73157257Y-42987215D01*
X73087066Y-42997876D01*
X73022253Y-42968896D01*
X72983011Y-42908176D01*
X72978230Y-42891720D01*
X72978230Y-42891719D01*
X72976018Y-42884107D01*
X72965707Y-42866672D01*
X72957012Y-42848924D01*
X72949552Y-42830083D01*
X72923564Y-42794313D01*
X72917048Y-42784393D01*
X72898580Y-42753165D01*
X72898578Y-42753162D01*
X72894542Y-42746338D01*
X72880221Y-42732017D01*
X72867380Y-42716983D01*
X72860131Y-42707006D01*
X72855472Y-42700593D01*
X72821395Y-42672402D01*
X72812616Y-42664412D01*
X68227943Y-38079738D01*
X68193917Y-38017426D01*
X68198982Y-37946611D01*
X68241529Y-37889775D01*
X68308049Y-37864964D01*
X68341015Y-37868114D01*
X68341183Y-37867164D01*
X68346597Y-37868119D01*
X68351913Y-37869543D01*
X68580000Y-37889498D01*
X68808087Y-37869543D01*
X68813400Y-37868119D01*
X68813402Y-37868119D01*
X69023933Y-37811707D01*
X69023935Y-37811706D01*
X69029243Y-37810284D01*
X69034225Y-37807961D01*
X69231762Y-37715849D01*
X69231767Y-37715846D01*
X69236749Y-37713523D01*
X69341611Y-37640098D01*
X69419789Y-37585357D01*
X69419792Y-37585355D01*
X69424300Y-37582198D01*
X69586198Y-37420300D01*
X69717523Y-37232749D01*
X69719846Y-37227767D01*
X69719849Y-37227762D01*
X69735805Y-37193543D01*
X69782722Y-37140258D01*
X69850999Y-37120797D01*
X69918959Y-37141339D01*
X69964195Y-37193543D01*
X69980151Y-37227762D01*
X69980154Y-37227767D01*
X69982477Y-37232749D01*
X70113802Y-37420300D01*
X70275700Y-37582198D01*
X70280208Y-37585355D01*
X70280211Y-37585357D01*
X70358389Y-37640098D01*
X70463251Y-37713523D01*
X70468233Y-37715846D01*
X70468238Y-37715849D01*
X70665775Y-37807961D01*
X70670757Y-37810284D01*
X70676065Y-37811706D01*
X70676067Y-37811707D01*
X70886598Y-37868119D01*
X70886600Y-37868119D01*
X70891913Y-37869543D01*
X71120000Y-37889498D01*
X71348087Y-37869543D01*
X71353400Y-37868119D01*
X71353402Y-37868119D01*
X71563933Y-37811707D01*
X71563935Y-37811706D01*
X71569243Y-37810284D01*
X71574225Y-37807961D01*
X71771762Y-37715849D01*
X71771767Y-37715846D01*
X71776749Y-37713523D01*
X71881611Y-37640098D01*
X71959789Y-37585357D01*
X71959792Y-37585355D01*
X71964300Y-37582198D01*
X72126198Y-37420300D01*
X72257523Y-37232749D01*
X72259846Y-37227767D01*
X72259849Y-37227762D01*
X72275805Y-37193543D01*
X72322722Y-37140258D01*
X72390999Y-37120797D01*
X72458959Y-37141339D01*
X72504195Y-37193543D01*
X72520151Y-37227762D01*
X72520154Y-37227767D01*
X72522477Y-37232749D01*
X72653802Y-37420300D01*
X72815700Y-37582198D01*
X72820208Y-37585355D01*
X72820211Y-37585357D01*
X72898389Y-37640098D01*
X73003251Y-37713523D01*
X73008233Y-37715846D01*
X73008238Y-37715849D01*
X73205775Y-37807961D01*
X73210757Y-37810284D01*
X73216065Y-37811706D01*
X73216067Y-37811707D01*
X73426598Y-37868119D01*
X73426600Y-37868119D01*
X73431913Y-37869543D01*
X73660000Y-37889498D01*
X73888087Y-37869543D01*
X73893400Y-37868119D01*
X73893402Y-37868119D01*
X74103933Y-37811707D01*
X74103935Y-37811706D01*
X74109243Y-37810284D01*
X74114225Y-37807961D01*
X74311762Y-37715849D01*
X74311767Y-37715846D01*
X74316749Y-37713523D01*
X74421611Y-37640098D01*
X74499789Y-37585357D01*
X74499792Y-37585355D01*
X74504300Y-37582198D01*
X74666198Y-37420300D01*
X74797523Y-37232749D01*
X74799846Y-37227767D01*
X74799849Y-37227762D01*
X74891961Y-37030225D01*
X74891961Y-37030224D01*
X74894284Y-37025243D01*
X74953543Y-36804087D01*
X74973498Y-36576000D01*
X74953543Y-36347913D01*
X74945240Y-36316927D01*
X74895707Y-36132067D01*
X74895706Y-36132065D01*
X74894284Y-36126757D01*
X74891961Y-36121775D01*
X74799849Y-35924238D01*
X74799846Y-35924233D01*
X74797523Y-35919251D01*
X74666198Y-35731700D01*
X74504300Y-35569802D01*
X74499792Y-35566645D01*
X74499789Y-35566643D01*
X74344589Y-35457971D01*
X74316749Y-35438477D01*
X74311767Y-35436154D01*
X74311762Y-35436151D01*
X74114225Y-35344039D01*
X74114224Y-35344039D01*
X74109243Y-35341716D01*
X74103935Y-35340294D01*
X74103933Y-35340293D01*
X73893402Y-35283881D01*
X73893400Y-35283881D01*
X73888087Y-35282457D01*
X73660000Y-35262502D01*
X73431913Y-35282457D01*
X73426600Y-35283881D01*
X73426598Y-35283881D01*
X73216067Y-35340293D01*
X73216065Y-35340294D01*
X73210757Y-35341716D01*
X73205776Y-35344039D01*
X73205775Y-35344039D01*
X73008238Y-35436151D01*
X73008233Y-35436154D01*
X73003251Y-35438477D01*
X72975411Y-35457971D01*
X72820211Y-35566643D01*
X72820208Y-35566645D01*
X72815700Y-35569802D01*
X72653802Y-35731700D01*
X72522477Y-35919251D01*
X72520154Y-35924233D01*
X72520151Y-35924238D01*
X72504195Y-35958457D01*
X72457278Y-36011742D01*
X72389001Y-36031203D01*
X72321041Y-36010661D01*
X72275805Y-35958457D01*
X72259849Y-35924238D01*
X72259846Y-35924233D01*
X72257523Y-35919251D01*
X72126198Y-35731700D01*
X71964300Y-35569802D01*
X71959792Y-35566645D01*
X71959789Y-35566643D01*
X71807229Y-35459819D01*
X71762901Y-35404362D01*
X71753500Y-35356606D01*
X71753500Y-32382667D01*
X71754027Y-32371484D01*
X71755702Y-32363991D01*
X71754678Y-32331399D01*
X71753562Y-32295914D01*
X71753500Y-32291955D01*
X71753500Y-32264044D01*
X71752995Y-32260044D01*
X71752062Y-32248201D01*
X71750922Y-32211930D01*
X71750673Y-32204011D01*
X71745021Y-32184557D01*
X71741013Y-32165200D01*
X71739468Y-32152970D01*
X71739468Y-32152969D01*
X71738474Y-32145103D01*
X71735555Y-32137730D01*
X71722196Y-32103988D01*
X71718351Y-32092758D01*
X71708229Y-32057917D01*
X71708229Y-32057916D01*
X71706018Y-32050307D01*
X71701985Y-32043488D01*
X71701983Y-32043483D01*
X71695707Y-32032872D01*
X71687012Y-32015124D01*
X71679552Y-31996283D01*
X71653564Y-31960513D01*
X71647048Y-31950593D01*
X71628580Y-31919365D01*
X71628578Y-31919362D01*
X71624542Y-31912538D01*
X71610221Y-31898217D01*
X71597380Y-31883183D01*
X71590131Y-31873206D01*
X71585472Y-31866793D01*
X71551395Y-31838602D01*
X71542616Y-31830612D01*
X68857772Y-29145767D01*
X68823746Y-29083455D01*
X68828811Y-29012639D01*
X68857927Y-28967421D01*
X68989827Y-28835980D01*
X68993487Y-28832333D01*
X69114370Y-28664107D01*
X69170364Y-28620459D01*
X69241068Y-28614013D01*
X69304032Y-28646816D01*
X69324125Y-28671799D01*
X69371275Y-28748743D01*
X69371279Y-28748748D01*
X69373975Y-28753147D01*
X69521702Y-28923687D01*
X69695299Y-29067810D01*
X69699754Y-29070413D01*
X69699765Y-29070421D01*
X69792018Y-29124330D01*
X69840741Y-29175968D01*
X69852895Y-29213402D01*
X69854078Y-29220870D01*
X69854327Y-29228789D01*
X69856538Y-29236398D01*
X69859978Y-29248239D01*
X69863987Y-29267600D01*
X69866526Y-29287697D01*
X69869445Y-29295068D01*
X69869445Y-29295070D01*
X69882804Y-29328812D01*
X69886649Y-29340042D01*
X69898982Y-29382493D01*
X69903015Y-29389312D01*
X69903017Y-29389317D01*
X69909293Y-29399928D01*
X69917988Y-29417676D01*
X69925448Y-29436517D01*
X69930110Y-29442933D01*
X69930110Y-29442934D01*
X69951436Y-29472287D01*
X69957952Y-29482207D01*
X69980458Y-29520262D01*
X69994779Y-29534583D01*
X70007619Y-29549616D01*
X70019528Y-29566007D01*
X70053605Y-29594198D01*
X70062384Y-29602188D01*
X77399595Y-36939400D01*
X77433621Y-37001712D01*
X77436500Y-37028495D01*
X77436500Y-55932930D01*
X77416498Y-56001051D01*
X77363251Y-56047356D01*
X77341597Y-56057339D01*
X77215072Y-56115668D01*
X77176067Y-56141241D01*
X77000404Y-56256410D01*
X77000399Y-56256414D01*
X76996491Y-56258976D01*
X76801494Y-56433018D01*
X76634363Y-56633970D01*
X76498771Y-56857419D01*
X76397697Y-57098455D01*
X76333359Y-57351783D01*
X76307173Y-57611839D01*
X76307397Y-57616505D01*
X76307397Y-57616511D01*
X76313443Y-57742374D01*
X76319713Y-57872908D01*
X76370704Y-58129256D01*
X76459026Y-58375252D01*
X76461242Y-58379376D01*
X76525753Y-58499437D01*
X76582737Y-58605491D01*
X76585532Y-58609234D01*
X76585534Y-58609237D01*
X76736330Y-58811177D01*
X76736335Y-58811183D01*
X76739122Y-58814915D01*
X76742431Y-58818195D01*
X76742436Y-58818201D01*
X76911077Y-58985376D01*
X76924743Y-58998923D01*
X76928505Y-59001681D01*
X76928508Y-59001684D01*
X77083281Y-59115168D01*
X77135524Y-59153474D01*
X77139667Y-59155654D01*
X77139669Y-59155655D01*
X77362684Y-59272989D01*
X77362689Y-59272991D01*
X77366834Y-59275172D01*
X77613590Y-59361344D01*
X77618183Y-59362216D01*
X77865785Y-59409224D01*
X77865788Y-59409224D01*
X77870374Y-59410095D01*
X78000958Y-59415226D01*
X78126875Y-59420174D01*
X78126881Y-59420174D01*
X78131543Y-59420357D01*
X78210977Y-59411657D01*
X78386707Y-59392412D01*
X78386712Y-59392411D01*
X78391360Y-59391902D01*
X78435029Y-59380405D01*
X78639594Y-59326548D01*
X78639596Y-59326547D01*
X78644117Y-59325357D01*
X78884262Y-59222182D01*
X78888231Y-59219726D01*
X78888241Y-59219721D01*
X79057197Y-59115168D01*
X79125649Y-59096330D01*
X79193419Y-59117491D01*
X79238990Y-59171932D01*
X79249500Y-59222312D01*
X79249500Y-60610405D01*
X79229498Y-60678526D01*
X79212595Y-60699500D01*
X78844410Y-61067685D01*
X78782098Y-61101711D01*
X78716903Y-61098592D01*
X78486127Y-61024721D01*
X78486123Y-61024720D01*
X78481665Y-61023293D01*
X78223693Y-60981279D01*
X78109942Y-60979790D01*
X77967022Y-60977919D01*
X77967019Y-60977919D01*
X77962345Y-60977858D01*
X77703362Y-61013104D01*
X77452433Y-61086243D01*
X77448180Y-61088203D01*
X77448179Y-61088204D01*
X77409160Y-61106192D01*
X77215072Y-61195668D01*
X77176067Y-61221241D01*
X77000404Y-61336410D01*
X77000399Y-61336414D01*
X76996491Y-61338976D01*
X76889731Y-61434263D01*
X76807827Y-61507366D01*
X76801494Y-61513018D01*
X76634363Y-61713970D01*
X76631938Y-61717967D01*
X76631934Y-61717973D01*
X76529577Y-61886653D01*
X76498771Y-61937419D01*
X76397697Y-62178455D01*
X76333359Y-62431783D01*
X76332891Y-62436434D01*
X76332890Y-62436438D01*
X76329229Y-62472794D01*
X76307173Y-62691839D01*
X76307397Y-62696505D01*
X76307397Y-62696511D01*
X76311690Y-62785879D01*
X76319713Y-62952908D01*
X76370704Y-63209256D01*
X76459026Y-63455252D01*
X76461242Y-63459376D01*
X76546741Y-63618498D01*
X76582737Y-63685491D01*
X76585532Y-63689234D01*
X76585534Y-63689237D01*
X76736330Y-63891177D01*
X76736335Y-63891183D01*
X76739122Y-63894915D01*
X76742431Y-63898195D01*
X76742436Y-63898201D01*
X76915354Y-64069616D01*
X76924743Y-64078923D01*
X76928505Y-64081681D01*
X76928508Y-64081684D01*
X77131173Y-64230284D01*
X77135524Y-64233474D01*
X77139667Y-64235654D01*
X77139669Y-64235655D01*
X77362684Y-64352989D01*
X77362689Y-64352991D01*
X77366834Y-64355172D01*
X77613590Y-64441344D01*
X77618183Y-64442216D01*
X77865785Y-64489224D01*
X77865788Y-64489224D01*
X77870374Y-64490095D01*
X78000959Y-64495226D01*
X78126875Y-64500174D01*
X78126881Y-64500174D01*
X78131543Y-64500357D01*
X78210977Y-64491657D01*
X78386707Y-64472412D01*
X78386712Y-64472411D01*
X78391360Y-64471902D01*
X78397753Y-64470219D01*
X78639594Y-64406548D01*
X78639596Y-64406547D01*
X78644117Y-64405357D01*
X78720815Y-64372405D01*
X78879972Y-64304025D01*
X78884262Y-64302182D01*
X79106519Y-64164646D01*
X79110082Y-64161629D01*
X79110087Y-64161626D01*
X79302439Y-63998787D01*
X79302440Y-63998786D01*
X79306005Y-63995768D01*
X79397729Y-63891177D01*
X79475257Y-63802774D01*
X79475261Y-63802769D01*
X79478339Y-63799259D01*
X79619733Y-63579437D01*
X79727083Y-63341129D01*
X79765607Y-63204535D01*
X79796760Y-63094076D01*
X79796761Y-63094073D01*
X79798030Y-63089572D01*
X79827914Y-62854660D01*
X79829137Y-62846965D01*
X79831726Y-62833396D01*
X79842275Y-62778094D01*
X79836848Y-62691839D01*
X80267173Y-62691839D01*
X80267397Y-62696505D01*
X80267397Y-62696511D01*
X80271690Y-62785879D01*
X80279713Y-62952908D01*
X80330704Y-63209256D01*
X80419026Y-63455252D01*
X80421242Y-63459376D01*
X80506741Y-63618498D01*
X80542737Y-63685491D01*
X80545532Y-63689234D01*
X80545534Y-63689237D01*
X80696330Y-63891177D01*
X80696335Y-63891183D01*
X80699122Y-63894915D01*
X80702431Y-63898195D01*
X80702436Y-63898201D01*
X80875354Y-64069616D01*
X80884743Y-64078923D01*
X80888505Y-64081681D01*
X80888508Y-64081684D01*
X81091173Y-64230284D01*
X81095524Y-64233474D01*
X81099667Y-64235654D01*
X81099669Y-64235655D01*
X81322684Y-64352989D01*
X81322689Y-64352991D01*
X81326834Y-64355172D01*
X81573590Y-64441344D01*
X81578183Y-64442216D01*
X81825785Y-64489224D01*
X81825788Y-64489224D01*
X81830374Y-64490095D01*
X81960959Y-64495226D01*
X82086875Y-64500174D01*
X82086881Y-64500174D01*
X82091543Y-64500357D01*
X82170977Y-64491657D01*
X82346707Y-64472412D01*
X82346712Y-64472411D01*
X82351360Y-64471902D01*
X82357753Y-64470219D01*
X82599594Y-64406548D01*
X82599596Y-64406547D01*
X82604117Y-64405357D01*
X82680815Y-64372405D01*
X82839972Y-64304025D01*
X82844262Y-64302182D01*
X83066519Y-64164646D01*
X83070082Y-64161629D01*
X83070087Y-64161626D01*
X83262439Y-63998787D01*
X83262440Y-63998786D01*
X83266005Y-63995768D01*
X83357729Y-63891177D01*
X83435257Y-63802774D01*
X83435261Y-63802769D01*
X83438339Y-63799259D01*
X83579733Y-63579437D01*
X83687083Y-63341129D01*
X83725607Y-63204535D01*
X83756760Y-63094076D01*
X83756761Y-63094073D01*
X83758030Y-63089572D01*
X83774840Y-62957435D01*
X83790616Y-62833421D01*
X83790616Y-62833417D01*
X83791014Y-62830291D01*
X83791098Y-62827108D01*
X83793348Y-62741160D01*
X83793431Y-62738000D01*
X83790001Y-62691839D01*
X84227173Y-62691839D01*
X84227397Y-62696505D01*
X84227397Y-62696511D01*
X84231690Y-62785879D01*
X84239713Y-62952908D01*
X84290704Y-63209256D01*
X84379026Y-63455252D01*
X84381242Y-63459376D01*
X84466741Y-63618498D01*
X84502737Y-63685491D01*
X84505532Y-63689234D01*
X84505534Y-63689237D01*
X84656330Y-63891177D01*
X84656335Y-63891183D01*
X84659122Y-63894915D01*
X84662431Y-63898195D01*
X84662436Y-63898201D01*
X84835354Y-64069616D01*
X84844743Y-64078923D01*
X84848505Y-64081681D01*
X84848508Y-64081684D01*
X85051173Y-64230284D01*
X85055524Y-64233474D01*
X85059667Y-64235654D01*
X85059669Y-64235655D01*
X85282684Y-64352989D01*
X85282689Y-64352991D01*
X85286834Y-64355172D01*
X85533590Y-64441344D01*
X85538183Y-64442216D01*
X85785785Y-64489224D01*
X85785788Y-64489224D01*
X85790374Y-64490095D01*
X85920959Y-64495226D01*
X86046875Y-64500174D01*
X86046881Y-64500174D01*
X86051543Y-64500357D01*
X86130977Y-64491657D01*
X86306707Y-64472412D01*
X86306712Y-64472411D01*
X86311360Y-64471902D01*
X86317753Y-64470219D01*
X86559594Y-64406548D01*
X86559596Y-64406547D01*
X86564117Y-64405357D01*
X86640815Y-64372405D01*
X86799972Y-64304025D01*
X86804262Y-64302182D01*
X87026519Y-64164646D01*
X87030082Y-64161629D01*
X87030087Y-64161626D01*
X87047207Y-64147133D01*
X88905612Y-64147133D01*
X88914325Y-64158653D01*
X89012018Y-64230284D01*
X89019928Y-64235227D01*
X89242890Y-64352533D01*
X89251453Y-64356256D01*
X89489304Y-64439318D01*
X89498313Y-64441732D01*
X89745842Y-64488727D01*
X89755098Y-64489781D01*
X90006857Y-64499673D01*
X90016171Y-64499347D01*
X90266615Y-64471920D01*
X90275792Y-64470219D01*
X90519431Y-64406074D01*
X90528251Y-64403037D01*
X90759736Y-64303583D01*
X90768008Y-64299276D01*
X90982249Y-64166700D01*
X90989188Y-64161658D01*
X90997518Y-64149019D01*
X90991456Y-64138666D01*
X89962812Y-63110022D01*
X89948868Y-63102408D01*
X89947035Y-63102539D01*
X89940420Y-63106790D01*
X88912270Y-64134940D01*
X88905612Y-64147133D01*
X87047207Y-64147133D01*
X87222439Y-63998787D01*
X87222440Y-63998786D01*
X87226005Y-63995768D01*
X87317729Y-63891177D01*
X87395257Y-63802774D01*
X87395261Y-63802769D01*
X87398339Y-63799259D01*
X87539733Y-63579437D01*
X87647083Y-63341129D01*
X87685607Y-63204535D01*
X87716760Y-63094076D01*
X87716761Y-63094073D01*
X87718030Y-63089572D01*
X87734840Y-62957435D01*
X87750616Y-62833421D01*
X87750616Y-62833417D01*
X87751014Y-62830291D01*
X87751098Y-62827108D01*
X87753348Y-62741160D01*
X87753431Y-62738000D01*
X87750349Y-62696523D01*
X88187898Y-62696523D01*
X88199987Y-62948175D01*
X88201124Y-62957435D01*
X88250274Y-63204535D01*
X88252768Y-63213528D01*
X88337900Y-63450639D01*
X88341700Y-63459174D01*
X88460946Y-63681101D01*
X88465957Y-63688968D01*
X88529446Y-63773990D01*
X88540704Y-63782439D01*
X88553123Y-63775667D01*
X89577978Y-62750812D01*
X89584356Y-62739132D01*
X90314408Y-62739132D01*
X90314539Y-62740965D01*
X90318790Y-62747580D01*
X91349913Y-63778703D01*
X91362293Y-63785463D01*
X91370634Y-63779219D01*
X91496765Y-63583127D01*
X91501212Y-63574936D01*
X91604691Y-63345222D01*
X91607882Y-63336455D01*
X91676269Y-63093976D01*
X91678129Y-63084834D01*
X91710116Y-62833396D01*
X91710597Y-62827108D01*
X91712847Y-62741160D01*
X91712696Y-62734851D01*
X91693912Y-62482074D01*
X91692536Y-62472868D01*
X91636929Y-62227126D01*
X91634205Y-62218215D01*
X91542888Y-61983392D01*
X91538877Y-61974983D01*
X91413854Y-61756240D01*
X91408643Y-61748514D01*
X91371391Y-61701261D01*
X91359466Y-61692790D01*
X91347934Y-61699276D01*
X90322022Y-62725188D01*
X90314408Y-62739132D01*
X89584356Y-62739132D01*
X89585592Y-62736868D01*
X89585461Y-62735035D01*
X89581210Y-62728420D01*
X88551321Y-61698531D01*
X88538013Y-61691264D01*
X88527974Y-61698386D01*
X88517761Y-61710666D01*
X88512346Y-61718258D01*
X88381646Y-61933646D01*
X88377408Y-61941963D01*
X88279981Y-62174299D01*
X88277020Y-62183149D01*
X88215006Y-62427331D01*
X88213384Y-62436528D01*
X88188143Y-62687198D01*
X88187898Y-62696523D01*
X87750349Y-62696523D01*
X87745128Y-62626268D01*
X87734407Y-62482000D01*
X87734406Y-62481996D01*
X87734061Y-62477348D01*
X87724825Y-62436528D01*
X87677408Y-62226980D01*
X87676377Y-62222423D01*
X87630199Y-62103676D01*
X87583340Y-61983176D01*
X87583339Y-61983173D01*
X87581647Y-61978823D01*
X87451951Y-61751902D01*
X87290138Y-61546643D01*
X87099763Y-61367557D01*
X87041017Y-61326803D01*
X88903216Y-61326803D01*
X88907789Y-61336579D01*
X89937188Y-62365978D01*
X89951132Y-62373592D01*
X89952965Y-62373461D01*
X89959580Y-62369210D01*
X90988419Y-61340371D01*
X90994803Y-61328681D01*
X90985391Y-61316570D01*
X90848593Y-61221670D01*
X90840565Y-61216942D01*
X90614593Y-61105505D01*
X90605960Y-61102017D01*
X90365998Y-61025205D01*
X90356938Y-61023029D01*
X90108260Y-60982529D01*
X90098973Y-60981717D01*
X89847053Y-60978419D01*
X89837742Y-60978989D01*
X89588097Y-61012964D01*
X89578978Y-61014902D01*
X89337098Y-61085404D01*
X89328367Y-61088667D01*
X89099558Y-61194151D01*
X89091406Y-61198670D01*
X88912353Y-61316062D01*
X88903216Y-61326803D01*
X87041017Y-61326803D01*
X86903333Y-61231288D01*
X86888851Y-61221241D01*
X86888848Y-61221239D01*
X86885009Y-61218576D01*
X86880816Y-61216508D01*
X86654781Y-61105040D01*
X86654778Y-61105039D01*
X86650593Y-61102975D01*
X86645633Y-61101387D01*
X86406123Y-61024720D01*
X86401665Y-61023293D01*
X86143693Y-60981279D01*
X86029942Y-60979790D01*
X85887022Y-60977919D01*
X85887019Y-60977919D01*
X85882345Y-60977858D01*
X85623362Y-61013104D01*
X85372433Y-61086243D01*
X85368180Y-61088203D01*
X85368179Y-61088204D01*
X85329160Y-61106192D01*
X85135072Y-61195668D01*
X85096067Y-61221241D01*
X84920404Y-61336410D01*
X84920399Y-61336414D01*
X84916491Y-61338976D01*
X84809731Y-61434263D01*
X84727827Y-61507366D01*
X84721494Y-61513018D01*
X84554363Y-61713970D01*
X84551938Y-61717967D01*
X84551934Y-61717973D01*
X84449577Y-61886653D01*
X84418771Y-61937419D01*
X84317697Y-62178455D01*
X84253359Y-62431783D01*
X84252891Y-62436434D01*
X84252890Y-62436438D01*
X84249229Y-62472794D01*
X84227173Y-62691839D01*
X83790001Y-62691839D01*
X83785128Y-62626268D01*
X83774407Y-62482000D01*
X83774406Y-62481996D01*
X83774061Y-62477348D01*
X83764825Y-62436528D01*
X83717408Y-62226980D01*
X83716377Y-62222423D01*
X83670199Y-62103676D01*
X83623340Y-61983176D01*
X83623339Y-61983173D01*
X83621647Y-61978823D01*
X83491951Y-61751902D01*
X83330138Y-61546643D01*
X83139763Y-61367557D01*
X82943333Y-61231288D01*
X82928851Y-61221241D01*
X82928848Y-61221239D01*
X82925009Y-61218576D01*
X82920816Y-61216508D01*
X82694781Y-61105040D01*
X82694778Y-61105039D01*
X82690593Y-61102975D01*
X82685633Y-61101387D01*
X82446123Y-61024720D01*
X82441665Y-61023293D01*
X82183693Y-60981279D01*
X82069942Y-60979790D01*
X81927022Y-60977919D01*
X81927019Y-60977919D01*
X81922345Y-60977858D01*
X81663362Y-61013104D01*
X81412433Y-61086243D01*
X81408180Y-61088203D01*
X81408179Y-61088204D01*
X81369160Y-61106192D01*
X81175072Y-61195668D01*
X81136067Y-61221241D01*
X80960404Y-61336410D01*
X80960399Y-61336414D01*
X80956491Y-61338976D01*
X80849731Y-61434263D01*
X80767827Y-61507366D01*
X80761494Y-61513018D01*
X80594363Y-61713970D01*
X80591938Y-61717967D01*
X80591934Y-61717973D01*
X80489577Y-61886653D01*
X80458771Y-61937419D01*
X80357697Y-62178455D01*
X80293359Y-62431783D01*
X80292891Y-62436434D01*
X80292890Y-62436438D01*
X80289229Y-62472794D01*
X80267173Y-62691839D01*
X79836848Y-62691839D01*
X79832225Y-62618350D01*
X79826956Y-62602134D01*
X79821134Y-62572532D01*
X79820679Y-62566400D01*
X79816918Y-62515790D01*
X79814408Y-62482013D01*
X79814407Y-62482008D01*
X79814061Y-62477348D01*
X79802725Y-62427248D01*
X79757408Y-62226980D01*
X79756377Y-62222423D01*
X79709206Y-62101122D01*
X79703159Y-62030383D01*
X79737544Y-61966360D01*
X80275247Y-61428657D01*
X80283537Y-61421113D01*
X80290018Y-61417000D01*
X80336659Y-61367332D01*
X80339413Y-61364491D01*
X80359134Y-61344770D01*
X80361612Y-61341575D01*
X80369318Y-61332553D01*
X80394158Y-61306101D01*
X80399586Y-61300321D01*
X80409346Y-61282568D01*
X80420199Y-61266045D01*
X80427753Y-61256306D01*
X80432613Y-61250041D01*
X80450176Y-61209457D01*
X80455383Y-61198827D01*
X80476695Y-61160060D01*
X80478666Y-61152383D01*
X80478668Y-61152378D01*
X80481732Y-61140442D01*
X80488138Y-61121730D01*
X80491492Y-61113981D01*
X80496181Y-61103145D01*
X80497421Y-61095317D01*
X80497423Y-61095310D01*
X80503099Y-61059476D01*
X80505505Y-61047856D01*
X80514528Y-61012711D01*
X80514528Y-61012710D01*
X80516500Y-61005030D01*
X80516500Y-60984776D01*
X80518051Y-60965065D01*
X80519980Y-60952886D01*
X80521220Y-60945057D01*
X80517059Y-60901038D01*
X80516500Y-60889181D01*
X80516500Y-58936203D01*
X80536502Y-58868082D01*
X80590158Y-58821589D01*
X80660432Y-58811485D01*
X80725012Y-58840979D01*
X80731203Y-58846717D01*
X80781158Y-58896238D01*
X80870992Y-58985291D01*
X80884743Y-58998923D01*
X80888505Y-59001681D01*
X80888508Y-59001684D01*
X81043281Y-59115168D01*
X81095524Y-59153474D01*
X81099667Y-59155654D01*
X81099669Y-59155655D01*
X81322684Y-59272989D01*
X81322689Y-59272991D01*
X81326834Y-59275172D01*
X81573590Y-59361344D01*
X81578183Y-59362216D01*
X81825785Y-59409224D01*
X81825788Y-59409224D01*
X81830374Y-59410095D01*
X81960958Y-59415226D01*
X82086875Y-59420174D01*
X82086881Y-59420174D01*
X82091543Y-59420357D01*
X82170977Y-59411657D01*
X82346707Y-59392412D01*
X82346712Y-59392411D01*
X82351360Y-59391902D01*
X82395029Y-59380405D01*
X82599594Y-59326548D01*
X82599596Y-59326547D01*
X82604117Y-59325357D01*
X82844262Y-59222182D01*
X82926258Y-59171442D01*
X83062547Y-59087104D01*
X83062548Y-59087104D01*
X83066519Y-59084646D01*
X83070082Y-59081629D01*
X83070087Y-59081626D01*
X83262439Y-58918787D01*
X83262440Y-58918786D01*
X83266005Y-58915768D01*
X83372680Y-58794129D01*
X83435257Y-58722774D01*
X83435261Y-58722769D01*
X83438339Y-58719259D01*
X83579733Y-58499437D01*
X83687083Y-58261129D01*
X83725607Y-58124535D01*
X83756760Y-58014076D01*
X83756761Y-58014073D01*
X83758030Y-58009572D01*
X83774840Y-57877435D01*
X83790616Y-57753421D01*
X83790616Y-57753417D01*
X83791014Y-57750291D01*
X83791098Y-57747108D01*
X83793348Y-57661160D01*
X83793431Y-57658000D01*
X83774061Y-57397348D01*
X83764825Y-57356528D01*
X83717408Y-57146980D01*
X83716377Y-57142423D01*
X83669206Y-57021122D01*
X83663159Y-56950385D01*
X83697544Y-56886360D01*
X83989668Y-56594237D01*
X84287501Y-56296404D01*
X84349813Y-56262379D01*
X84376596Y-56259500D01*
X84597131Y-56259500D01*
X84665252Y-56279502D01*
X84711745Y-56333158D01*
X84721849Y-56403432D01*
X84694005Y-56466069D01*
X84554363Y-56633970D01*
X84418771Y-56857419D01*
X84317697Y-57098455D01*
X84253359Y-57351783D01*
X84227173Y-57611839D01*
X84227397Y-57616505D01*
X84227397Y-57616511D01*
X84233443Y-57742374D01*
X84239713Y-57872908D01*
X84290704Y-58129256D01*
X84379026Y-58375252D01*
X84381242Y-58379376D01*
X84445753Y-58499437D01*
X84502737Y-58605491D01*
X84505532Y-58609234D01*
X84505534Y-58609237D01*
X84656330Y-58811177D01*
X84656335Y-58811183D01*
X84659122Y-58814915D01*
X84662431Y-58818195D01*
X84662436Y-58818201D01*
X84831077Y-58985376D01*
X84844743Y-58998923D01*
X84848505Y-59001681D01*
X84848508Y-59001684D01*
X85003281Y-59115168D01*
X85055524Y-59153474D01*
X85059667Y-59155654D01*
X85059669Y-59155655D01*
X85282684Y-59272989D01*
X85282689Y-59272991D01*
X85286834Y-59275172D01*
X85533590Y-59361344D01*
X85538183Y-59362216D01*
X85785785Y-59409224D01*
X85785788Y-59409224D01*
X85790374Y-59410095D01*
X85920958Y-59415226D01*
X86046875Y-59420174D01*
X86046881Y-59420174D01*
X86051543Y-59420357D01*
X86130977Y-59411657D01*
X86306707Y-59392412D01*
X86306712Y-59392411D01*
X86311360Y-59391902D01*
X86355029Y-59380405D01*
X86559594Y-59326548D01*
X86559596Y-59326547D01*
X86564117Y-59325357D01*
X86804262Y-59222182D01*
X86886258Y-59171442D01*
X87022547Y-59087104D01*
X87022548Y-59087104D01*
X87026519Y-59084646D01*
X87030082Y-59081629D01*
X87030087Y-59081626D01*
X87047207Y-59067133D01*
X88905612Y-59067133D01*
X88914325Y-59078653D01*
X89012018Y-59150284D01*
X89019928Y-59155227D01*
X89242890Y-59272533D01*
X89251453Y-59276256D01*
X89489304Y-59359318D01*
X89498313Y-59361732D01*
X89745842Y-59408727D01*
X89755098Y-59409781D01*
X90006857Y-59419673D01*
X90016171Y-59419347D01*
X90266615Y-59391920D01*
X90275792Y-59390219D01*
X90519431Y-59326074D01*
X90528251Y-59323037D01*
X90759736Y-59223583D01*
X90768008Y-59219276D01*
X90982249Y-59086700D01*
X90989188Y-59081658D01*
X90997518Y-59069019D01*
X90991456Y-59058666D01*
X89962812Y-58030022D01*
X89948868Y-58022408D01*
X89947035Y-58022539D01*
X89940420Y-58026790D01*
X88912270Y-59054940D01*
X88905612Y-59067133D01*
X87047207Y-59067133D01*
X87222439Y-58918787D01*
X87222440Y-58918786D01*
X87226005Y-58915768D01*
X87332680Y-58794129D01*
X87395257Y-58722774D01*
X87395261Y-58722769D01*
X87398339Y-58719259D01*
X87539733Y-58499437D01*
X87647083Y-58261129D01*
X87685607Y-58124535D01*
X87716760Y-58014076D01*
X87716761Y-58014073D01*
X87718030Y-58009572D01*
X87734840Y-57877435D01*
X87750616Y-57753421D01*
X87750616Y-57753417D01*
X87751014Y-57750291D01*
X87751098Y-57747108D01*
X87753348Y-57661160D01*
X87753431Y-57658000D01*
X87750349Y-57616523D01*
X88187898Y-57616523D01*
X88199987Y-57868175D01*
X88201124Y-57877435D01*
X88250274Y-58124535D01*
X88252768Y-58133528D01*
X88337900Y-58370639D01*
X88341700Y-58379174D01*
X88460946Y-58601101D01*
X88465957Y-58608968D01*
X88529446Y-58693990D01*
X88540704Y-58702439D01*
X88553123Y-58695667D01*
X89577978Y-57670812D01*
X89584356Y-57659132D01*
X90314408Y-57659132D01*
X90314539Y-57660965D01*
X90318790Y-57667580D01*
X91349913Y-58698703D01*
X91362293Y-58705463D01*
X91370634Y-58699219D01*
X91496765Y-58503127D01*
X91501212Y-58494936D01*
X91604691Y-58265222D01*
X91607882Y-58256455D01*
X91676269Y-58013976D01*
X91678129Y-58004834D01*
X91710116Y-57753396D01*
X91710597Y-57747108D01*
X91712847Y-57661160D01*
X91712696Y-57654851D01*
X91693912Y-57402074D01*
X91692536Y-57392868D01*
X91636929Y-57147126D01*
X91634205Y-57138215D01*
X91542888Y-56903392D01*
X91538877Y-56894983D01*
X91413854Y-56676240D01*
X91408643Y-56668514D01*
X91371391Y-56621261D01*
X91359466Y-56612790D01*
X91347934Y-56619276D01*
X90322022Y-57645188D01*
X90314408Y-57659132D01*
X89584356Y-57659132D01*
X89585592Y-57656868D01*
X89585461Y-57655035D01*
X89581210Y-57648420D01*
X88551321Y-56618531D01*
X88538013Y-56611264D01*
X88527974Y-56618386D01*
X88517761Y-56630666D01*
X88512346Y-56638258D01*
X88381646Y-56853646D01*
X88377408Y-56861963D01*
X88279981Y-57094299D01*
X88277020Y-57103149D01*
X88215006Y-57347331D01*
X88213384Y-57356528D01*
X88188143Y-57607198D01*
X88187898Y-57616523D01*
X87750349Y-57616523D01*
X87734061Y-57397348D01*
X87724825Y-57356528D01*
X87677408Y-57146980D01*
X87676377Y-57142423D01*
X87630199Y-57023676D01*
X87583340Y-56903176D01*
X87583339Y-56903173D01*
X87581647Y-56898823D01*
X87451951Y-56671902D01*
X87290138Y-56466643D01*
X87099763Y-56287557D01*
X87041017Y-56246803D01*
X88903216Y-56246803D01*
X88907789Y-56256579D01*
X89937188Y-57285978D01*
X89951132Y-57293592D01*
X89952965Y-57293461D01*
X89959580Y-57289210D01*
X90988419Y-56260371D01*
X90994803Y-56248681D01*
X90985391Y-56236570D01*
X90848593Y-56141670D01*
X90840565Y-56136942D01*
X90614593Y-56025505D01*
X90605960Y-56022017D01*
X90365998Y-55945205D01*
X90356938Y-55943029D01*
X90108260Y-55902529D01*
X90098973Y-55901717D01*
X89847053Y-55898419D01*
X89837742Y-55898989D01*
X89588097Y-55932964D01*
X89578978Y-55934902D01*
X89337098Y-56005404D01*
X89328367Y-56008667D01*
X89099558Y-56114151D01*
X89091406Y-56118670D01*
X88912353Y-56236062D01*
X88903216Y-56246803D01*
X87041017Y-56246803D01*
X86900240Y-56149142D01*
X86888851Y-56141241D01*
X86888848Y-56141239D01*
X86885009Y-56138576D01*
X86844644Y-56118670D01*
X86654781Y-56025040D01*
X86654778Y-56025039D01*
X86650593Y-56022975D01*
X86636901Y-56018592D01*
X86406123Y-55944720D01*
X86401665Y-55943293D01*
X86143693Y-55901279D01*
X86069292Y-55900305D01*
X85889483Y-55897951D01*
X85821630Y-55877059D01*
X85775843Y-55822799D01*
X85766660Y-55752399D01*
X85796996Y-55688210D01*
X85802037Y-55682867D01*
X87113093Y-54371811D01*
X87175405Y-54337785D01*
X87205790Y-54335481D01*
X87208906Y-54336075D01*
X87216822Y-54335577D01*
X87264951Y-54332549D01*
X87272862Y-54332300D01*
X87288856Y-54332300D01*
X87304730Y-54330294D01*
X87312590Y-54329552D01*
X87340049Y-54327824D01*
X87360737Y-54326523D01*
X87360738Y-54326523D01*
X87368650Y-54326025D01*
X87376191Y-54323575D01*
X87376487Y-54323479D01*
X87399631Y-54318306D01*
X87399935Y-54318268D01*
X87399940Y-54318267D01*
X87407797Y-54317274D01*
X87415162Y-54314358D01*
X87415166Y-54314357D01*
X87460011Y-54296601D01*
X87467430Y-54293929D01*
X87520875Y-54276564D01*
X87527572Y-54272314D01*
X87527831Y-54272150D01*
X87548958Y-54261385D01*
X87549246Y-54261271D01*
X87549251Y-54261268D01*
X87556617Y-54258352D01*
X87563025Y-54253696D01*
X87563031Y-54253693D01*
X87602052Y-54225342D01*
X87608589Y-54220899D01*
X87656018Y-54190800D01*
X87661659Y-54184793D01*
X87679446Y-54169112D01*
X87679691Y-54168934D01*
X87679693Y-54168932D01*
X87686107Y-54164272D01*
X87709910Y-54135500D01*
X87721903Y-54121004D01*
X87727134Y-54115070D01*
X87760158Y-54079902D01*
X87760160Y-54079899D01*
X87765586Y-54074121D01*
X87769558Y-54066897D01*
X87782881Y-54047294D01*
X87783080Y-54047054D01*
X87783084Y-54047047D01*
X87788133Y-54040944D01*
X87812047Y-53990124D01*
X87815629Y-53983092D01*
X87842695Y-53933860D01*
X87844665Y-53926185D01*
X87844668Y-53926179D01*
X87844744Y-53925881D01*
X87852776Y-53903572D01*
X87852906Y-53903297D01*
X87852909Y-53903289D01*
X87856283Y-53896118D01*
X87866806Y-53840951D01*
X87868532Y-53833229D01*
X87880529Y-53786507D01*
X87880529Y-53786506D01*
X87882500Y-53778830D01*
X87882500Y-53770593D01*
X87884732Y-53746984D01*
X87884790Y-53746681D01*
X87884790Y-53746677D01*
X87886275Y-53738894D01*
X87882749Y-53682849D01*
X87882500Y-53674938D01*
X87882500Y-53306362D01*
X91079609Y-53306362D01*
X91079906Y-53311514D01*
X91079906Y-53311518D01*
X91085618Y-53410578D01*
X91092597Y-53531614D01*
X91093734Y-53536660D01*
X91093735Y-53536666D01*
X91114984Y-53630952D01*
X91142200Y-53751720D01*
X91144142Y-53756502D01*
X91144143Y-53756506D01*
X91225142Y-53955982D01*
X91227086Y-53960769D01*
X91229785Y-53965173D01*
X91337517Y-54140976D01*
X91344975Y-54153147D01*
X91492702Y-54323687D01*
X91666299Y-54467810D01*
X91670751Y-54470412D01*
X91670756Y-54470415D01*
X91760091Y-54522618D01*
X91861103Y-54581645D01*
X92071884Y-54662134D01*
X92076952Y-54663165D01*
X92076955Y-54663166D01*
X92185404Y-54685230D01*
X92292981Y-54707117D01*
X92298156Y-54707307D01*
X92298158Y-54707307D01*
X92513292Y-54715196D01*
X92513296Y-54715196D01*
X92518456Y-54715385D01*
X92523576Y-54714729D01*
X92523578Y-54714729D01*
X92594879Y-54705595D01*
X92742253Y-54686716D01*
X92747202Y-54685231D01*
X92747208Y-54685230D01*
X92953413Y-54623365D01*
X92953412Y-54623365D01*
X92958363Y-54621880D01*
X93100653Y-54552173D01*
X93156331Y-54524897D01*
X93156336Y-54524894D01*
X93160982Y-54522618D01*
X93165192Y-54519615D01*
X93165197Y-54519612D01*
X93340455Y-54394601D01*
X93340459Y-54394597D01*
X93344667Y-54391596D01*
X93504487Y-54232333D01*
X93625370Y-54064107D01*
X93681364Y-54020459D01*
X93752068Y-54014013D01*
X93815032Y-54046816D01*
X93835125Y-54071799D01*
X93882275Y-54148743D01*
X93882279Y-54148748D01*
X93884975Y-54153147D01*
X94032702Y-54323687D01*
X94206299Y-54467810D01*
X94210751Y-54470412D01*
X94210756Y-54470415D01*
X94300091Y-54522618D01*
X94401103Y-54581645D01*
X94611884Y-54662134D01*
X94616952Y-54663165D01*
X94616955Y-54663166D01*
X94725404Y-54685230D01*
X94832981Y-54707117D01*
X94838156Y-54707307D01*
X94838158Y-54707307D01*
X95053292Y-54715196D01*
X95053296Y-54715196D01*
X95058456Y-54715385D01*
X95063576Y-54714729D01*
X95063578Y-54714729D01*
X95134879Y-54705595D01*
X95282253Y-54686716D01*
X95287202Y-54685231D01*
X95287208Y-54685230D01*
X95493413Y-54623365D01*
X95493412Y-54623365D01*
X95498363Y-54621880D01*
X95640653Y-54552173D01*
X95696331Y-54524897D01*
X95696336Y-54524894D01*
X95700982Y-54522618D01*
X95705192Y-54519615D01*
X95705197Y-54519612D01*
X95880455Y-54394601D01*
X95880459Y-54394597D01*
X95884667Y-54391596D01*
X96044487Y-54232333D01*
X96176150Y-54049105D01*
X96276118Y-53846835D01*
X96341708Y-53630952D01*
X96355467Y-53526445D01*
X96370721Y-53410578D01*
X96370722Y-53410572D01*
X96371158Y-53407256D01*
X96372802Y-53340000D01*
X96354315Y-53115132D01*
X96299349Y-52896304D01*
X96209380Y-52689391D01*
X96161282Y-52615043D01*
X96089634Y-52504291D01*
X96089632Y-52504288D01*
X96086826Y-52499951D01*
X95934977Y-52333071D01*
X95930926Y-52329872D01*
X95930922Y-52329868D01*
X95761966Y-52196434D01*
X95761962Y-52196432D01*
X95757911Y-52193232D01*
X95734535Y-52180328D01*
X95684564Y-52129896D01*
X95669792Y-52060453D01*
X95694908Y-51994047D01*
X95722259Y-51967441D01*
X95880455Y-51854601D01*
X95880459Y-51854597D01*
X95884667Y-51851596D01*
X96044487Y-51692333D01*
X96176150Y-51509105D01*
X96276118Y-51306835D01*
X96341708Y-51090952D01*
X96371158Y-50867256D01*
X96372802Y-50800000D01*
X96354315Y-50575132D01*
X96299349Y-50356304D01*
X96209380Y-50149391D01*
X96161282Y-50075043D01*
X96089634Y-49964291D01*
X96089632Y-49964288D01*
X96086826Y-49959951D01*
X95934977Y-49793071D01*
X95930926Y-49789872D01*
X95930922Y-49789868D01*
X95761966Y-49656434D01*
X95761962Y-49656432D01*
X95757911Y-49653232D01*
X95734535Y-49640328D01*
X95684564Y-49589896D01*
X95669792Y-49520453D01*
X95694908Y-49454047D01*
X95722259Y-49427441D01*
X95880455Y-49314601D01*
X95880459Y-49314597D01*
X95884667Y-49311596D01*
X96044487Y-49152333D01*
X96176150Y-48969105D01*
X96276118Y-48766835D01*
X96341708Y-48550952D01*
X96371158Y-48327256D01*
X96372802Y-48260000D01*
X96354315Y-48035132D01*
X96299349Y-47816304D01*
X96209380Y-47609391D01*
X96161282Y-47535043D01*
X96089634Y-47424291D01*
X96089632Y-47424288D01*
X96086826Y-47419951D01*
X95934977Y-47253071D01*
X95930926Y-47249872D01*
X95930922Y-47249868D01*
X95761966Y-47116434D01*
X95761962Y-47116432D01*
X95757911Y-47113232D01*
X95560383Y-47004191D01*
X95347698Y-46928876D01*
X95264557Y-46914066D01*
X95130657Y-46890214D01*
X95130653Y-46890214D01*
X95125569Y-46889308D01*
X95053574Y-46888429D01*
X94905129Y-46886615D01*
X94905127Y-46886615D01*
X94899959Y-46886552D01*
X94676929Y-46920680D01*
X94462468Y-46990777D01*
X94262335Y-47094960D01*
X94258202Y-47098063D01*
X94258199Y-47098065D01*
X94105097Y-47213017D01*
X94081905Y-47230430D01*
X93926024Y-47393550D01*
X93923112Y-47397819D01*
X93923106Y-47397827D01*
X93829503Y-47535043D01*
X93774592Y-47580046D01*
X93704067Y-47588217D01*
X93640320Y-47556963D01*
X93619623Y-47532479D01*
X93597642Y-47498500D01*
X93556581Y-47435030D01*
X93549634Y-47424291D01*
X93549632Y-47424288D01*
X93546826Y-47419951D01*
X93394977Y-47253071D01*
X93390926Y-47249872D01*
X93390922Y-47249868D01*
X93221966Y-47116434D01*
X93221962Y-47116432D01*
X93217911Y-47113232D01*
X93020383Y-47004191D01*
X92807698Y-46928876D01*
X92724557Y-46914066D01*
X92590657Y-46890214D01*
X92590653Y-46890214D01*
X92585569Y-46889308D01*
X92513574Y-46888429D01*
X92365129Y-46886615D01*
X92365127Y-46886615D01*
X92359959Y-46886552D01*
X92136929Y-46920680D01*
X91922468Y-46990777D01*
X91722335Y-47094960D01*
X91718202Y-47098063D01*
X91718199Y-47098065D01*
X91565097Y-47213017D01*
X91541905Y-47230430D01*
X91386024Y-47393550D01*
X91258878Y-47579940D01*
X91256704Y-47584624D01*
X91256702Y-47584627D01*
X91185402Y-47738231D01*
X91163881Y-47784593D01*
X91103585Y-48002013D01*
X91079609Y-48226362D01*
X91079906Y-48231514D01*
X91079906Y-48231518D01*
X91085618Y-48330578D01*
X91092597Y-48451614D01*
X91093734Y-48456660D01*
X91093735Y-48456666D01*
X91114984Y-48550952D01*
X91142200Y-48671720D01*
X91144142Y-48676502D01*
X91144143Y-48676506D01*
X91180822Y-48766835D01*
X91227086Y-48880769D01*
X91344975Y-49073147D01*
X91492702Y-49243687D01*
X91666299Y-49387810D01*
X91670751Y-49390412D01*
X91670756Y-49390415D01*
X91720069Y-49419231D01*
X91768792Y-49470870D01*
X91781863Y-49540653D01*
X91755131Y-49606425D01*
X91724595Y-49633783D01*
X91722335Y-49634960D01*
X91541905Y-49770430D01*
X91386024Y-49933550D01*
X91258878Y-50119940D01*
X91256704Y-50124624D01*
X91256702Y-50124627D01*
X91185402Y-50278231D01*
X91163881Y-50324593D01*
X91103585Y-50542013D01*
X91079609Y-50766362D01*
X91079906Y-50771514D01*
X91079906Y-50771518D01*
X91085618Y-50870578D01*
X91092597Y-50991614D01*
X91093734Y-50996660D01*
X91093735Y-50996666D01*
X91114984Y-51090952D01*
X91142200Y-51211720D01*
X91144142Y-51216502D01*
X91144143Y-51216506D01*
X91180822Y-51306835D01*
X91227086Y-51420769D01*
X91344975Y-51613147D01*
X91492702Y-51783687D01*
X91666299Y-51927810D01*
X91670751Y-51930412D01*
X91670756Y-51930415D01*
X91720069Y-51959231D01*
X91768792Y-52010870D01*
X91781863Y-52080653D01*
X91755131Y-52146425D01*
X91724595Y-52173783D01*
X91722335Y-52174960D01*
X91541905Y-52310430D01*
X91386024Y-52473550D01*
X91258878Y-52659940D01*
X91256704Y-52664624D01*
X91256702Y-52664627D01*
X91167221Y-52857398D01*
X91163881Y-52864593D01*
X91103585Y-53082013D01*
X91079609Y-53306362D01*
X87882500Y-53306362D01*
X87882500Y-29236217D01*
X87902502Y-29168096D01*
X87945991Y-29129376D01*
X87944897Y-29127541D01*
X87949342Y-29124891D01*
X87953982Y-29122618D01*
X88027159Y-29070421D01*
X88133455Y-28994601D01*
X88133459Y-28994597D01*
X88137667Y-28991596D01*
X88297487Y-28832333D01*
X88418370Y-28664107D01*
X88474364Y-28620459D01*
X88545068Y-28614013D01*
X88608032Y-28646816D01*
X88628125Y-28671799D01*
X88675275Y-28748743D01*
X88675279Y-28748748D01*
X88677975Y-28753147D01*
X88825702Y-28923687D01*
X88999299Y-29067810D01*
X89003751Y-29070412D01*
X89003756Y-29070415D01*
X89139107Y-29149508D01*
X89194103Y-29181645D01*
X89404884Y-29262134D01*
X89409952Y-29263165D01*
X89409955Y-29263166D01*
X89458021Y-29272945D01*
X89625981Y-29307117D01*
X89631156Y-29307307D01*
X89631158Y-29307307D01*
X89846292Y-29315196D01*
X89846296Y-29315196D01*
X89851456Y-29315385D01*
X89856576Y-29314729D01*
X89856578Y-29314729D01*
X89925985Y-29305838D01*
X90075253Y-29286716D01*
X90080202Y-29285231D01*
X90080208Y-29285230D01*
X90286413Y-29223365D01*
X90286412Y-29223365D01*
X90291363Y-29221880D01*
X90408964Y-29164268D01*
X90489331Y-29124897D01*
X90489336Y-29124894D01*
X90493982Y-29122618D01*
X90498192Y-29119615D01*
X90498197Y-29119612D01*
X90673455Y-28994601D01*
X90673459Y-28994597D01*
X90677667Y-28991596D01*
X90837487Y-28832333D01*
X90958370Y-28664107D01*
X91014364Y-28620459D01*
X91085068Y-28614013D01*
X91148032Y-28646816D01*
X91168125Y-28671799D01*
X91215275Y-28748743D01*
X91215279Y-28748748D01*
X91217975Y-28753147D01*
X91365702Y-28923687D01*
X91539299Y-29067810D01*
X91543751Y-29070412D01*
X91543756Y-29070415D01*
X91679107Y-29149508D01*
X91734103Y-29181645D01*
X91944884Y-29262134D01*
X91949952Y-29263165D01*
X91949955Y-29263166D01*
X91998021Y-29272945D01*
X92165981Y-29307117D01*
X92171156Y-29307307D01*
X92171158Y-29307307D01*
X92386292Y-29315196D01*
X92386296Y-29315196D01*
X92391456Y-29315385D01*
X92396576Y-29314729D01*
X92396578Y-29314729D01*
X92465985Y-29305838D01*
X92615253Y-29286716D01*
X92620202Y-29285231D01*
X92620208Y-29285230D01*
X92826413Y-29223365D01*
X92826412Y-29223365D01*
X92831363Y-29221880D01*
X92948964Y-29164268D01*
X93029331Y-29124897D01*
X93029336Y-29124894D01*
X93033982Y-29122618D01*
X93038192Y-29119615D01*
X93038197Y-29119612D01*
X93213455Y-28994601D01*
X93213459Y-28994597D01*
X93217667Y-28991596D01*
X93377487Y-28832333D01*
X93509150Y-28649105D01*
X93609118Y-28446835D01*
X93674708Y-28230952D01*
X93704158Y-28007256D01*
X93705802Y-27940000D01*
X93687315Y-27715132D01*
X93632349Y-27496304D01*
X93542380Y-27289391D01*
X93492913Y-27212926D01*
X93422634Y-27104291D01*
X93422632Y-27104288D01*
X93419826Y-27099951D01*
X93267977Y-26933071D01*
X93263926Y-26929872D01*
X93263922Y-26929868D01*
X93094966Y-26796434D01*
X93094962Y-26796432D01*
X93090911Y-26793232D01*
X93066603Y-26779813D01*
X92977257Y-26730492D01*
X92893383Y-26684191D01*
X92680698Y-26608876D01*
X92651795Y-26603727D01*
X92463657Y-26570214D01*
X92463653Y-26570214D01*
X92458569Y-26569308D01*
X92386574Y-26568429D01*
X92238129Y-26566615D01*
X92238127Y-26566615D01*
X92232959Y-26566552D01*
X92009929Y-26600680D01*
X91795468Y-26670777D01*
X91595335Y-26774960D01*
X91591202Y-26778063D01*
X91591199Y-26778065D01*
X91445462Y-26887487D01*
X91414905Y-26910430D01*
X91259024Y-27073550D01*
X91256112Y-27077819D01*
X91256106Y-27077827D01*
X91162503Y-27215043D01*
X91107592Y-27260046D01*
X91037067Y-27268217D01*
X90973320Y-27236963D01*
X90952623Y-27212479D01*
X90936023Y-27186818D01*
X90902260Y-27134628D01*
X90882634Y-27104291D01*
X90882632Y-27104288D01*
X90879826Y-27099951D01*
X90727977Y-26933071D01*
X90723926Y-26929872D01*
X90723922Y-26929868D01*
X90554966Y-26796434D01*
X90554962Y-26796432D01*
X90550911Y-26793232D01*
X90526603Y-26779813D01*
X90437257Y-26730492D01*
X90353383Y-26684191D01*
X90140698Y-26608876D01*
X90111795Y-26603727D01*
X89923657Y-26570214D01*
X89923653Y-26570214D01*
X89918569Y-26569308D01*
X89846574Y-26568429D01*
X89698129Y-26566615D01*
X89698127Y-26566615D01*
X89692959Y-26566552D01*
X89469929Y-26600680D01*
X89255468Y-26670777D01*
X89055335Y-26774960D01*
X89051202Y-26778063D01*
X89051199Y-26778065D01*
X88905462Y-26887487D01*
X88874905Y-26910430D01*
X88719024Y-27073550D01*
X88716112Y-27077819D01*
X88716106Y-27077827D01*
X88622503Y-27215043D01*
X88567592Y-27260046D01*
X88497067Y-27268217D01*
X88433320Y-27236963D01*
X88412623Y-27212479D01*
X88396023Y-27186818D01*
X88362260Y-27134628D01*
X88342634Y-27104291D01*
X88342632Y-27104288D01*
X88339826Y-27099951D01*
X88187977Y-26933071D01*
X88183926Y-26929872D01*
X88183922Y-26929868D01*
X88014966Y-26796434D01*
X88014962Y-26796432D01*
X88010911Y-26793232D01*
X87986603Y-26779813D01*
X87897257Y-26730492D01*
X87813383Y-26684191D01*
X87600698Y-26608876D01*
X87571795Y-26603727D01*
X87383657Y-26570214D01*
X87383653Y-26570214D01*
X87378569Y-26569308D01*
X87306574Y-26568429D01*
X87158129Y-26566615D01*
X87158127Y-26566615D01*
X87152959Y-26566552D01*
X86929929Y-26600680D01*
X86715468Y-26670777D01*
X86515335Y-26774960D01*
X86511202Y-26778063D01*
X86511199Y-26778065D01*
X86365462Y-26887487D01*
X86334905Y-26910430D01*
X86179024Y-27073550D01*
X86176112Y-27077819D01*
X86176106Y-27077827D01*
X86082503Y-27215043D01*
X86027592Y-27260046D01*
X85957067Y-27268217D01*
X85893320Y-27236963D01*
X85872623Y-27212479D01*
X85856023Y-27186818D01*
X85822260Y-27134628D01*
X85802634Y-27104291D01*
X85802632Y-27104288D01*
X85799826Y-27099951D01*
X85647977Y-26933071D01*
X85643926Y-26929872D01*
X85643922Y-26929868D01*
X85474966Y-26796434D01*
X85474962Y-26796432D01*
X85470911Y-26793232D01*
X85446603Y-26779813D01*
X85357257Y-26730492D01*
X85273383Y-26684191D01*
X85060698Y-26608876D01*
X85031795Y-26603727D01*
X84843657Y-26570214D01*
X84843653Y-26570214D01*
X84838569Y-26569308D01*
X84766574Y-26568429D01*
X84618129Y-26566615D01*
X84618127Y-26566615D01*
X84612959Y-26566552D01*
X84389929Y-26600680D01*
X84175468Y-26670777D01*
X83975335Y-26774960D01*
X83971202Y-26778063D01*
X83971199Y-26778065D01*
X83825462Y-26887487D01*
X83794905Y-26910430D01*
X83639024Y-27073550D01*
X83636112Y-27077819D01*
X83636106Y-27077827D01*
X83542503Y-27215043D01*
X83487592Y-27260046D01*
X83417067Y-27268217D01*
X83353320Y-27236963D01*
X83332623Y-27212479D01*
X83316023Y-27186818D01*
X83282260Y-27134628D01*
X83262634Y-27104291D01*
X83262632Y-27104288D01*
X83259826Y-27099951D01*
X83107977Y-26933071D01*
X83103926Y-26929872D01*
X83103922Y-26929868D01*
X82934966Y-26796434D01*
X82934962Y-26796432D01*
X82930911Y-26793232D01*
X82906603Y-26779813D01*
X82817257Y-26730492D01*
X82733383Y-26684191D01*
X82520698Y-26608876D01*
X82491795Y-26603727D01*
X82303657Y-26570214D01*
X82303653Y-26570214D01*
X82298569Y-26569308D01*
X82226574Y-26568429D01*
X82078129Y-26566615D01*
X82078127Y-26566615D01*
X82072959Y-26566552D01*
X81849929Y-26600680D01*
X81635468Y-26670777D01*
X81435335Y-26774960D01*
X81431202Y-26778063D01*
X81431199Y-26778065D01*
X81285462Y-26887487D01*
X81254905Y-26910430D01*
X81099024Y-27073550D01*
X81096112Y-27077819D01*
X81096106Y-27077827D01*
X81002503Y-27215043D01*
X80947592Y-27260046D01*
X80877067Y-27268217D01*
X80813320Y-27236963D01*
X80792623Y-27212479D01*
X80776023Y-27186818D01*
X80742260Y-27134628D01*
X80722634Y-27104291D01*
X80722632Y-27104288D01*
X80719826Y-27099951D01*
X80567977Y-26933071D01*
X80563926Y-26929872D01*
X80563922Y-26929868D01*
X80394966Y-26796434D01*
X80394962Y-26796432D01*
X80390911Y-26793232D01*
X80366603Y-26779813D01*
X80277257Y-26730492D01*
X80193383Y-26684191D01*
X79980698Y-26608876D01*
X79951795Y-26603727D01*
X79763657Y-26570214D01*
X79763653Y-26570214D01*
X79758569Y-26569308D01*
X79686574Y-26568429D01*
X79538129Y-26566615D01*
X79538127Y-26566615D01*
X79532959Y-26566552D01*
X79309929Y-26600680D01*
X79095468Y-26670777D01*
X78895335Y-26774960D01*
X78891202Y-26778063D01*
X78891199Y-26778065D01*
X78745462Y-26887487D01*
X78714905Y-26910430D01*
X78559024Y-27073550D01*
X78556112Y-27077819D01*
X78556106Y-27077827D01*
X78462503Y-27215043D01*
X78407592Y-27260046D01*
X78337067Y-27268217D01*
X78273320Y-27236963D01*
X78252623Y-27212479D01*
X78236023Y-27186818D01*
X78202260Y-27134628D01*
X78182634Y-27104291D01*
X78182632Y-27104288D01*
X78179826Y-27099951D01*
X78027977Y-26933071D01*
X78023926Y-26929872D01*
X78023922Y-26929868D01*
X77854966Y-26796434D01*
X77854962Y-26796432D01*
X77850911Y-26793232D01*
X77826603Y-26779813D01*
X77737257Y-26730492D01*
X77653383Y-26684191D01*
X77440698Y-26608876D01*
X77411795Y-26603727D01*
X77223657Y-26570214D01*
X77223653Y-26570214D01*
X77218569Y-26569308D01*
X77146574Y-26568429D01*
X76998129Y-26566615D01*
X76998127Y-26566615D01*
X76992959Y-26566552D01*
X76769929Y-26600680D01*
X76555468Y-26670777D01*
X76355335Y-26774960D01*
X76351202Y-26778063D01*
X76351199Y-26778065D01*
X76205462Y-26887487D01*
X76174905Y-26910430D01*
X76019024Y-27073550D01*
X76016112Y-27077819D01*
X76016106Y-27077827D01*
X75922503Y-27215043D01*
X75867592Y-27260046D01*
X75797067Y-27268217D01*
X75733320Y-27236963D01*
X75712623Y-27212479D01*
X75696023Y-27186818D01*
X75662260Y-27134628D01*
X75642634Y-27104291D01*
X75642632Y-27104288D01*
X75639826Y-27099951D01*
X75487977Y-26933071D01*
X75483926Y-26929872D01*
X75483922Y-26929868D01*
X75314966Y-26796434D01*
X75314962Y-26796432D01*
X75310911Y-26793232D01*
X75286603Y-26779813D01*
X75197257Y-26730492D01*
X75113383Y-26684191D01*
X74900698Y-26608876D01*
X74871795Y-26603727D01*
X74683657Y-26570214D01*
X74683653Y-26570214D01*
X74678569Y-26569308D01*
X74606574Y-26568429D01*
X74458129Y-26566615D01*
X74458127Y-26566615D01*
X74452959Y-26566552D01*
X74229929Y-26600680D01*
X74015468Y-26670777D01*
X73815335Y-26774960D01*
X73811202Y-26778063D01*
X73811199Y-26778065D01*
X73665462Y-26887487D01*
X73634905Y-26910430D01*
X73479024Y-27073550D01*
X73351878Y-27259940D01*
X73349704Y-27264624D01*
X73349702Y-27264627D01*
X73278402Y-27418231D01*
X73256881Y-27464593D01*
X73196585Y-27682013D01*
X73172609Y-27906362D01*
X73172906Y-27911514D01*
X73172906Y-27911518D01*
X73178618Y-28010578D01*
X73185597Y-28131614D01*
X73186734Y-28136660D01*
X73186735Y-28136666D01*
X73207984Y-28230952D01*
X73235200Y-28351720D01*
X73237142Y-28356502D01*
X73237143Y-28356506D01*
X73280721Y-28463825D01*
X73320086Y-28560769D01*
X73437975Y-28753147D01*
X73585702Y-28923687D01*
X73759299Y-29067810D01*
X73763751Y-29070412D01*
X73763756Y-29070415D01*
X73899107Y-29149508D01*
X73954103Y-29181645D01*
X74164884Y-29262134D01*
X74169952Y-29263165D01*
X74169955Y-29263166D01*
X74218021Y-29272945D01*
X74385981Y-29307117D01*
X74391156Y-29307307D01*
X74391158Y-29307307D01*
X74606292Y-29315196D01*
X74606296Y-29315196D01*
X74611456Y-29315385D01*
X74616576Y-29314729D01*
X74616578Y-29314729D01*
X74685985Y-29305838D01*
X74835253Y-29286716D01*
X74840202Y-29285231D01*
X74840208Y-29285230D01*
X75046413Y-29223365D01*
X75046412Y-29223365D01*
X75051363Y-29221880D01*
X75168964Y-29164268D01*
X75249331Y-29124897D01*
X75249336Y-29124894D01*
X75253982Y-29122618D01*
X75258192Y-29119615D01*
X75258197Y-29119612D01*
X75433455Y-28994601D01*
X75433459Y-28994597D01*
X75437667Y-28991596D01*
X75597487Y-28832333D01*
X75718370Y-28664107D01*
X75774364Y-28620459D01*
X75845068Y-28614013D01*
X75908032Y-28646816D01*
X75928125Y-28671799D01*
X75975275Y-28748743D01*
X75975279Y-28748748D01*
X75977975Y-28753147D01*
X76125702Y-28923687D01*
X76299299Y-29067810D01*
X76303751Y-29070412D01*
X76303756Y-29070415D01*
X76439107Y-29149508D01*
X76494103Y-29181645D01*
X76704884Y-29262134D01*
X76709952Y-29263165D01*
X76709955Y-29263166D01*
X76758021Y-29272945D01*
X76925981Y-29307117D01*
X76931156Y-29307307D01*
X76931158Y-29307307D01*
X77146292Y-29315196D01*
X77146296Y-29315196D01*
X77151456Y-29315385D01*
X77156576Y-29314729D01*
X77156578Y-29314729D01*
X77225985Y-29305838D01*
X77375253Y-29286716D01*
X77380202Y-29285231D01*
X77380208Y-29285230D01*
X77586413Y-29223365D01*
X77586412Y-29223365D01*
X77591363Y-29221880D01*
X77708964Y-29164268D01*
X77789331Y-29124897D01*
X77789336Y-29124894D01*
X77793982Y-29122618D01*
X77798192Y-29119615D01*
X77798197Y-29119612D01*
X77973455Y-28994601D01*
X77973459Y-28994597D01*
X77977667Y-28991596D01*
X78137487Y-28832333D01*
X78258370Y-28664107D01*
X78314364Y-28620459D01*
X78385068Y-28614013D01*
X78448032Y-28646816D01*
X78468125Y-28671799D01*
X78515275Y-28748743D01*
X78515279Y-28748748D01*
X78517975Y-28753147D01*
X78665702Y-28923687D01*
X78839299Y-29067810D01*
X78843751Y-29070412D01*
X78843756Y-29070415D01*
X78979107Y-29149508D01*
X79034103Y-29181645D01*
X79244884Y-29262134D01*
X79249952Y-29263165D01*
X79249955Y-29263166D01*
X79298021Y-29272945D01*
X79465981Y-29307117D01*
X79471156Y-29307307D01*
X79471158Y-29307307D01*
X79686292Y-29315196D01*
X79686296Y-29315196D01*
X79691456Y-29315385D01*
X79696576Y-29314729D01*
X79696578Y-29314729D01*
X79765985Y-29305838D01*
X79915253Y-29286716D01*
X79920202Y-29285231D01*
X79920208Y-29285230D01*
X80126413Y-29223365D01*
X80126412Y-29223365D01*
X80131363Y-29221880D01*
X80248964Y-29164268D01*
X80329331Y-29124897D01*
X80329336Y-29124894D01*
X80333982Y-29122618D01*
X80338192Y-29119615D01*
X80338197Y-29119612D01*
X80513455Y-28994601D01*
X80513459Y-28994597D01*
X80517667Y-28991596D01*
X80677487Y-28832333D01*
X80798370Y-28664107D01*
X80854364Y-28620459D01*
X80925068Y-28614013D01*
X80988032Y-28646816D01*
X81008125Y-28671799D01*
X81055275Y-28748743D01*
X81055279Y-28748748D01*
X81057975Y-28753147D01*
X81205702Y-28923687D01*
X81379299Y-29067810D01*
X81383751Y-29070412D01*
X81383756Y-29070415D01*
X81519107Y-29149508D01*
X81574103Y-29181645D01*
X81784884Y-29262134D01*
X81789952Y-29263165D01*
X81789955Y-29263166D01*
X81838021Y-29272945D01*
X82005981Y-29307117D01*
X82011156Y-29307307D01*
X82011158Y-29307307D01*
X82226292Y-29315196D01*
X82226296Y-29315196D01*
X82231456Y-29315385D01*
X82236576Y-29314729D01*
X82236578Y-29314729D01*
X82305985Y-29305838D01*
X82455253Y-29286716D01*
X82460202Y-29285231D01*
X82460208Y-29285230D01*
X82666413Y-29223365D01*
X82666412Y-29223365D01*
X82671363Y-29221880D01*
X82788964Y-29164268D01*
X82869331Y-29124897D01*
X82869336Y-29124894D01*
X82873982Y-29122618D01*
X82878192Y-29119615D01*
X82878197Y-29119612D01*
X83053455Y-28994601D01*
X83053459Y-28994597D01*
X83057667Y-28991596D01*
X83217487Y-28832333D01*
X83338370Y-28664107D01*
X83394364Y-28620459D01*
X83465068Y-28614013D01*
X83528032Y-28646816D01*
X83548125Y-28671799D01*
X83595275Y-28748743D01*
X83595279Y-28748748D01*
X83597975Y-28753147D01*
X83745702Y-28923687D01*
X83919299Y-29067810D01*
X83923751Y-29070412D01*
X83923756Y-29070415D01*
X83985383Y-29106427D01*
X84007217Y-29119185D01*
X84013071Y-29122606D01*
X84061794Y-29174245D01*
X84075500Y-29231394D01*
X84075500Y-54219500D01*
X84055498Y-54287621D01*
X84001842Y-54334114D01*
X83949500Y-54345500D01*
X82259768Y-54345500D01*
X82248585Y-54344973D01*
X82241092Y-54343298D01*
X82233166Y-54343547D01*
X82233165Y-54343547D01*
X82173002Y-54345438D01*
X82169044Y-54345500D01*
X82141144Y-54345500D01*
X82137154Y-54346004D01*
X82125320Y-54346936D01*
X82081111Y-54348326D01*
X82073497Y-54350538D01*
X82073492Y-54350539D01*
X82061659Y-54353977D01*
X82042296Y-54357988D01*
X82022203Y-54360526D01*
X82014836Y-54363443D01*
X82014831Y-54363444D01*
X81981092Y-54376802D01*
X81969865Y-54380646D01*
X81927407Y-54392982D01*
X81920581Y-54397019D01*
X81909972Y-54403293D01*
X81892224Y-54411988D01*
X81873383Y-54419448D01*
X81866967Y-54424110D01*
X81866966Y-54424110D01*
X81837613Y-54445436D01*
X81827693Y-54451952D01*
X81796465Y-54470420D01*
X81796462Y-54470422D01*
X81789638Y-54474458D01*
X81775317Y-54488779D01*
X81760284Y-54501619D01*
X81743893Y-54513528D01*
X81738842Y-54519634D01*
X81715702Y-54547605D01*
X81707712Y-54556384D01*
X79658768Y-56605327D01*
X79596458Y-56639352D01*
X79525643Y-56634287D01*
X79470725Y-56594237D01*
X79416500Y-56525453D01*
X79370138Y-56466643D01*
X79179763Y-56287557D01*
X78980240Y-56149142D01*
X78968851Y-56141241D01*
X78968848Y-56141239D01*
X78965009Y-56138576D01*
X78773771Y-56044268D01*
X78721523Y-55996199D01*
X78703500Y-55931262D01*
X78703500Y-36792667D01*
X78704027Y-36781484D01*
X78705702Y-36773991D01*
X78703562Y-36705900D01*
X78703500Y-36701943D01*
X78703500Y-36674044D01*
X78702996Y-36670053D01*
X78702063Y-36658211D01*
X78700923Y-36621936D01*
X78700674Y-36614011D01*
X78698462Y-36606397D01*
X78698461Y-36606392D01*
X78695023Y-36594559D01*
X78691012Y-36575195D01*
X78689467Y-36562964D01*
X78688474Y-36555103D01*
X78685557Y-36547736D01*
X78685556Y-36547731D01*
X78672198Y-36513992D01*
X78668354Y-36502765D01*
X78658230Y-36467922D01*
X78656018Y-36460307D01*
X78645707Y-36442872D01*
X78637012Y-36425124D01*
X78629552Y-36406283D01*
X78603564Y-36370513D01*
X78597048Y-36360593D01*
X78578580Y-36329365D01*
X78578578Y-36329362D01*
X78574542Y-36322538D01*
X78560221Y-36308217D01*
X78547380Y-36293183D01*
X78540131Y-36283206D01*
X78535472Y-36276793D01*
X78501395Y-36248602D01*
X78492616Y-36240612D01*
X71397772Y-29145767D01*
X71363746Y-29083455D01*
X71368811Y-29012640D01*
X71397927Y-28967421D01*
X71529827Y-28835980D01*
X71533487Y-28832333D01*
X71665150Y-28649105D01*
X71765118Y-28446835D01*
X71830708Y-28230952D01*
X71860158Y-28007256D01*
X71861802Y-27940000D01*
X71843315Y-27715132D01*
X71788349Y-27496304D01*
X71698380Y-27289391D01*
X71648913Y-27212926D01*
X71578634Y-27104291D01*
X71578632Y-27104288D01*
X71575826Y-27099951D01*
X71423977Y-26933071D01*
X71419926Y-26929872D01*
X71419922Y-26929868D01*
X71250966Y-26796434D01*
X71250962Y-26796432D01*
X71246911Y-26793232D01*
X71222603Y-26779813D01*
X71133257Y-26730492D01*
X71049383Y-26684191D01*
X70836698Y-26608876D01*
X70807795Y-26603727D01*
X70619657Y-26570214D01*
X70619653Y-26570214D01*
X70614569Y-26569308D01*
X70542574Y-26568429D01*
X70394129Y-26566615D01*
X70394127Y-26566615D01*
X70388959Y-26566552D01*
X70165929Y-26600680D01*
X69951468Y-26670777D01*
X69751335Y-26774960D01*
X69747202Y-26778063D01*
X69747199Y-26778065D01*
X69601462Y-26887487D01*
X69570905Y-26910430D01*
X69415024Y-27073550D01*
X69412112Y-27077819D01*
X69412106Y-27077827D01*
X69318503Y-27215043D01*
X69263592Y-27260046D01*
X69193067Y-27268217D01*
X69129320Y-27236963D01*
X69108623Y-27212479D01*
X69092023Y-27186818D01*
X69058260Y-27134628D01*
X69038634Y-27104291D01*
X69038632Y-27104288D01*
X69035826Y-27099951D01*
X68883977Y-26933071D01*
X68879926Y-26929872D01*
X68879922Y-26929868D01*
X68710966Y-26796434D01*
X68710962Y-26796432D01*
X68706911Y-26793232D01*
X68682603Y-26779813D01*
X68593257Y-26730492D01*
X68509383Y-26684191D01*
X68296698Y-26608876D01*
X68267795Y-26603727D01*
X68079657Y-26570214D01*
X68079653Y-26570214D01*
X68074569Y-26569308D01*
X68002574Y-26568429D01*
X67854129Y-26566615D01*
X67854127Y-26566615D01*
X67848959Y-26566552D01*
X67625929Y-26600680D01*
X67411468Y-26670777D01*
X67211335Y-26774960D01*
X67207202Y-26778063D01*
X67207199Y-26778065D01*
X67061462Y-26887487D01*
X67030905Y-26910430D01*
X66875024Y-27073550D01*
X66872112Y-27077819D01*
X66872106Y-27077827D01*
X66778503Y-27215043D01*
X66723592Y-27260046D01*
X66653067Y-27268217D01*
X66589320Y-27236963D01*
X66568623Y-27212479D01*
X66552023Y-27186818D01*
X66518260Y-27134628D01*
X66498634Y-27104291D01*
X66498632Y-27104288D01*
X66495826Y-27099951D01*
X66343977Y-26933071D01*
X66339926Y-26929872D01*
X66339922Y-26929868D01*
X66170966Y-26796434D01*
X66170962Y-26796432D01*
X66166911Y-26793232D01*
X66142603Y-26779813D01*
X66053257Y-26730492D01*
X65969383Y-26684191D01*
X65756698Y-26608876D01*
X65727795Y-26603727D01*
X65539657Y-26570214D01*
X65539653Y-26570214D01*
X65534569Y-26569308D01*
X65462574Y-26568429D01*
X65314129Y-26566615D01*
X65314127Y-26566615D01*
X65308959Y-26566552D01*
X65085929Y-26600680D01*
X64871468Y-26670777D01*
X64671335Y-26774960D01*
X64667202Y-26778063D01*
X64667199Y-26778065D01*
X64521462Y-26887487D01*
X64490905Y-26910430D01*
X64335024Y-27073550D01*
X64332112Y-27077819D01*
X64332106Y-27077827D01*
X64238503Y-27215043D01*
X64183592Y-27260046D01*
X64113067Y-27268217D01*
X64049320Y-27236963D01*
X64028623Y-27212479D01*
X64012023Y-27186818D01*
X63978260Y-27134628D01*
X63958634Y-27104291D01*
X63958632Y-27104288D01*
X63955826Y-27099951D01*
X63803977Y-26933071D01*
X63799926Y-26929872D01*
X63799922Y-26929868D01*
X63630966Y-26796434D01*
X63630962Y-26796432D01*
X63626911Y-26793232D01*
X63602603Y-26779813D01*
X63513257Y-26730492D01*
X63429383Y-26684191D01*
X63216698Y-26608876D01*
X63187795Y-26603727D01*
X62999657Y-26570214D01*
X62999653Y-26570214D01*
X62994569Y-26569308D01*
X62922574Y-26568429D01*
X62774129Y-26566615D01*
X62774127Y-26566615D01*
X62768959Y-26566552D01*
X62545929Y-26600680D01*
X62331468Y-26670777D01*
X62131335Y-26774960D01*
X62127202Y-26778063D01*
X62127199Y-26778065D01*
X61981462Y-26887487D01*
X61950905Y-26910430D01*
X61795024Y-27073550D01*
X61792112Y-27077819D01*
X61792106Y-27077827D01*
X61698503Y-27215043D01*
X61643592Y-27260046D01*
X61573067Y-27268217D01*
X61509320Y-27236963D01*
X61488623Y-27212479D01*
X61472023Y-27186818D01*
X61438260Y-27134628D01*
X61418634Y-27104291D01*
X61418632Y-27104288D01*
X61415826Y-27099951D01*
X61263977Y-26933071D01*
X61259926Y-26929872D01*
X61259922Y-26929868D01*
X61090966Y-26796434D01*
X61090962Y-26796432D01*
X61086911Y-26793232D01*
X61062603Y-26779813D01*
X60973257Y-26730492D01*
X60889383Y-26684191D01*
X60676698Y-26608876D01*
X60647795Y-26603727D01*
X60459657Y-26570214D01*
X60459653Y-26570214D01*
X60454569Y-26569308D01*
X60382574Y-26568429D01*
X60234129Y-26566615D01*
X60234127Y-26566615D01*
X60228959Y-26566552D01*
X60005929Y-26600680D01*
X59791468Y-26670777D01*
X59591335Y-26774960D01*
X59587202Y-26778063D01*
X59587199Y-26778065D01*
X59441462Y-26887487D01*
X59410905Y-26910430D01*
X59255024Y-27073550D01*
X59252112Y-27077819D01*
X59252106Y-27077827D01*
X59158503Y-27215043D01*
X59103592Y-27260046D01*
X59033067Y-27268217D01*
X58969320Y-27236963D01*
X58948623Y-27212479D01*
X58932023Y-27186818D01*
X58898260Y-27134628D01*
X58878634Y-27104291D01*
X58878632Y-27104288D01*
X58875826Y-27099951D01*
X58723977Y-26933071D01*
X58719926Y-26929872D01*
X58719922Y-26929868D01*
X58550966Y-26796434D01*
X58550962Y-26796432D01*
X58546911Y-26793232D01*
X58522603Y-26779813D01*
X58433257Y-26730492D01*
X58349383Y-26684191D01*
X58136698Y-26608876D01*
X58107795Y-26603727D01*
X57919657Y-26570214D01*
X57919653Y-26570214D01*
X57914569Y-26569308D01*
X57842574Y-26568429D01*
X57694129Y-26566615D01*
X57694127Y-26566615D01*
X57688959Y-26566552D01*
X57465929Y-26600680D01*
X57251468Y-26670777D01*
X57051335Y-26774960D01*
X57047202Y-26778063D01*
X57047199Y-26778065D01*
X56901462Y-26887487D01*
X56870905Y-26910430D01*
X56715024Y-27073550D01*
X56712112Y-27077819D01*
X56712106Y-27077827D01*
X56618198Y-27215490D01*
X56563287Y-27260493D01*
X56492762Y-27268664D01*
X56429015Y-27237410D01*
X56408318Y-27212926D01*
X56338239Y-27104601D01*
X56331947Y-27096430D01*
X56187113Y-26937260D01*
X56179580Y-26930234D01*
X56010691Y-26796855D01*
X56002104Y-26791150D01*
X55813711Y-26687151D01*
X55804299Y-26682921D01*
X55601445Y-26611086D01*
X55591474Y-26608452D01*
X55516837Y-26595157D01*
X55503540Y-26596617D01*
X55499000Y-26611174D01*
X55499000Y-29272229D01*
X55503064Y-29286071D01*
X55516479Y-29288105D01*
X55526025Y-29286882D01*
X55536095Y-29284742D01*
X55742225Y-29222900D01*
X55751832Y-29219134D01*
X55945076Y-29124464D01*
X55953934Y-29119185D01*
X56129141Y-28994211D01*
X56137003Y-28987567D01*
X56289445Y-28835656D01*
X56296122Y-28827811D01*
X56414086Y-28663646D01*
X56470081Y-28619998D01*
X56540784Y-28613552D01*
X56603749Y-28646355D01*
X56623842Y-28671337D01*
X56673975Y-28753147D01*
X56821702Y-28923687D01*
X56995299Y-29067810D01*
X56999751Y-29070412D01*
X56999756Y-29070415D01*
X57135107Y-29149508D01*
X57190103Y-29181645D01*
X57400884Y-29262134D01*
X57405952Y-29263165D01*
X57405955Y-29263166D01*
X57454021Y-29272945D01*
X57621981Y-29307117D01*
X57627156Y-29307307D01*
X57627158Y-29307307D01*
X57842292Y-29315196D01*
X57842296Y-29315196D01*
X57847456Y-29315385D01*
X57852576Y-29314729D01*
X57852578Y-29314729D01*
X57921985Y-29305838D01*
X58071253Y-29286716D01*
X58076202Y-29285231D01*
X58076208Y-29285230D01*
X58282413Y-29223365D01*
X58282412Y-29223365D01*
X58287363Y-29221880D01*
X58404964Y-29164268D01*
X58485331Y-29124897D01*
X58485336Y-29124894D01*
X58489982Y-29122618D01*
X58494192Y-29119615D01*
X58494197Y-29119612D01*
X58669455Y-28994601D01*
X58669459Y-28994597D01*
X58673667Y-28991596D01*
X58833487Y-28832333D01*
X58954370Y-28664107D01*
X59010364Y-28620459D01*
X59081068Y-28614013D01*
X59144032Y-28646816D01*
X59164125Y-28671799D01*
X59211275Y-28748743D01*
X59211279Y-28748748D01*
X59213975Y-28753147D01*
X59361702Y-28923687D01*
X59535299Y-29067810D01*
X59539751Y-29070412D01*
X59539756Y-29070415D01*
X59675107Y-29149508D01*
X59730103Y-29181645D01*
X59940884Y-29262134D01*
X59945952Y-29263165D01*
X59945955Y-29263166D01*
X59994021Y-29272945D01*
X60161981Y-29307117D01*
X60167156Y-29307307D01*
X60167158Y-29307307D01*
X60382292Y-29315196D01*
X60382296Y-29315196D01*
X60387456Y-29315385D01*
X60392576Y-29314729D01*
X60392578Y-29314729D01*
X60461985Y-29305838D01*
X60611253Y-29286716D01*
X60616202Y-29285231D01*
X60616208Y-29285230D01*
X60822413Y-29223365D01*
X60822412Y-29223365D01*
X60827363Y-29221880D01*
X60944964Y-29164268D01*
X61025331Y-29124897D01*
X61025336Y-29124894D01*
X61029982Y-29122618D01*
X61034192Y-29119615D01*
X61034197Y-29119612D01*
X61209455Y-28994601D01*
X61209459Y-28994597D01*
X61213667Y-28991596D01*
X61373487Y-28832333D01*
X61494370Y-28664107D01*
X61550364Y-28620459D01*
X61621068Y-28614013D01*
X61684032Y-28646816D01*
X61704125Y-28671799D01*
X61751275Y-28748743D01*
X61751279Y-28748748D01*
X61753975Y-28753147D01*
X61901702Y-28923687D01*
X62075299Y-29067810D01*
X62079751Y-29070412D01*
X62079756Y-29070415D01*
X62215107Y-29149508D01*
X62270103Y-29181645D01*
X62480884Y-29262134D01*
X62485952Y-29263165D01*
X62485955Y-29263166D01*
X62534021Y-29272945D01*
X62701981Y-29307117D01*
X62707156Y-29307307D01*
X62707158Y-29307307D01*
X62922292Y-29315196D01*
X62922296Y-29315196D01*
X62927456Y-29315385D01*
X62932576Y-29314729D01*
X62932578Y-29314729D01*
X63001985Y-29305838D01*
X63151253Y-29286716D01*
X63156202Y-29285231D01*
X63156208Y-29285230D01*
X63362413Y-29223365D01*
X63362412Y-29223365D01*
X63367363Y-29221880D01*
X63484964Y-29164268D01*
X63565331Y-29124897D01*
X63565336Y-29124894D01*
X63569982Y-29122618D01*
X63574192Y-29119615D01*
X63574197Y-29119612D01*
X63749455Y-28994601D01*
X63749459Y-28994597D01*
X63753667Y-28991596D01*
X63913487Y-28832333D01*
X64034370Y-28664107D01*
X64090364Y-28620459D01*
X64161068Y-28614013D01*
X64224032Y-28646816D01*
X64244125Y-28671799D01*
X64291275Y-28748743D01*
X64291279Y-28748748D01*
X64293975Y-28753147D01*
X64441702Y-28923687D01*
X64615299Y-29067810D01*
X64619751Y-29070412D01*
X64619756Y-29070415D01*
X64681383Y-29106427D01*
X64703217Y-29119185D01*
X64709071Y-29122606D01*
X64757794Y-29174245D01*
X64771500Y-29231394D01*
X64771500Y-32196933D01*
X64770973Y-32208116D01*
X64769298Y-32215609D01*
X64769547Y-32223535D01*
X64769547Y-32223536D01*
X64771438Y-32283686D01*
X64771500Y-32287645D01*
X64771500Y-32315556D01*
X64771997Y-32319490D01*
X64771997Y-32319491D01*
X64772005Y-32319556D01*
X64772938Y-32331393D01*
X64774327Y-32375589D01*
X64779978Y-32395039D01*
X64783987Y-32414400D01*
X64786526Y-32434497D01*
X64789445Y-32441868D01*
X64789445Y-32441870D01*
X64802804Y-32475612D01*
X64806649Y-32486842D01*
X64818982Y-32529293D01*
X64823015Y-32536112D01*
X64823017Y-32536117D01*
X64829293Y-32546728D01*
X64837988Y-32564476D01*
X64845448Y-32583317D01*
X64850110Y-32589733D01*
X64850110Y-32589734D01*
X64871436Y-32619087D01*
X64877952Y-32629007D01*
X64900458Y-32667062D01*
X64914779Y-32681383D01*
X64927619Y-32696416D01*
X64939528Y-32712807D01*
X64945634Y-32717858D01*
X64973605Y-32740998D01*
X64982384Y-32748988D01*
X66873965Y-34640570D01*
X66907991Y-34702882D01*
X66902926Y-34773698D01*
X66860379Y-34830533D01*
X66793859Y-34855344D01*
X66734832Y-34845303D01*
X66716845Y-34837519D01*
X66709022Y-34836280D01*
X66709012Y-34836277D01*
X66673176Y-34830601D01*
X66661556Y-34828195D01*
X66626411Y-34819172D01*
X66626410Y-34819172D01*
X66618730Y-34817200D01*
X66598476Y-34817200D01*
X66578765Y-34815649D01*
X66566586Y-34813720D01*
X66558757Y-34812480D01*
X66529486Y-34815247D01*
X66514739Y-34816641D01*
X66502881Y-34817200D01*
X60467967Y-34817200D01*
X60456784Y-34816673D01*
X60449291Y-34814998D01*
X60441365Y-34815247D01*
X60441364Y-34815247D01*
X60381201Y-34817138D01*
X60377243Y-34817200D01*
X60349344Y-34817200D01*
X60345354Y-34817704D01*
X60333520Y-34818636D01*
X60289311Y-34820026D01*
X60281697Y-34822238D01*
X60281692Y-34822239D01*
X60269859Y-34825677D01*
X60250496Y-34829688D01*
X60230403Y-34832226D01*
X60223036Y-34835143D01*
X60223031Y-34835144D01*
X60189292Y-34848502D01*
X60178065Y-34852346D01*
X60135607Y-34864682D01*
X60128781Y-34868719D01*
X60118172Y-34874993D01*
X60100424Y-34883688D01*
X60081583Y-34891148D01*
X60075167Y-34895810D01*
X60075166Y-34895810D01*
X60045813Y-34917136D01*
X60035893Y-34923652D01*
X60004665Y-34942120D01*
X60004662Y-34942122D01*
X59997838Y-34946158D01*
X59983517Y-34960479D01*
X59968484Y-34973319D01*
X59952093Y-34985228D01*
X59947042Y-34991333D01*
X59947037Y-34991338D01*
X59923906Y-35019298D01*
X59915919Y-35028076D01*
X59622157Y-35321839D01*
X59403696Y-35540300D01*
X59341383Y-35574325D01*
X59270568Y-35569261D01*
X59242329Y-35554418D01*
X59224600Y-35542004D01*
X59076749Y-35438477D01*
X59071767Y-35436154D01*
X59071762Y-35436151D01*
X58874225Y-35344039D01*
X58874224Y-35344039D01*
X58869243Y-35341716D01*
X58863935Y-35340294D01*
X58863933Y-35340293D01*
X58653402Y-35283881D01*
X58653400Y-35283881D01*
X58648087Y-35282457D01*
X58420000Y-35262502D01*
X58191913Y-35282457D01*
X58186600Y-35283881D01*
X58186598Y-35283881D01*
X57976067Y-35340293D01*
X57976065Y-35340294D01*
X57970757Y-35341716D01*
X57965776Y-35344039D01*
X57965775Y-35344039D01*
X57768238Y-35436151D01*
X57768233Y-35436154D01*
X57763251Y-35438477D01*
X57735411Y-35457971D01*
X57580211Y-35566643D01*
X57580208Y-35566645D01*
X57575700Y-35569802D01*
X57413802Y-35731700D01*
X57282477Y-35919251D01*
X57280154Y-35924233D01*
X57280151Y-35924238D01*
X57264195Y-35958457D01*
X57217278Y-36011742D01*
X57149001Y-36031203D01*
X57081041Y-36010661D01*
X57035805Y-35958457D01*
X57019849Y-35924238D01*
X57019846Y-35924233D01*
X57017523Y-35919251D01*
X56886198Y-35731700D01*
X56724300Y-35569802D01*
X56719792Y-35566645D01*
X56719789Y-35566643D01*
X56564589Y-35457971D01*
X56536749Y-35438477D01*
X56531767Y-35436154D01*
X56531762Y-35436151D01*
X56334225Y-35344039D01*
X56334224Y-35344039D01*
X56329243Y-35341716D01*
X56323935Y-35340294D01*
X56323933Y-35340293D01*
X56113402Y-35283881D01*
X56113400Y-35283881D01*
X56108087Y-35282457D01*
X55880000Y-35262502D01*
X55651913Y-35282457D01*
X55646600Y-35283881D01*
X55646598Y-35283881D01*
X55436067Y-35340293D01*
X55436065Y-35340294D01*
X55430757Y-35341716D01*
X55425776Y-35344039D01*
X55425775Y-35344039D01*
X55228238Y-35436151D01*
X55228233Y-35436154D01*
X55223251Y-35438477D01*
X55195411Y-35457971D01*
X55040211Y-35566643D01*
X55040208Y-35566645D01*
X55035700Y-35569802D01*
X54873802Y-35731700D01*
X54742477Y-35919251D01*
X54740154Y-35924233D01*
X54740151Y-35924238D01*
X54648039Y-36121775D01*
X54645716Y-36126757D01*
X54644294Y-36132065D01*
X54644293Y-36132067D01*
X54594760Y-36316927D01*
X54586457Y-36347913D01*
X54566502Y-36576000D01*
X54586457Y-36804087D01*
X54645716Y-37025243D01*
X54648039Y-37030224D01*
X54648039Y-37030225D01*
X54740151Y-37227762D01*
X54740154Y-37227767D01*
X54742477Y-37232749D01*
X54873802Y-37420300D01*
X54980354Y-37526852D01*
X55014380Y-37589164D01*
X55009315Y-37659979D01*
X54980355Y-37705041D01*
X47493480Y-45191915D01*
X40057847Y-52627548D01*
X40049561Y-52635088D01*
X40043082Y-52639200D01*
X40037657Y-52644977D01*
X39996457Y-52688851D01*
X39993702Y-52691693D01*
X39973965Y-52711430D01*
X39971485Y-52714627D01*
X39963782Y-52723647D01*
X39933514Y-52755879D01*
X39929695Y-52762825D01*
X39929693Y-52762828D01*
X39923752Y-52773634D01*
X39912901Y-52790153D01*
X39900486Y-52806159D01*
X39897341Y-52813428D01*
X39897338Y-52813432D01*
X39882926Y-52846737D01*
X39877709Y-52857387D01*
X39856405Y-52896140D01*
X39854434Y-52903815D01*
X39854434Y-52903816D01*
X39851367Y-52915762D01*
X39844963Y-52934466D01*
X39836919Y-52953055D01*
X39835680Y-52960878D01*
X39835677Y-52960888D01*
X39830001Y-52996724D01*
X39827595Y-53008344D01*
X39816600Y-53051170D01*
X39816600Y-53071424D01*
X39815049Y-53091134D01*
X39811880Y-53111143D01*
X39812626Y-53119035D01*
X39816041Y-53155161D01*
X39816600Y-53167019D01*
X39816600Y-56218833D01*
X39796598Y-56286954D01*
X39742942Y-56333447D01*
X39672668Y-56343551D01*
X39604267Y-56310608D01*
X39583171Y-56290763D01*
X39579763Y-56287557D01*
X39380240Y-56149142D01*
X39368851Y-56141241D01*
X39368848Y-56141239D01*
X39365009Y-56138576D01*
X39324644Y-56118670D01*
X39134781Y-56025040D01*
X39134778Y-56025039D01*
X39130593Y-56022975D01*
X39116901Y-56018592D01*
X38886123Y-55944720D01*
X38881665Y-55943293D01*
X38623693Y-55901279D01*
X38509942Y-55899790D01*
X38367022Y-55897919D01*
X38367019Y-55897919D01*
X38362345Y-55897858D01*
X38103362Y-55933104D01*
X38098876Y-55934412D01*
X38098874Y-55934412D01*
X38082674Y-55939134D01*
X37852433Y-56006243D01*
X37848180Y-56008203D01*
X37848179Y-56008204D01*
X37800965Y-56029970D01*
X37615072Y-56115668D01*
X37576067Y-56141241D01*
X37400404Y-56256410D01*
X37400399Y-56256414D01*
X37396491Y-56258976D01*
X37201494Y-56433018D01*
X37034363Y-56633970D01*
X36898771Y-56857419D01*
X36797697Y-57098455D01*
X36733359Y-57351783D01*
X36707173Y-57611839D01*
X36707397Y-57616505D01*
X36707397Y-57616511D01*
X36713443Y-57742374D01*
X36719713Y-57872908D01*
X36770704Y-58129256D01*
X36859026Y-58375252D01*
X36861242Y-58379376D01*
X36925753Y-58499437D01*
X36982737Y-58605491D01*
X36985532Y-58609234D01*
X36985534Y-58609237D01*
X37136330Y-58811177D01*
X37136335Y-58811183D01*
X37139122Y-58814915D01*
X37142431Y-58818195D01*
X37142436Y-58818201D01*
X37311077Y-58985376D01*
X37324743Y-58998923D01*
X37328505Y-59001681D01*
X37328508Y-59001684D01*
X37483281Y-59115168D01*
X37535524Y-59153474D01*
X37539667Y-59155654D01*
X37539669Y-59155655D01*
X37762684Y-59272989D01*
X37762689Y-59272991D01*
X37766834Y-59275172D01*
X37837240Y-59299759D01*
X37912685Y-59326106D01*
X37970403Y-59367449D01*
X37996606Y-59433433D01*
X37982976Y-59503109D01*
X37960239Y-59534156D01*
X35967462Y-61526933D01*
X35905150Y-61560959D01*
X35834335Y-61555894D01*
X35792034Y-61529613D01*
X35790418Y-61528092D01*
X35619763Y-61367557D01*
X35423333Y-61231288D01*
X35408851Y-61221241D01*
X35408848Y-61221239D01*
X35405009Y-61218576D01*
X35400816Y-61216508D01*
X35174781Y-61105040D01*
X35174778Y-61105039D01*
X35170593Y-61102975D01*
X35165633Y-61101387D01*
X34926123Y-61024720D01*
X34921665Y-61023293D01*
X34663693Y-60981279D01*
X34549942Y-60979790D01*
X34407022Y-60977919D01*
X34407019Y-60977919D01*
X34402345Y-60977858D01*
X34143362Y-61013104D01*
X33892433Y-61086243D01*
X33888180Y-61088203D01*
X33888179Y-61088204D01*
X33849160Y-61106192D01*
X33655072Y-61195668D01*
X33616067Y-61221241D01*
X33440404Y-61336410D01*
X33440399Y-61336414D01*
X33436491Y-61338976D01*
X33329731Y-61434263D01*
X33247827Y-61507366D01*
X33241494Y-61513018D01*
X33074363Y-61713970D01*
X33071938Y-61717967D01*
X33071934Y-61717973D01*
X32969577Y-61886653D01*
X32938771Y-61937419D01*
X32837697Y-62178455D01*
X32773359Y-62431783D01*
X32772891Y-62436434D01*
X32772890Y-62436438D01*
X32769229Y-62472794D01*
X32747173Y-62691839D01*
X32747397Y-62696505D01*
X32747397Y-62696511D01*
X32751690Y-62785879D01*
X32759713Y-62952908D01*
X32810704Y-63209256D01*
X32899026Y-63455252D01*
X32901242Y-63459376D01*
X32986741Y-63618498D01*
X33022737Y-63685491D01*
X33025532Y-63689234D01*
X33025534Y-63689237D01*
X33176330Y-63891177D01*
X33176335Y-63891183D01*
X33179122Y-63894915D01*
X33182431Y-63898195D01*
X33182436Y-63898201D01*
X33355354Y-64069616D01*
X33364743Y-64078923D01*
X33368505Y-64081681D01*
X33368508Y-64081684D01*
X33571173Y-64230284D01*
X33575524Y-64233474D01*
X33579667Y-64235654D01*
X33579669Y-64235655D01*
X33802684Y-64352989D01*
X33802689Y-64352991D01*
X33806834Y-64355172D01*
X34053590Y-64441344D01*
X34058183Y-64442216D01*
X34305785Y-64489224D01*
X34305788Y-64489224D01*
X34310374Y-64490095D01*
X34440959Y-64495226D01*
X34566875Y-64500174D01*
X34566881Y-64500174D01*
X34571543Y-64500357D01*
X34650977Y-64491657D01*
X34826707Y-64472412D01*
X34826712Y-64472411D01*
X34831360Y-64471902D01*
X34837753Y-64470219D01*
X35079594Y-64406548D01*
X35079596Y-64406547D01*
X35084117Y-64405357D01*
X35160815Y-64372405D01*
X35319972Y-64304025D01*
X35324262Y-64302182D01*
X35546519Y-64164646D01*
X35550082Y-64161629D01*
X35550087Y-64161626D01*
X35742439Y-63998787D01*
X35742440Y-63998786D01*
X35746005Y-63995768D01*
X35837729Y-63891177D01*
X35915257Y-63802774D01*
X35915261Y-63802769D01*
X35918339Y-63799259D01*
X36059733Y-63579437D01*
X36167083Y-63341129D01*
X36205607Y-63204535D01*
X36236760Y-63094076D01*
X36236761Y-63094073D01*
X36238030Y-63089572D01*
X36238620Y-63084931D01*
X36238622Y-63084923D01*
X36238629Y-63084870D01*
X36238637Y-63084853D01*
X36239553Y-63080349D01*
X36240520Y-63080546D01*
X36267069Y-63019818D01*
X36274526Y-63011678D01*
X36500711Y-62785493D01*
X36563023Y-62751467D01*
X36633838Y-62756532D01*
X36690674Y-62799079D01*
X36715661Y-62868542D01*
X36719713Y-62952908D01*
X36770704Y-63209256D01*
X36859026Y-63455252D01*
X36861242Y-63459376D01*
X36946741Y-63618498D01*
X36982737Y-63685491D01*
X36985532Y-63689234D01*
X36985534Y-63689237D01*
X37136330Y-63891177D01*
X37136335Y-63891183D01*
X37139122Y-63894915D01*
X37142431Y-63898195D01*
X37142436Y-63898201D01*
X37315354Y-64069616D01*
X37324743Y-64078923D01*
X37328505Y-64081681D01*
X37328508Y-64081684D01*
X37531173Y-64230284D01*
X37535524Y-64233474D01*
X37539667Y-64235654D01*
X37539669Y-64235655D01*
X37762684Y-64352989D01*
X37762689Y-64352991D01*
X37766834Y-64355172D01*
X38013590Y-64441344D01*
X38018183Y-64442216D01*
X38265785Y-64489224D01*
X38265788Y-64489224D01*
X38270374Y-64490095D01*
X38400959Y-64495226D01*
X38526875Y-64500174D01*
X38526881Y-64500174D01*
X38531543Y-64500357D01*
X38610977Y-64491657D01*
X38786707Y-64472412D01*
X38786712Y-64472411D01*
X38791360Y-64471902D01*
X38797753Y-64470219D01*
X39039594Y-64406548D01*
X39039596Y-64406547D01*
X39044117Y-64405357D01*
X39120815Y-64372405D01*
X39279972Y-64304025D01*
X39284262Y-64302182D01*
X39506519Y-64164646D01*
X39510082Y-64161629D01*
X39510087Y-64161626D01*
X39702439Y-63998787D01*
X39702440Y-63998786D01*
X39706005Y-63995768D01*
X39797729Y-63891177D01*
X39875257Y-63802774D01*
X39875261Y-63802769D01*
X39878339Y-63799259D01*
X40019733Y-63579437D01*
X40127083Y-63341129D01*
X40165607Y-63204535D01*
X40196760Y-63094076D01*
X40196761Y-63094073D01*
X40198030Y-63089572D01*
X40214840Y-62957435D01*
X40230616Y-62833421D01*
X40230616Y-62833417D01*
X40231014Y-62830291D01*
X40231098Y-62827108D01*
X40233348Y-62741160D01*
X40233431Y-62738000D01*
X40225128Y-62626268D01*
X40214407Y-62482000D01*
X40214406Y-62481996D01*
X40214061Y-62477348D01*
X40204825Y-62436528D01*
X40157408Y-62226980D01*
X40156377Y-62222423D01*
X40110199Y-62103676D01*
X40063340Y-61983176D01*
X40063339Y-61983173D01*
X40061647Y-61978823D01*
X39931951Y-61751902D01*
X39770138Y-61546643D01*
X39579763Y-61367557D01*
X39383333Y-61231288D01*
X39368851Y-61221241D01*
X39368848Y-61221239D01*
X39365009Y-61218576D01*
X39360816Y-61216508D01*
X39134781Y-61105040D01*
X39134778Y-61105039D01*
X39130593Y-61102975D01*
X39125633Y-61101387D01*
X38886123Y-61024720D01*
X38881665Y-61023293D01*
X38623693Y-60981279D01*
X38613362Y-60981144D01*
X38607664Y-60981069D01*
X38539811Y-60960176D01*
X38494025Y-60905916D01*
X38484843Y-60835516D01*
X38515180Y-60771327D01*
X38520220Y-60765985D01*
X40361005Y-58925199D01*
X40423317Y-58891174D01*
X40494132Y-58896238D01*
X40539195Y-58925199D01*
X42379891Y-60765895D01*
X42413917Y-60828207D01*
X42408852Y-60899022D01*
X42366305Y-60955858D01*
X42307787Y-60979839D01*
X42228402Y-60990643D01*
X42063362Y-61013104D01*
X41812433Y-61086243D01*
X41808180Y-61088203D01*
X41808179Y-61088204D01*
X41769160Y-61106192D01*
X41575072Y-61195668D01*
X41536067Y-61221241D01*
X41360404Y-61336410D01*
X41360399Y-61336414D01*
X41356491Y-61338976D01*
X41249731Y-61434263D01*
X41167827Y-61507366D01*
X41161494Y-61513018D01*
X40994363Y-61713970D01*
X40991938Y-61717967D01*
X40991934Y-61717973D01*
X40889577Y-61886653D01*
X40858771Y-61937419D01*
X40757697Y-62178455D01*
X40693359Y-62431783D01*
X40692891Y-62436434D01*
X40692890Y-62436438D01*
X40689229Y-62472794D01*
X40667173Y-62691839D01*
X40667397Y-62696505D01*
X40667397Y-62696511D01*
X40671690Y-62785879D01*
X40679713Y-62952908D01*
X40730704Y-63209256D01*
X40819026Y-63455252D01*
X40821242Y-63459376D01*
X40906741Y-63618498D01*
X40942737Y-63685491D01*
X40945532Y-63689234D01*
X40945534Y-63689237D01*
X41096330Y-63891177D01*
X41096335Y-63891183D01*
X41099122Y-63894915D01*
X41102431Y-63898195D01*
X41102436Y-63898201D01*
X41275354Y-64069616D01*
X41284743Y-64078923D01*
X41288505Y-64081681D01*
X41288508Y-64081684D01*
X41491173Y-64230284D01*
X41495524Y-64233474D01*
X41499667Y-64235654D01*
X41499669Y-64235655D01*
X41722684Y-64352989D01*
X41722689Y-64352991D01*
X41726834Y-64355172D01*
X41973590Y-64441344D01*
X41978183Y-64442216D01*
X42225785Y-64489224D01*
X42225788Y-64489224D01*
X42230374Y-64490095D01*
X42360959Y-64495226D01*
X42486875Y-64500174D01*
X42486881Y-64500174D01*
X42491543Y-64500357D01*
X42570977Y-64491657D01*
X42746707Y-64472412D01*
X42746712Y-64472411D01*
X42751360Y-64471902D01*
X42757753Y-64470219D01*
X42999594Y-64406548D01*
X42999596Y-64406547D01*
X43004117Y-64405357D01*
X43080815Y-64372405D01*
X43239972Y-64304025D01*
X43244262Y-64302182D01*
X43466519Y-64164646D01*
X43470082Y-64161629D01*
X43470087Y-64161626D01*
X43662439Y-63998787D01*
X43662440Y-63998786D01*
X43666005Y-63995768D01*
X43757729Y-63891177D01*
X43835257Y-63802774D01*
X43835261Y-63802769D01*
X43838339Y-63799259D01*
X43979733Y-63579437D01*
X44087083Y-63341129D01*
X44125607Y-63204535D01*
X44156760Y-63094076D01*
X44156761Y-63094073D01*
X44158030Y-63089572D01*
X44174840Y-62957435D01*
X44190616Y-62833421D01*
X44190616Y-62833417D01*
X44191014Y-62830291D01*
X44191098Y-62827108D01*
X44193348Y-62741160D01*
X44193431Y-62738000D01*
X44185128Y-62626268D01*
X44174407Y-62482000D01*
X44174406Y-62481996D01*
X44174061Y-62477348D01*
X44164825Y-62436528D01*
X44117408Y-62226980D01*
X44116377Y-62222423D01*
X44070199Y-62103676D01*
X44023340Y-61983176D01*
X44023339Y-61983173D01*
X44021647Y-61978823D01*
X43891951Y-61751902D01*
X43730138Y-61546643D01*
X43687863Y-61506875D01*
X43651951Y-61445631D01*
X43654851Y-61374694D01*
X43695641Y-61316585D01*
X43761373Y-61289754D01*
X43774196Y-61289100D01*
X45041979Y-61289100D01*
X45110100Y-61309102D01*
X45156593Y-61362758D01*
X45166697Y-61433032D01*
X45137203Y-61497612D01*
X45125886Y-61509098D01*
X45121494Y-61513018D01*
X44954363Y-61713970D01*
X44951938Y-61717967D01*
X44951934Y-61717973D01*
X44849577Y-61886653D01*
X44818771Y-61937419D01*
X44717697Y-62178455D01*
X44653359Y-62431783D01*
X44652891Y-62436434D01*
X44652890Y-62436438D01*
X44649229Y-62472794D01*
X44627173Y-62691839D01*
X44627397Y-62696505D01*
X44627397Y-62696511D01*
X44631690Y-62785879D01*
X44639713Y-62952908D01*
X44690704Y-63209256D01*
X44779026Y-63455252D01*
X44781242Y-63459376D01*
X44866741Y-63618498D01*
X44902737Y-63685491D01*
X44905532Y-63689234D01*
X44905534Y-63689237D01*
X45056330Y-63891177D01*
X45056335Y-63891183D01*
X45059122Y-63894915D01*
X45062431Y-63898195D01*
X45062436Y-63898201D01*
X45235354Y-64069616D01*
X45244743Y-64078923D01*
X45248505Y-64081681D01*
X45248508Y-64081684D01*
X45451173Y-64230284D01*
X45455524Y-64233474D01*
X45459667Y-64235654D01*
X45459669Y-64235655D01*
X45682684Y-64352989D01*
X45682689Y-64352991D01*
X45686834Y-64355172D01*
X45933590Y-64441344D01*
X45938183Y-64442216D01*
X46185785Y-64489224D01*
X46185788Y-64489224D01*
X46190374Y-64490095D01*
X46320959Y-64495226D01*
X46446875Y-64500174D01*
X46446881Y-64500174D01*
X46451543Y-64500357D01*
X46530977Y-64491657D01*
X46706707Y-64472412D01*
X46706712Y-64472411D01*
X46711360Y-64471902D01*
X46717753Y-64470219D01*
X46959594Y-64406548D01*
X46959596Y-64406547D01*
X46964117Y-64405357D01*
X47040815Y-64372405D01*
X47199972Y-64304025D01*
X47204262Y-64302182D01*
X47426519Y-64164646D01*
X47430082Y-64161629D01*
X47430087Y-64161626D01*
X47622439Y-63998787D01*
X47622440Y-63998786D01*
X47626005Y-63995768D01*
X47717729Y-63891177D01*
X47795257Y-63802774D01*
X47795261Y-63802769D01*
X47798339Y-63799259D01*
X47865130Y-63695421D01*
X47897224Y-63645526D01*
X47950898Y-63599054D01*
X48021176Y-63588979D01*
X48085745Y-63618498D01*
X48092290Y-63624594D01*
X59107462Y-74639767D01*
X59141488Y-74702079D01*
X59136423Y-74772894D01*
X59093876Y-74829730D01*
X59037426Y-74853412D01*
X58989929Y-74860680D01*
X58775468Y-74930777D01*
X58575335Y-75034960D01*
X58571202Y-75038063D01*
X58571199Y-75038065D01*
X58435117Y-75140238D01*
X58394905Y-75170430D01*
X58331445Y-75236837D01*
X58304410Y-75265128D01*
X58239024Y-75333550D01*
X58236112Y-75337819D01*
X58236106Y-75337827D01*
X58142503Y-75475043D01*
X58087592Y-75520046D01*
X58017067Y-75528217D01*
X57953320Y-75496963D01*
X57932623Y-75472479D01*
X57862634Y-75364291D01*
X57862632Y-75364288D01*
X57859826Y-75359951D01*
X57707977Y-75193071D01*
X57703926Y-75189872D01*
X57703922Y-75189868D01*
X57534966Y-75056434D01*
X57534962Y-75056432D01*
X57530911Y-75053232D01*
X57333383Y-74944191D01*
X57120698Y-74868876D01*
X57091795Y-74863727D01*
X56903657Y-74830214D01*
X56903653Y-74830214D01*
X56898569Y-74829308D01*
X56826574Y-74828429D01*
X56678129Y-74826615D01*
X56678127Y-74826615D01*
X56672959Y-74826552D01*
X56449929Y-74860680D01*
X56235468Y-74930777D01*
X56035335Y-75034960D01*
X56031202Y-75038063D01*
X56031199Y-75038065D01*
X55895117Y-75140238D01*
X55854905Y-75170430D01*
X55791445Y-75236837D01*
X55764410Y-75265128D01*
X55699024Y-75333550D01*
X55571878Y-75519940D01*
X55569704Y-75524624D01*
X55569702Y-75524627D01*
X55498402Y-75678231D01*
X55476881Y-75724593D01*
X55416585Y-75942013D01*
X55392609Y-76166362D01*
X55392906Y-76171514D01*
X55392906Y-76171518D01*
X55398618Y-76270578D01*
X55405597Y-76391614D01*
X55406734Y-76396660D01*
X55406735Y-76396666D01*
X55427984Y-76490952D01*
X55455200Y-76611720D01*
X55457142Y-76616502D01*
X55457143Y-76616506D01*
X55528794Y-76792961D01*
X55540086Y-76820769D01*
X55657975Y-77013147D01*
X55805702Y-77183687D01*
X55979299Y-77327810D01*
X55983751Y-77330412D01*
X55983756Y-77330415D01*
X56163168Y-77435255D01*
X56174103Y-77441645D01*
X56384884Y-77522134D01*
X56389952Y-77523165D01*
X56389955Y-77523166D01*
X56488868Y-77543290D01*
X56605981Y-77567117D01*
X56611156Y-77567307D01*
X56611158Y-77567307D01*
X56826292Y-77575196D01*
X56826296Y-77575196D01*
X56831456Y-77575385D01*
X56836576Y-77574729D01*
X56836578Y-77574729D01*
X56905985Y-77565838D01*
X57055253Y-77546716D01*
X57060202Y-77545231D01*
X57060208Y-77545230D01*
X57266413Y-77483365D01*
X57266412Y-77483365D01*
X57271363Y-77481880D01*
X57388964Y-77424268D01*
X57469331Y-77384897D01*
X57469336Y-77384894D01*
X57473982Y-77382618D01*
X57478192Y-77379615D01*
X57478197Y-77379612D01*
X57653455Y-77254601D01*
X57653459Y-77254597D01*
X57657667Y-77251596D01*
X57817487Y-77092333D01*
X57904159Y-76971717D01*
X57938370Y-76924107D01*
X57994364Y-76880459D01*
X58065068Y-76874013D01*
X58128032Y-76906816D01*
X58148125Y-76931799D01*
X58195275Y-77008743D01*
X58195279Y-77008748D01*
X58197975Y-77013147D01*
X58345702Y-77183687D01*
X58519299Y-77327810D01*
X58523751Y-77330412D01*
X58523756Y-77330415D01*
X58703168Y-77435255D01*
X58714103Y-77441645D01*
X58924884Y-77522134D01*
X58929952Y-77523165D01*
X58929955Y-77523166D01*
X59028868Y-77543290D01*
X59145981Y-77567117D01*
X59151156Y-77567307D01*
X59151158Y-77567307D01*
X59366292Y-77575196D01*
X59366296Y-77575196D01*
X59371456Y-77575385D01*
X59376576Y-77574729D01*
X59376578Y-77574729D01*
X59445985Y-77565838D01*
X59595253Y-77546716D01*
X59600202Y-77545231D01*
X59600208Y-77545230D01*
X59806413Y-77483365D01*
X59806412Y-77483365D01*
X59811363Y-77481880D01*
X59928964Y-77424268D01*
X60009331Y-77384897D01*
X60009336Y-77384894D01*
X60013982Y-77382618D01*
X60018192Y-77379615D01*
X60018197Y-77379612D01*
X60193455Y-77254601D01*
X60193459Y-77254597D01*
X60197667Y-77251596D01*
X60357487Y-77092333D01*
X60444159Y-76971717D01*
X60478370Y-76924107D01*
X60534364Y-76880459D01*
X60605068Y-76874013D01*
X60668032Y-76906816D01*
X60688125Y-76931799D01*
X60735275Y-77008743D01*
X60735279Y-77008748D01*
X60737975Y-77013147D01*
X60885702Y-77183687D01*
X61059299Y-77327810D01*
X61063751Y-77330412D01*
X61063756Y-77330415D01*
X61243168Y-77435255D01*
X61254103Y-77441645D01*
X61464884Y-77522134D01*
X61469952Y-77523165D01*
X61469955Y-77523166D01*
X61568868Y-77543290D01*
X61685981Y-77567117D01*
X61691156Y-77567307D01*
X61691158Y-77567307D01*
X61906292Y-77575196D01*
X61906296Y-77575196D01*
X61911456Y-77575385D01*
X61916576Y-77574729D01*
X61916578Y-77574729D01*
X61985985Y-77565838D01*
X62135253Y-77546716D01*
X62140202Y-77545231D01*
X62140208Y-77545230D01*
X62346413Y-77483365D01*
X62346412Y-77483365D01*
X62351363Y-77481880D01*
X62468964Y-77424268D01*
X62549331Y-77384897D01*
X62549336Y-77384894D01*
X62553982Y-77382618D01*
X62558192Y-77379615D01*
X62558197Y-77379612D01*
X62733455Y-77254601D01*
X62733459Y-77254597D01*
X62737667Y-77251596D01*
X62897487Y-77092333D01*
X62984159Y-76971717D01*
X63018370Y-76924107D01*
X63074364Y-76880459D01*
X63145068Y-76874013D01*
X63208032Y-76906816D01*
X63228125Y-76931799D01*
X63275275Y-77008743D01*
X63275279Y-77008748D01*
X63277975Y-77013147D01*
X63425702Y-77183687D01*
X63599299Y-77327810D01*
X63603751Y-77330412D01*
X63603756Y-77330415D01*
X63783168Y-77435255D01*
X63794103Y-77441645D01*
X64004884Y-77522134D01*
X64009952Y-77523165D01*
X64009955Y-77523166D01*
X64108868Y-77543290D01*
X64225981Y-77567117D01*
X64231156Y-77567307D01*
X64231158Y-77567307D01*
X64446292Y-77575196D01*
X64446296Y-77575196D01*
X64451456Y-77575385D01*
X64456576Y-77574729D01*
X64456578Y-77574729D01*
X64525985Y-77565838D01*
X64675253Y-77546716D01*
X64680202Y-77545231D01*
X64680208Y-77545230D01*
X64886413Y-77483365D01*
X64886412Y-77483365D01*
X64891363Y-77481880D01*
X65008964Y-77424268D01*
X65089331Y-77384897D01*
X65089336Y-77384894D01*
X65093982Y-77382618D01*
X65098192Y-77379615D01*
X65098197Y-77379612D01*
X65273455Y-77254601D01*
X65273459Y-77254597D01*
X65277667Y-77251596D01*
X65437487Y-77092333D01*
X65524159Y-76971717D01*
X65558370Y-76924107D01*
X65614364Y-76880459D01*
X65685068Y-76874013D01*
X65748032Y-76906816D01*
X65768125Y-76931799D01*
X65815275Y-77008743D01*
X65815279Y-77008748D01*
X65817975Y-77013147D01*
X65965702Y-77183687D01*
X66139299Y-77327810D01*
X66143751Y-77330412D01*
X66143756Y-77330415D01*
X66323168Y-77435255D01*
X66334103Y-77441645D01*
X66544884Y-77522134D01*
X66549952Y-77523165D01*
X66549955Y-77523166D01*
X66648868Y-77543290D01*
X66765981Y-77567117D01*
X66771156Y-77567307D01*
X66771158Y-77567307D01*
X66986292Y-77575196D01*
X66986296Y-77575196D01*
X66991456Y-77575385D01*
X66996576Y-77574729D01*
X66996578Y-77574729D01*
X67065985Y-77565838D01*
X67215253Y-77546716D01*
X67220202Y-77545231D01*
X67220208Y-77545230D01*
X67426413Y-77483365D01*
X67426412Y-77483365D01*
X67431363Y-77481880D01*
X67548964Y-77424268D01*
X67629331Y-77384897D01*
X67629336Y-77384894D01*
X67633982Y-77382618D01*
X67638192Y-77379615D01*
X67638197Y-77379612D01*
X67813455Y-77254601D01*
X67813459Y-77254597D01*
X67817667Y-77251596D01*
X67977487Y-77092333D01*
X68098686Y-76923667D01*
X68154680Y-76880019D01*
X68225384Y-76873573D01*
X68288348Y-76906376D01*
X68308441Y-76931358D01*
X68355682Y-77008448D01*
X68361765Y-77016759D01*
X68502665Y-77179417D01*
X68510032Y-77186633D01*
X68675606Y-77324095D01*
X68684053Y-77330010D01*
X68869859Y-77438586D01*
X68879146Y-77443036D01*
X69080198Y-77519810D01*
X69090091Y-77522684D01*
X69197248Y-77544485D01*
X69211300Y-77543290D01*
X69215000Y-77532945D01*
X69215000Y-76072000D01*
X69235002Y-76003879D01*
X69288658Y-75957386D01*
X69341000Y-75946000D01*
X69979500Y-75946000D01*
X70047621Y-75966002D01*
X70094114Y-76019658D01*
X70105500Y-76072000D01*
X70105500Y-76328000D01*
X70085498Y-76396121D01*
X70031842Y-76442614D01*
X69979500Y-76454000D01*
X69741115Y-76454000D01*
X69725876Y-76458475D01*
X69724671Y-76459865D01*
X69723000Y-76467548D01*
X69723000Y-77532229D01*
X69727064Y-77546071D01*
X69740479Y-77548105D01*
X69750025Y-77546882D01*
X69760095Y-77544742D01*
X69966225Y-77482900D01*
X69975832Y-77479134D01*
X70169076Y-77384464D01*
X70177934Y-77379185D01*
X70313034Y-77282819D01*
X70380108Y-77259546D01*
X70449116Y-77276229D01*
X70475298Y-77296302D01*
X70724225Y-77545230D01*
X70972753Y-77793758D01*
X70980287Y-77802037D01*
X70984400Y-77808518D01*
X71034051Y-77855143D01*
X71036893Y-77857898D01*
X71056630Y-77877635D01*
X71059827Y-77880115D01*
X71068847Y-77887818D01*
X71101079Y-77918086D01*
X71108025Y-77921905D01*
X71108028Y-77921907D01*
X71118834Y-77927848D01*
X71135353Y-77938699D01*
X71151359Y-77951114D01*
X71158628Y-77954259D01*
X71158632Y-77954262D01*
X71191937Y-77968674D01*
X71202587Y-77973891D01*
X71241142Y-77995086D01*
X71291199Y-78045430D01*
X71306093Y-78114847D01*
X71281092Y-78181296D01*
X71224136Y-78223681D01*
X71180440Y-78231500D01*
X43973857Y-78231500D01*
X43905736Y-78211498D01*
X43859243Y-78157842D01*
X43849139Y-78087568D01*
X43878633Y-78022988D01*
X43901406Y-78002413D01*
X44038528Y-77906042D01*
X44129023Y-77842441D01*
X44207403Y-77769606D01*
X44336479Y-77649661D01*
X44336481Y-77649658D01*
X44339622Y-77646740D01*
X44521713Y-77424268D01*
X44667118Y-77186989D01*
X44669686Y-77182799D01*
X44671927Y-77179142D01*
X44689176Y-77139849D01*
X44785757Y-76919830D01*
X44787483Y-76915898D01*
X44790196Y-76906376D01*
X44865068Y-76643534D01*
X44866244Y-76639406D01*
X44906751Y-76354784D01*
X44906845Y-76336951D01*
X44908235Y-76071583D01*
X44908235Y-76071576D01*
X44908257Y-76067297D01*
X44895463Y-75970113D01*
X44871292Y-75786522D01*
X44870732Y-75782266D01*
X44854859Y-75724242D01*
X44805835Y-75545043D01*
X44794871Y-75504964D01*
X44773404Y-75454636D01*
X44683763Y-75244476D01*
X44683761Y-75244472D01*
X44682077Y-75240524D01*
X44572153Y-75056855D01*
X44536643Y-74997521D01*
X44536640Y-74997517D01*
X44534439Y-74993839D01*
X44354687Y-74769472D01*
X44195956Y-74618842D01*
X44149258Y-74574527D01*
X44149255Y-74574525D01*
X44146149Y-74571577D01*
X43912683Y-74403814D01*
X43890843Y-74392250D01*
X43793472Y-74340695D01*
X43658608Y-74269288D01*
X43388627Y-74170489D01*
X43107736Y-74109245D01*
X43076685Y-74106801D01*
X42884718Y-74091693D01*
X42884709Y-74091693D01*
X42882261Y-74091500D01*
X42726729Y-74091500D01*
X42724593Y-74091646D01*
X42724582Y-74091646D01*
X42516452Y-74105835D01*
X42516446Y-74105836D01*
X42512175Y-74106127D01*
X42507980Y-74106996D01*
X42507978Y-74106996D01*
X42371416Y-74135277D01*
X42230658Y-74164426D01*
X41959657Y-74260393D01*
X41704188Y-74392250D01*
X41700687Y-74394711D01*
X41700683Y-74394713D01*
X41634017Y-74441567D01*
X41468977Y-74557559D01*
X41453892Y-74571577D01*
X41294846Y-74719372D01*
X41258378Y-74753260D01*
X41076287Y-74975732D01*
X40926073Y-75220858D01*
X40810517Y-75484102D01*
X40731756Y-75760594D01*
X40691249Y-76045216D01*
X40691227Y-76049505D01*
X40691226Y-76049512D01*
X40689765Y-76328417D01*
X40689743Y-76332703D01*
X40727268Y-76617734D01*
X40803129Y-76895036D01*
X40804813Y-76898984D01*
X40909591Y-77144630D01*
X40915923Y-77159476D01*
X40954118Y-77223295D01*
X41050835Y-77384897D01*
X41063561Y-77406161D01*
X41243313Y-77630528D01*
X41366711Y-77747628D01*
X41415322Y-77793758D01*
X41451851Y-77828423D01*
X41685317Y-77996186D01*
X41689119Y-77998199D01*
X41689464Y-77998413D01*
X41736819Y-78051309D01*
X41748059Y-78121411D01*
X41719615Y-78186460D01*
X41660518Y-78225806D01*
X41623068Y-78231500D01*
X29463500Y-78231500D01*
X29395379Y-78211498D01*
X29348886Y-78157842D01*
X29337500Y-78105500D01*
X29337500Y-57611839D01*
X32747173Y-57611839D01*
X32747397Y-57616505D01*
X32747397Y-57616511D01*
X32753443Y-57742374D01*
X32759713Y-57872908D01*
X32810704Y-58129256D01*
X32899026Y-58375252D01*
X32901242Y-58379376D01*
X32965753Y-58499437D01*
X33022737Y-58605491D01*
X33025532Y-58609234D01*
X33025534Y-58609237D01*
X33176330Y-58811177D01*
X33176335Y-58811183D01*
X33179122Y-58814915D01*
X33182431Y-58818195D01*
X33182436Y-58818201D01*
X33351077Y-58985376D01*
X33364743Y-58998923D01*
X33368505Y-59001681D01*
X33368508Y-59001684D01*
X33523281Y-59115168D01*
X33575524Y-59153474D01*
X33579667Y-59155654D01*
X33579669Y-59155655D01*
X33802684Y-59272989D01*
X33802689Y-59272991D01*
X33806834Y-59275172D01*
X34053590Y-59361344D01*
X34058183Y-59362216D01*
X34305785Y-59409224D01*
X34305788Y-59409224D01*
X34310374Y-59410095D01*
X34440958Y-59415226D01*
X34566875Y-59420174D01*
X34566881Y-59420174D01*
X34571543Y-59420357D01*
X34650977Y-59411657D01*
X34826707Y-59392412D01*
X34826712Y-59392411D01*
X34831360Y-59391902D01*
X34875029Y-59380405D01*
X35079594Y-59326548D01*
X35079596Y-59326547D01*
X35084117Y-59325357D01*
X35324262Y-59222182D01*
X35406258Y-59171442D01*
X35542547Y-59087104D01*
X35542548Y-59087104D01*
X35546519Y-59084646D01*
X35550082Y-59081629D01*
X35550087Y-59081626D01*
X35742439Y-58918787D01*
X35742440Y-58918786D01*
X35746005Y-58915768D01*
X35852680Y-58794129D01*
X35915257Y-58722774D01*
X35915261Y-58722769D01*
X35918339Y-58719259D01*
X36059733Y-58499437D01*
X36167083Y-58261129D01*
X36205607Y-58124535D01*
X36236760Y-58014076D01*
X36236761Y-58014073D01*
X36238030Y-58009572D01*
X36254840Y-57877435D01*
X36270616Y-57753421D01*
X36270616Y-57753417D01*
X36271014Y-57750291D01*
X36271098Y-57747108D01*
X36273348Y-57661160D01*
X36273431Y-57658000D01*
X36254061Y-57397348D01*
X36244825Y-57356528D01*
X36197408Y-57146980D01*
X36196377Y-57142423D01*
X36150199Y-57023676D01*
X36103340Y-56903176D01*
X36103339Y-56903173D01*
X36101647Y-56898823D01*
X35971951Y-56671902D01*
X35810138Y-56466643D01*
X35619763Y-56287557D01*
X35420240Y-56149142D01*
X35408851Y-56141241D01*
X35408848Y-56141239D01*
X35405009Y-56138576D01*
X35364644Y-56118670D01*
X35174781Y-56025040D01*
X35174778Y-56025039D01*
X35170593Y-56022975D01*
X35156901Y-56018592D01*
X34926123Y-55944720D01*
X34921665Y-55943293D01*
X34663693Y-55901279D01*
X34549942Y-55899790D01*
X34407022Y-55897919D01*
X34407019Y-55897919D01*
X34402345Y-55897858D01*
X34143362Y-55933104D01*
X34138876Y-55934412D01*
X34138874Y-55934412D01*
X34122674Y-55939134D01*
X33892433Y-56006243D01*
X33888180Y-56008203D01*
X33888179Y-56008204D01*
X33840965Y-56029970D01*
X33655072Y-56115668D01*
X33616067Y-56141241D01*
X33440404Y-56256410D01*
X33440399Y-56256414D01*
X33436491Y-56258976D01*
X33241494Y-56433018D01*
X33074363Y-56633970D01*
X32938771Y-56857419D01*
X32837697Y-57098455D01*
X32773359Y-57351783D01*
X32747173Y-57611839D01*
X29337500Y-57611839D01*
X29337500Y-47624500D01*
X29357502Y-47556379D01*
X29411158Y-47509886D01*
X29463500Y-47498500D01*
X39361377Y-47498500D01*
X39362148Y-47498502D01*
X39439721Y-47498976D01*
X39468152Y-47490850D01*
X39484915Y-47487272D01*
X39514187Y-47483080D01*
X39537564Y-47472451D01*
X39555087Y-47466004D01*
X39579771Y-47458949D01*
X39587365Y-47454157D01*
X39587368Y-47454156D01*
X39604780Y-47443170D01*
X39619865Y-47435030D01*
X39646782Y-47422792D01*
X39666235Y-47406030D01*
X39681239Y-47394927D01*
X39702958Y-47381224D01*
X39708897Y-47374499D01*
X39708901Y-47374496D01*
X39722532Y-47359062D01*
X39734724Y-47347018D01*
X39750327Y-47333573D01*
X39750329Y-47333570D01*
X39757127Y-47327713D01*
X39771094Y-47306165D01*
X39782385Y-47291291D01*
X39793431Y-47278783D01*
X39793432Y-47278782D01*
X39799378Y-47272049D01*
X39811943Y-47245287D01*
X39820263Y-47230309D01*
X39831471Y-47213017D01*
X39831473Y-47213012D01*
X39836352Y-47205485D01*
X39838922Y-47196892D01*
X39838924Y-47196887D01*
X39843711Y-47180880D01*
X39850372Y-47163436D01*
X39857467Y-47148324D01*
X39857468Y-47148322D01*
X39861281Y-47140200D01*
X39865830Y-47110983D01*
X39869613Y-47094268D01*
X39875515Y-47074534D01*
X39875516Y-47074528D01*
X39878086Y-47065934D01*
X39878296Y-47031494D01*
X39878329Y-47030711D01*
X39878500Y-47029614D01*
X39878500Y-46998623D01*
X39878502Y-46997853D01*
X39878952Y-46924215D01*
X39878952Y-46924214D01*
X39878976Y-46920279D01*
X39878592Y-46918935D01*
X39878500Y-46917590D01*
X39878500Y-34298623D01*
X39878502Y-34297853D01*
X39878921Y-34229254D01*
X39878976Y-34220279D01*
X39870850Y-34191847D01*
X39867272Y-34175085D01*
X39864352Y-34154698D01*
X39863080Y-34145813D01*
X39852451Y-34122436D01*
X39846004Y-34104913D01*
X39841416Y-34088862D01*
X39838949Y-34080229D01*
X39834156Y-34072632D01*
X39823170Y-34055220D01*
X39815030Y-34040135D01*
X39802792Y-34013218D01*
X39786030Y-33993765D01*
X39774927Y-33978761D01*
X39761224Y-33957042D01*
X39754499Y-33951103D01*
X39754496Y-33951099D01*
X39739062Y-33937468D01*
X39727018Y-33925276D01*
X39713573Y-33909673D01*
X39713570Y-33909671D01*
X39707713Y-33902873D01*
X39686165Y-33888906D01*
X39671291Y-33877615D01*
X39658783Y-33866569D01*
X39658782Y-33866568D01*
X39652049Y-33860622D01*
X39625287Y-33848057D01*
X39610309Y-33839737D01*
X39593017Y-33828529D01*
X39593012Y-33828527D01*
X39585485Y-33823648D01*
X39576892Y-33821078D01*
X39576887Y-33821076D01*
X39560880Y-33816289D01*
X39543436Y-33809628D01*
X39528324Y-33802533D01*
X39528322Y-33802532D01*
X39520200Y-33798719D01*
X39511333Y-33797338D01*
X39511332Y-33797338D01*
X39501690Y-33795837D01*
X39490983Y-33794170D01*
X39474268Y-33790387D01*
X39454534Y-33784485D01*
X39454528Y-33784484D01*
X39445934Y-33781914D01*
X39436963Y-33781859D01*
X39436962Y-33781859D01*
X39426903Y-33781798D01*
X39411494Y-33781704D01*
X39410711Y-33781671D01*
X39409614Y-33781500D01*
X39378623Y-33781500D01*
X39377853Y-33781498D01*
X39304215Y-33781048D01*
X39304214Y-33781048D01*
X39300279Y-33781024D01*
X39298935Y-33781408D01*
X39297590Y-33781500D01*
X29463500Y-33781500D01*
X29395379Y-33761498D01*
X29348886Y-33707842D01*
X29337500Y-33655500D01*
X29337500Y-26034500D01*
X29357502Y-25966379D01*
X29411158Y-25919886D01*
X29463500Y-25908500D01*
X42894143Y-25908500D01*
X42962264Y-25928502D01*
G37*
%TD.AperFunction*%
%TA.AperFunction,Conductor*%
G36*
X66764032Y-28646816D02*
G01*
X66784125Y-28671799D01*
X66831275Y-28748743D01*
X66831279Y-28748748D01*
X66833975Y-28753147D01*
X66981702Y-28923687D01*
X67155299Y-29067810D01*
X67159754Y-29070413D01*
X67159765Y-29070421D01*
X67252018Y-29124330D01*
X67300741Y-29175968D01*
X67312895Y-29213402D01*
X67314078Y-29220870D01*
X67314327Y-29228789D01*
X67316538Y-29236398D01*
X67319978Y-29248239D01*
X67323987Y-29267600D01*
X67326526Y-29287697D01*
X67329445Y-29295068D01*
X67329445Y-29295070D01*
X67342804Y-29328812D01*
X67346649Y-29340042D01*
X67358982Y-29382493D01*
X67363015Y-29389312D01*
X67363017Y-29389317D01*
X67369293Y-29399928D01*
X67377988Y-29417676D01*
X67385448Y-29436517D01*
X67390110Y-29442933D01*
X67390110Y-29442934D01*
X67411436Y-29472287D01*
X67417952Y-29482207D01*
X67440458Y-29520262D01*
X67454779Y-29534583D01*
X67467619Y-29549616D01*
X67479528Y-29566007D01*
X67513605Y-29594198D01*
X67522384Y-29602188D01*
X70449595Y-32529400D01*
X70483621Y-32591712D01*
X70486500Y-32618495D01*
X70486500Y-35356606D01*
X70466498Y-35424727D01*
X70432771Y-35459819D01*
X70280211Y-35566643D01*
X70280208Y-35566645D01*
X70275700Y-35569802D01*
X70113802Y-35731700D01*
X69982477Y-35919251D01*
X69980154Y-35924233D01*
X69980151Y-35924238D01*
X69964195Y-35958457D01*
X69917278Y-36011742D01*
X69849001Y-36031203D01*
X69781041Y-36010661D01*
X69735805Y-35958457D01*
X69719849Y-35924238D01*
X69719846Y-35924233D01*
X69717523Y-35919251D01*
X69586198Y-35731700D01*
X69424300Y-35569802D01*
X69419792Y-35566645D01*
X69419789Y-35566643D01*
X69264589Y-35457971D01*
X69220261Y-35402514D01*
X69212580Y-35366499D01*
X69212163Y-35366565D01*
X69210922Y-35358731D01*
X69210673Y-35350811D01*
X69205021Y-35331357D01*
X69201013Y-35312000D01*
X69199468Y-35299770D01*
X69199468Y-35299769D01*
X69198474Y-35291903D01*
X69194734Y-35282457D01*
X69182196Y-35250788D01*
X69178351Y-35239558D01*
X69168229Y-35204717D01*
X69168229Y-35204716D01*
X69166018Y-35197107D01*
X69161985Y-35190288D01*
X69161983Y-35190283D01*
X69155707Y-35179672D01*
X69147012Y-35161924D01*
X69139552Y-35143083D01*
X69113564Y-35107313D01*
X69107048Y-35097393D01*
X69088580Y-35066165D01*
X69088578Y-35066162D01*
X69084542Y-35059338D01*
X69070221Y-35045017D01*
X69057380Y-35029983D01*
X69045472Y-35013593D01*
X69011395Y-34985402D01*
X69002616Y-34977412D01*
X66075405Y-32050200D01*
X66041379Y-31987888D01*
X66038500Y-31961105D01*
X66038500Y-29236217D01*
X66058502Y-29168096D01*
X66101991Y-29129376D01*
X66100897Y-29127541D01*
X66105342Y-29124891D01*
X66109982Y-29122618D01*
X66183159Y-29070421D01*
X66289455Y-28994601D01*
X66289459Y-28994597D01*
X66293667Y-28991596D01*
X66453487Y-28832333D01*
X66574370Y-28664107D01*
X66630364Y-28620459D01*
X66701068Y-28614013D01*
X66764032Y-28646816D01*
G37*
%TD.AperFunction*%
%TD*%
M02*
