%TF.GenerationSoftware,KiCad,Pcbnew,(6.0.9)*%
%TF.CreationDate,2023-07-04T21:14:23+02:00*%
%TF.ProjectId,p2000t-cartridge-reader,70323030-3074-42d6-9361-727472696467,rev?*%
%TF.SameCoordinates,Original*%
%TF.FileFunction,Legend,Top*%
%TF.FilePolarity,Positive*%
%FSLAX46Y46*%
G04 Gerber Fmt 4.6, Leading zero omitted, Abs format (unit mm)*
G04 Created by KiCad (PCBNEW (6.0.9)) date 2023-07-04 21:14:23*
%MOMM*%
%LPD*%
G01*
G04 APERTURE LIST*
%ADD10C,0.150000*%
%ADD11C,0.120000*%
G04 APERTURE END LIST*
D10*
X71455595Y-69200380D02*
X71455595Y-68200380D01*
X71836547Y-68200380D01*
X71931785Y-68248000D01*
X71979404Y-68295619D01*
X72027023Y-68390857D01*
X72027023Y-68533714D01*
X71979404Y-68628952D01*
X71931785Y-68676571D01*
X71836547Y-68724190D01*
X71455595Y-68724190D01*
X72407976Y-68295619D02*
X72455595Y-68248000D01*
X72550833Y-68200380D01*
X72788928Y-68200380D01*
X72884166Y-68248000D01*
X72931785Y-68295619D01*
X72979404Y-68390857D01*
X72979404Y-68486095D01*
X72931785Y-68628952D01*
X72360357Y-69200380D01*
X72979404Y-69200380D01*
X73598452Y-68200380D02*
X73693690Y-68200380D01*
X73788928Y-68248000D01*
X73836547Y-68295619D01*
X73884166Y-68390857D01*
X73931785Y-68581333D01*
X73931785Y-68819428D01*
X73884166Y-69009904D01*
X73836547Y-69105142D01*
X73788928Y-69152761D01*
X73693690Y-69200380D01*
X73598452Y-69200380D01*
X73503214Y-69152761D01*
X73455595Y-69105142D01*
X73407976Y-69009904D01*
X73360357Y-68819428D01*
X73360357Y-68581333D01*
X73407976Y-68390857D01*
X73455595Y-68295619D01*
X73503214Y-68248000D01*
X73598452Y-68200380D01*
X74550833Y-68200380D02*
X74646071Y-68200380D01*
X74741309Y-68248000D01*
X74788928Y-68295619D01*
X74836547Y-68390857D01*
X74884166Y-68581333D01*
X74884166Y-68819428D01*
X74836547Y-69009904D01*
X74788928Y-69105142D01*
X74741309Y-69152761D01*
X74646071Y-69200380D01*
X74550833Y-69200380D01*
X74455595Y-69152761D01*
X74407976Y-69105142D01*
X74360357Y-69009904D01*
X74312738Y-68819428D01*
X74312738Y-68581333D01*
X74360357Y-68390857D01*
X74407976Y-68295619D01*
X74455595Y-68248000D01*
X74550833Y-68200380D01*
X75503214Y-68200380D02*
X75598452Y-68200380D01*
X75693690Y-68248000D01*
X75741309Y-68295619D01*
X75788928Y-68390857D01*
X75836547Y-68581333D01*
X75836547Y-68819428D01*
X75788928Y-69009904D01*
X75741309Y-69105142D01*
X75693690Y-69152761D01*
X75598452Y-69200380D01*
X75503214Y-69200380D01*
X75407976Y-69152761D01*
X75360357Y-69105142D01*
X75312738Y-69009904D01*
X75265119Y-68819428D01*
X75265119Y-68581333D01*
X75312738Y-68390857D01*
X75360357Y-68295619D01*
X75407976Y-68248000D01*
X75503214Y-68200380D01*
X77598452Y-69105142D02*
X77550833Y-69152761D01*
X77407976Y-69200380D01*
X77312738Y-69200380D01*
X77169880Y-69152761D01*
X77074642Y-69057523D01*
X77027023Y-68962285D01*
X76979404Y-68771809D01*
X76979404Y-68628952D01*
X77027023Y-68438476D01*
X77074642Y-68343238D01*
X77169880Y-68248000D01*
X77312738Y-68200380D01*
X77407976Y-68200380D01*
X77550833Y-68248000D01*
X77598452Y-68295619D01*
X78455595Y-69200380D02*
X78455595Y-68676571D01*
X78407976Y-68581333D01*
X78312738Y-68533714D01*
X78122261Y-68533714D01*
X78027023Y-68581333D01*
X78455595Y-69152761D02*
X78360357Y-69200380D01*
X78122261Y-69200380D01*
X78027023Y-69152761D01*
X77979404Y-69057523D01*
X77979404Y-68962285D01*
X78027023Y-68867047D01*
X78122261Y-68819428D01*
X78360357Y-68819428D01*
X78455595Y-68771809D01*
X78931785Y-69200380D02*
X78931785Y-68533714D01*
X78931785Y-68724190D02*
X78979404Y-68628952D01*
X79027023Y-68581333D01*
X79122261Y-68533714D01*
X79217500Y-68533714D01*
X79407976Y-68533714D02*
X79788928Y-68533714D01*
X79550833Y-68200380D02*
X79550833Y-69057523D01*
X79598452Y-69152761D01*
X79693690Y-69200380D01*
X79788928Y-69200380D01*
X80122261Y-69200380D02*
X80122261Y-68533714D01*
X80122261Y-68724190D02*
X80169880Y-68628952D01*
X80217500Y-68581333D01*
X80312738Y-68533714D01*
X80407976Y-68533714D01*
X80741309Y-69200380D02*
X80741309Y-68533714D01*
X80741309Y-68200380D02*
X80693690Y-68248000D01*
X80741309Y-68295619D01*
X80788928Y-68248000D01*
X80741309Y-68200380D01*
X80741309Y-68295619D01*
X81646071Y-69200380D02*
X81646071Y-68200380D01*
X81646071Y-69152761D02*
X81550833Y-69200380D01*
X81360357Y-69200380D01*
X81265119Y-69152761D01*
X81217500Y-69105142D01*
X81169880Y-69009904D01*
X81169880Y-68724190D01*
X81217500Y-68628952D01*
X81265119Y-68581333D01*
X81360357Y-68533714D01*
X81550833Y-68533714D01*
X81646071Y-68581333D01*
X82550833Y-68533714D02*
X82550833Y-69343238D01*
X82503214Y-69438476D01*
X82455595Y-69486095D01*
X82360357Y-69533714D01*
X82217500Y-69533714D01*
X82122261Y-69486095D01*
X82550833Y-69152761D02*
X82455595Y-69200380D01*
X82265119Y-69200380D01*
X82169880Y-69152761D01*
X82122261Y-69105142D01*
X82074642Y-69009904D01*
X82074642Y-68724190D01*
X82122261Y-68628952D01*
X82169880Y-68581333D01*
X82265119Y-68533714D01*
X82455595Y-68533714D01*
X82550833Y-68581333D01*
X83407976Y-69152761D02*
X83312738Y-69200380D01*
X83122261Y-69200380D01*
X83027023Y-69152761D01*
X82979404Y-69057523D01*
X82979404Y-68676571D01*
X83027023Y-68581333D01*
X83122261Y-68533714D01*
X83312738Y-68533714D01*
X83407976Y-68581333D01*
X83455595Y-68676571D01*
X83455595Y-68771809D01*
X82979404Y-68867047D01*
X85217500Y-69200380D02*
X84884166Y-68724190D01*
X84646071Y-69200380D02*
X84646071Y-68200380D01*
X85027023Y-68200380D01*
X85122261Y-68248000D01*
X85169880Y-68295619D01*
X85217500Y-68390857D01*
X85217500Y-68533714D01*
X85169880Y-68628952D01*
X85122261Y-68676571D01*
X85027023Y-68724190D01*
X84646071Y-68724190D01*
X86027023Y-69152761D02*
X85931785Y-69200380D01*
X85741309Y-69200380D01*
X85646071Y-69152761D01*
X85598452Y-69057523D01*
X85598452Y-68676571D01*
X85646071Y-68581333D01*
X85741309Y-68533714D01*
X85931785Y-68533714D01*
X86027023Y-68581333D01*
X86074642Y-68676571D01*
X86074642Y-68771809D01*
X85598452Y-68867047D01*
X86931785Y-69200380D02*
X86931785Y-68676571D01*
X86884166Y-68581333D01*
X86788928Y-68533714D01*
X86598452Y-68533714D01*
X86503214Y-68581333D01*
X86931785Y-69152761D02*
X86836547Y-69200380D01*
X86598452Y-69200380D01*
X86503214Y-69152761D01*
X86455595Y-69057523D01*
X86455595Y-68962285D01*
X86503214Y-68867047D01*
X86598452Y-68819428D01*
X86836547Y-68819428D01*
X86931785Y-68771809D01*
X87836547Y-69200380D02*
X87836547Y-68200380D01*
X87836547Y-69152761D02*
X87741309Y-69200380D01*
X87550833Y-69200380D01*
X87455595Y-69152761D01*
X87407976Y-69105142D01*
X87360357Y-69009904D01*
X87360357Y-68724190D01*
X87407976Y-68628952D01*
X87455595Y-68581333D01*
X87550833Y-68533714D01*
X87741309Y-68533714D01*
X87836547Y-68581333D01*
X88693690Y-69152761D02*
X88598452Y-69200380D01*
X88407976Y-69200380D01*
X88312738Y-69152761D01*
X88265119Y-69057523D01*
X88265119Y-68676571D01*
X88312738Y-68581333D01*
X88407976Y-68533714D01*
X88598452Y-68533714D01*
X88693690Y-68581333D01*
X88741309Y-68676571D01*
X88741309Y-68771809D01*
X88265119Y-68867047D01*
X89169880Y-69200380D02*
X89169880Y-68533714D01*
X89169880Y-68724190D02*
X89217500Y-68628952D01*
X89265119Y-68581333D01*
X89360357Y-68533714D01*
X89455595Y-68533714D01*
X71407976Y-70524666D02*
X71884166Y-70524666D01*
X71312738Y-70810380D02*
X71646071Y-69810380D01*
X71979404Y-70810380D01*
X72312738Y-70810380D02*
X72312738Y-70143714D01*
X72312738Y-70334190D02*
X72360357Y-70238952D01*
X72407976Y-70191333D01*
X72503214Y-70143714D01*
X72598452Y-70143714D01*
X73360357Y-70810380D02*
X73360357Y-69810380D01*
X73360357Y-70762761D02*
X73265119Y-70810380D01*
X73074642Y-70810380D01*
X72979404Y-70762761D01*
X72931785Y-70715142D01*
X72884166Y-70619904D01*
X72884166Y-70334190D01*
X72931785Y-70238952D01*
X72979404Y-70191333D01*
X73074642Y-70143714D01*
X73265119Y-70143714D01*
X73360357Y-70191333D01*
X74265119Y-70143714D02*
X74265119Y-70810380D01*
X73836547Y-70143714D02*
X73836547Y-70667523D01*
X73884166Y-70762761D01*
X73979404Y-70810380D01*
X74122261Y-70810380D01*
X74217500Y-70762761D01*
X74265119Y-70715142D01*
X74741309Y-70810380D02*
X74741309Y-70143714D01*
X74741309Y-69810380D02*
X74693690Y-69858000D01*
X74741309Y-69905619D01*
X74788928Y-69858000D01*
X74741309Y-69810380D01*
X74741309Y-69905619D01*
X75217500Y-70143714D02*
X75217500Y-70810380D01*
X75217500Y-70238952D02*
X75265119Y-70191333D01*
X75360357Y-70143714D01*
X75503214Y-70143714D01*
X75598452Y-70191333D01*
X75646071Y-70286571D01*
X75646071Y-70810380D01*
X76265119Y-70810380D02*
X76169880Y-70762761D01*
X76122261Y-70715142D01*
X76074642Y-70619904D01*
X76074642Y-70334190D01*
X76122261Y-70238952D01*
X76169880Y-70191333D01*
X76265119Y-70143714D01*
X76407976Y-70143714D01*
X76503214Y-70191333D01*
X76550833Y-70238952D01*
X76598452Y-70334190D01*
X76598452Y-70619904D01*
X76550833Y-70715142D01*
X76503214Y-70762761D01*
X76407976Y-70810380D01*
X76265119Y-70810380D01*
X78265119Y-70810380D02*
X77788928Y-70810380D01*
X77788928Y-69810380D01*
X78979404Y-70762761D02*
X78884166Y-70810380D01*
X78693690Y-70810380D01*
X78598452Y-70762761D01*
X78550833Y-70667523D01*
X78550833Y-70286571D01*
X78598452Y-70191333D01*
X78693690Y-70143714D01*
X78884166Y-70143714D01*
X78979404Y-70191333D01*
X79027023Y-70286571D01*
X79027023Y-70381809D01*
X78550833Y-70477047D01*
X79598452Y-70810380D02*
X79503214Y-70762761D01*
X79455595Y-70715142D01*
X79407976Y-70619904D01*
X79407976Y-70334190D01*
X79455595Y-70238952D01*
X79503214Y-70191333D01*
X79598452Y-70143714D01*
X79741309Y-70143714D01*
X79836547Y-70191333D01*
X79884166Y-70238952D01*
X79931785Y-70334190D01*
X79931785Y-70619904D01*
X79884166Y-70715142D01*
X79836547Y-70762761D01*
X79741309Y-70810380D01*
X79598452Y-70810380D01*
X80360357Y-70143714D02*
X80360357Y-70810380D01*
X80360357Y-70238952D02*
X80407976Y-70191333D01*
X80503214Y-70143714D01*
X80646071Y-70143714D01*
X80741309Y-70191333D01*
X80788928Y-70286571D01*
X80788928Y-70810380D01*
X81693690Y-70810380D02*
X81693690Y-70286571D01*
X81646071Y-70191333D01*
X81550833Y-70143714D01*
X81360357Y-70143714D01*
X81265119Y-70191333D01*
X81693690Y-70762761D02*
X81598452Y-70810380D01*
X81360357Y-70810380D01*
X81265119Y-70762761D01*
X81217500Y-70667523D01*
X81217500Y-70572285D01*
X81265119Y-70477047D01*
X81360357Y-70429428D01*
X81598452Y-70429428D01*
X81693690Y-70381809D01*
X82169880Y-70810380D02*
X82169880Y-70143714D01*
X82169880Y-70334190D02*
X82217500Y-70238952D01*
X82265119Y-70191333D01*
X82360357Y-70143714D01*
X82455595Y-70143714D01*
X83217500Y-70810380D02*
X83217500Y-69810380D01*
X83217500Y-70762761D02*
X83122261Y-70810380D01*
X82931785Y-70810380D01*
X82836547Y-70762761D01*
X82788928Y-70715142D01*
X82741309Y-70619904D01*
X82741309Y-70334190D01*
X82788928Y-70238952D01*
X82836547Y-70191333D01*
X82931785Y-70143714D01*
X83122261Y-70143714D01*
X83217500Y-70191333D01*
X83836547Y-70810380D02*
X83741309Y-70762761D01*
X83693690Y-70715142D01*
X83646071Y-70619904D01*
X83646071Y-70334190D01*
X83693690Y-70238952D01*
X83741309Y-70191333D01*
X83836547Y-70143714D01*
X83979404Y-70143714D01*
X84074642Y-70191333D01*
X84122261Y-70238952D01*
X84169880Y-70334190D01*
X84169880Y-70619904D01*
X84122261Y-70715142D01*
X84074642Y-70762761D01*
X83979404Y-70810380D01*
X83836547Y-70810380D01*
X85312738Y-70762761D02*
X85455595Y-70810380D01*
X85693690Y-70810380D01*
X85788928Y-70762761D01*
X85836547Y-70715142D01*
X85884166Y-70619904D01*
X85884166Y-70524666D01*
X85836547Y-70429428D01*
X85788928Y-70381809D01*
X85693690Y-70334190D01*
X85503214Y-70286571D01*
X85407976Y-70238952D01*
X85360357Y-70191333D01*
X85312738Y-70096095D01*
X85312738Y-70000857D01*
X85360357Y-69905619D01*
X85407976Y-69858000D01*
X85503214Y-69810380D01*
X85741309Y-69810380D01*
X85884166Y-69858000D01*
X86312738Y-70810380D02*
X86312738Y-69810380D01*
X86741309Y-70810380D02*
X86741309Y-70286571D01*
X86693690Y-70191333D01*
X86598452Y-70143714D01*
X86455595Y-70143714D01*
X86360357Y-70191333D01*
X86312738Y-70238952D01*
X87217500Y-70810380D02*
X87217500Y-70143714D01*
X87217500Y-69810380D02*
X87169880Y-69858000D01*
X87217500Y-69905619D01*
X87265119Y-69858000D01*
X87217500Y-69810380D01*
X87217500Y-69905619D01*
X88074642Y-70762761D02*
X87979404Y-70810380D01*
X87788928Y-70810380D01*
X87693690Y-70762761D01*
X87646071Y-70667523D01*
X87646071Y-70286571D01*
X87693690Y-70191333D01*
X87788928Y-70143714D01*
X87979404Y-70143714D01*
X88074642Y-70191333D01*
X88122261Y-70286571D01*
X88122261Y-70381809D01*
X87646071Y-70477047D01*
X88693690Y-70810380D02*
X88598452Y-70762761D01*
X88550833Y-70667523D01*
X88550833Y-69810380D01*
X89503214Y-70810380D02*
X89503214Y-69810380D01*
X89503214Y-70762761D02*
X89407976Y-70810380D01*
X89217500Y-70810380D01*
X89122261Y-70762761D01*
X89074642Y-70715142D01*
X89027023Y-70619904D01*
X89027023Y-70334190D01*
X89074642Y-70238952D01*
X89122261Y-70191333D01*
X89217500Y-70143714D01*
X89407976Y-70143714D01*
X89503214Y-70191333D01*
X71455595Y-72039428D02*
X72217500Y-72039428D01*
X72693690Y-72420380D02*
X72693690Y-71753714D01*
X72693690Y-71944190D02*
X72741309Y-71848952D01*
X72788928Y-71801333D01*
X72884166Y-71753714D01*
X72979404Y-71753714D01*
X73693690Y-72372761D02*
X73598452Y-72420380D01*
X73407976Y-72420380D01*
X73312738Y-72372761D01*
X73265119Y-72277523D01*
X73265119Y-71896571D01*
X73312738Y-71801333D01*
X73407976Y-71753714D01*
X73598452Y-71753714D01*
X73693690Y-71801333D01*
X73741309Y-71896571D01*
X73741309Y-71991809D01*
X73265119Y-72087047D01*
X74074642Y-71753714D02*
X74312738Y-72420380D01*
X74550833Y-71753714D01*
X75455595Y-72420380D02*
X74884166Y-72420380D01*
X75169880Y-72420380D02*
X75169880Y-71420380D01*
X75074642Y-71563238D01*
X74979404Y-71658476D01*
X74884166Y-71706095D01*
X75884166Y-72039428D02*
X76646071Y-72039428D01*
%TO.C,U1*%
X53002380Y-41147904D02*
X53811904Y-41147904D01*
X53907142Y-41100285D01*
X53954761Y-41052666D01*
X54002380Y-40957428D01*
X54002380Y-40766952D01*
X53954761Y-40671714D01*
X53907142Y-40624095D01*
X53811904Y-40576476D01*
X53002380Y-40576476D01*
X54002380Y-39576476D02*
X54002380Y-40147904D01*
X54002380Y-39862190D02*
X53002380Y-39862190D01*
X53145238Y-39957428D01*
X53240476Y-40052666D01*
X53288095Y-40147904D01*
X75775714Y-41624095D02*
X76442380Y-41624095D01*
X75394761Y-41862190D02*
X76109047Y-42100285D01*
X76109047Y-41481238D01*
X75442380Y-40909809D02*
X75442380Y-40814571D01*
X75490000Y-40719333D01*
X75537619Y-40671714D01*
X75632857Y-40624095D01*
X75823333Y-40576476D01*
X76061428Y-40576476D01*
X76251904Y-40624095D01*
X76347142Y-40671714D01*
X76394761Y-40719333D01*
X76442380Y-40814571D01*
X76442380Y-40909809D01*
X76394761Y-41005047D01*
X76347142Y-41052666D01*
X76251904Y-41100285D01*
X76061428Y-41147904D01*
X75823333Y-41147904D01*
X75632857Y-41100285D01*
X75537619Y-41052666D01*
X75490000Y-41005047D01*
X75442380Y-40909809D01*
X75775714Y-39719333D02*
X76442380Y-39719333D01*
X75394761Y-39957428D02*
X76109047Y-40195523D01*
X76109047Y-39576476D01*
X75442380Y-39005047D02*
X75442380Y-38909809D01*
X75490000Y-38814571D01*
X75537619Y-38766952D01*
X75632857Y-38719333D01*
X75823333Y-38671714D01*
X76061428Y-38671714D01*
X76251904Y-38719333D01*
X76347142Y-38766952D01*
X76394761Y-38814571D01*
X76442380Y-38909809D01*
X76442380Y-39005047D01*
X76394761Y-39100285D01*
X76347142Y-39147904D01*
X76251904Y-39195523D01*
X76061428Y-39243142D01*
X75823333Y-39243142D01*
X75632857Y-39195523D01*
X75537619Y-39147904D01*
X75490000Y-39100285D01*
X75442380Y-39005047D01*
%TO.C,XA1*%
X91313000Y-47093142D02*
X91360619Y-47140761D01*
X91313000Y-47188380D01*
X91265380Y-47140761D01*
X91313000Y-47093142D01*
X91313000Y-47188380D01*
%TO.C,J1*%
X31212380Y-60531333D02*
X31926666Y-60531333D01*
X32069523Y-60578952D01*
X32164761Y-60674190D01*
X32212380Y-60817047D01*
X32212380Y-60912285D01*
X32212380Y-59531333D02*
X32212380Y-60102761D01*
X32212380Y-59817047D02*
X31212380Y-59817047D01*
X31355238Y-59912285D01*
X31450476Y-60007523D01*
X31498095Y-60102761D01*
D11*
%TO.C,U1*%
X75050000Y-35246000D02*
X54490000Y-35246000D01*
X54550000Y-43036000D02*
X74990000Y-43036000D01*
X54550000Y-37736000D02*
X54550000Y-39386000D01*
X74990000Y-37736000D02*
X54550000Y-37736000D01*
X54490000Y-45526000D02*
X75050000Y-45526000D01*
X75050000Y-45526000D02*
X75050000Y-35246000D01*
X74990000Y-43036000D02*
X74990000Y-37736000D01*
X54490000Y-35246000D02*
X54490000Y-45526000D01*
X54550000Y-41386000D02*
X54550000Y-43036000D01*
X54550000Y-41386000D02*
G75*
G03*
X54550000Y-39386000I0J1000000D01*
G01*
D10*
%TO.C,XA1*%
X94869000Y-77470000D02*
X97409000Y-74930000D01*
X97409000Y-40640000D02*
X94869000Y-38100000D01*
X97409000Y-74930000D02*
X97409000Y-40640000D01*
X94869000Y-78740000D02*
X94869000Y-77470000D01*
X28829000Y-78740000D02*
X94869000Y-78740000D01*
X28829000Y-25400000D02*
X93345000Y-25400000D01*
X93345000Y-25400000D02*
X94869000Y-26924000D01*
X94869000Y-38100000D02*
X94869000Y-26924000D01*
X28829000Y-25400000D02*
X28829000Y-78740000D01*
D11*
%TO.C,J1*%
X91700000Y-64488000D02*
X91700000Y-55908001D01*
X33120000Y-58768000D02*
X33120000Y-61627999D01*
X32760000Y-55908000D02*
X32760000Y-58768000D01*
X32760000Y-64487999D02*
X91700000Y-64488000D01*
X32760000Y-58768000D02*
X33120000Y-58768000D01*
X33120000Y-61627999D02*
X32760000Y-61627999D01*
X32760000Y-61627999D02*
X32760000Y-64487999D01*
X91700000Y-55908001D02*
X32760000Y-55908000D01*
%TD*%
M02*
